0
SECTION
2
HEADER
9
$INSUNITS
70
4
0
ENDSEC
0
SECTION
2
TABLES
0
TABLE
2
LTYPE
0
LTYPE
72
65
70
64
2
CONTINUOUS
3
______
73
0
40
0
0
ENDTAB
0
TABLE
2
LAYER
0
ENDTAB
0
ENDSEC
0
SECTION
2
ENTITIES
0
LINE
8
0
10
-7.525
20
-11.025
11
26.525
21
-11.025
0
LINE
8
0
10
-10.525
20
-8.025
11
-10.525
21
65.025
0
LINE
8
0
10
-7.525
20
68.025
11
27.475
21
68.025
0
LINE
8
0
10
29.525
20
-8.025
11
29.525
21
-5.025
0
LINE
8
0
10
29.525
20
-5.025
11
43.375
21
-5.025
0
LINE
8
0
10
46.475
20
74.025
11
30.475
21
74.025
0
LINE
8
0
10
27.475
20
71.025
11
27.475
21
68.025
0
LINE
8
0
10
67.525
20
74.025
11
67.525
21
77.025
0
LINE
8
0
10
67.525
20
77.025
11
46.475
21
77.025
0
LINE
8
0
10
46.475
20
77.025
11
46.475
21
74.025
0
LINE
8
0
10
86.425
20
-5.025
11
87.0325183
21
-5.025
0
LINE
8
0
10
67.525
20
74.025
11
102.525
21
74.025
0
LINE
8
0
10
105.525
20
-2.687476
11
105.525
21
0.975
0
LINE
8
0
10
105.525
20
26.025
11
105.525
21
71.025
0
LINE
8
0
10
105.525
20
0.975
11
107.9545413
21
0.975
0
LINE
8
0
10
110.9113416
20
0.975
11
121.525
21
0.975
0
LINE
8
0
10
124.525
20
3.975
11
124.525
21
20.025
0
LINE
8
0
10
121.525
20
23.025
11
108.525
21
23.025
0
LINE
8
0
10
49.375
20
-24.025
11
86.425
21
-24.025
0
LINE
8
0
10
46.375
20
-8.025
11
46.375
21
-21.025
0
LINE
8
0
10
86.425
20
-24.025
11
86.425
21
-23.15067
0
LINE
8
0
10
86.425
20
-11.968966
11
86.425
21
-5.025
0
LINE
8
0
10
86.425
20
-23.15067
11
103.4354731
21
-24.6388935
0
LINE
8
0
10
106.6855243
20
-21.9117765
11
106.7904436
21
-20.7125435
0
LINE
8
0
10
107.4165558
20
-2.8529657
11
105.525
21
-2.687476
0
LINE
8
0
10
87.0325183
20
-5.025
11
86.425
21
-11.968966
0
LINE
8
0
10
106.7904436
20
-20.7125435
11
122.8173838
21
-22.964983
0
LINE
8
0
10
126.2057073
20
-20.4116981
11
128.4394356
21
-4.5178956
0
LINE
8
0
10
125.8861507
20
-1.1295721
11
110.9113416
21
0.975
0
LINE
8
0
10
107.9545413
20
0.975
11
107.4165558
21
-2.8529657
0
ARC
8
0
10
26.525
20
-8.025
40
3
50
270
51
0
0
ARC
8
0
10
43.375
20
-8.025
40
3
50
0
51
90
0
ARC
8
0
10
49.375
20
-21.025
40
3
50
180
51
270
0
ARC
8
0
10
103.6969402
20
-21.6503094
40
3
50
265.0000024
51
355.0000024
0
ARC
8
0
10
123.2349031
20
-19.9941788
40
3
50
262.0000003
51
352.0000003
0
ARC
8
0
10
125.4686314
20
-4.1003763
40
3
50
352.0000003
51
82.0000003
0
ARC
8
0
10
121.525
20
3.975
40
3
50
270
51
0
0
ARC
8
0
10
121.525
20
20.025
40
3
50
0
51
90
0
ARC
8
0
10
108.525
20
26.025
40
3
50
180
51
270
0
ARC
8
0
10
102.525
20
71.025
40
3
50
0
51
90
0
ARC
8
0
10
30.475
20
71.025
40
3
50
90
51
180
0
ARC
8
0
10
-7.525
20
65.025
40
3
50
90
51
180
0
ARC
8
0
10
-7.525
20
-8.025
40
3
50
180
51
270
0
LINE
8
0
10
-7
20
-7
11
7
21
-7
0
LINE
8
0
10
7
20
-7
11
7
21
7
0
LINE
8
0
10
7
20
7
11
-7
21
7
0
LINE
8
0
10
-7
20
7
11
-7
21
-7
0
LINE
8
0
10
-7
20
12
11
7
21
12
0
LINE
8
0
10
7
20
12
11
7
21
26
0
LINE
8
0
10
7
20
26
11
-7
21
26
0
LINE
8
0
10
-7
20
26
11
-7
21
12
0
LINE
8
0
10
-7
20
31
11
7
21
31
0
LINE
8
0
10
7
20
31
11
7
21
45
0
LINE
8
0
10
7
20
45
11
-7
21
45
0
LINE
8
0
10
-7
20
45
11
-7
21
31
0
LINE
8
0
10
-7
20
50
11
7
21
50
0
LINE
8
0
10
7
20
50
11
7
21
64
0
LINE
8
0
10
7
20
64
11
-7
21
64
0
LINE
8
0
10
-7
20
64
11
-7
21
50
0
LINE
8
0
10
12
20
-7
11
26
21
-7
0
LINE
8
0
10
26
20
-7
11
26
21
7
0
LINE
8
0
10
26
20
7
11
12
21
7
0
LINE
8
0
10
12
20
7
11
12
21
-7
0
LINE
8
0
10
12
20
12
11
26
21
12
0
LINE
8
0
10
26
20
12
11
26
21
26
0
LINE
8
0
10
26
20
26
11
12
21
26
0
LINE
8
0
10
12
20
26
11
12
21
12
0
LINE
8
0
10
12
20
31
11
26
21
31
0
LINE
8
0
10
26
20
31
11
26
21
45
0
LINE
8
0
10
26
20
45
11
12
21
45
0
LINE
8
0
10
12
20
45
11
12
21
31
0
LINE
8
0
10
12
20
50
11
26
21
50
0
LINE
8
0
10
26
20
50
11
26
21
64
0
LINE
8
0
10
26
20
64
11
12
21
64
0
LINE
8
0
10
12
20
64
11
12
21
50
0
LINE
8
0
10
31
20
-1
11
45
21
-1
0
LINE
8
0
10
45
20
-1
11
45
21
13
0
LINE
8
0
10
45
20
13
11
31
21
13
0
LINE
8
0
10
31
20
13
11
31
21
-1
0
LINE
8
0
10
31
20
18
11
45
21
18
0
LINE
8
0
10
45
20
18
11
45
21
32
0
LINE
8
0
10
45
20
32
11
31
21
32
0
LINE
8
0
10
31
20
32
11
31
21
18
0
LINE
8
0
10
31
20
37
11
45
21
37
0
LINE
8
0
10
45
20
37
11
45
21
51
0
LINE
8
0
10
45
20
51
11
31
21
51
0
LINE
8
0
10
31
20
51
11
31
21
37
0
LINE
8
0
10
31
20
56
11
45
21
56
0
LINE
8
0
10
45
20
56
11
45
21
70
0
LINE
8
0
10
45
20
70
11
31
21
70
0
LINE
8
0
10
31
20
70
11
31
21
56
0
LINE
8
0
10
50
20
2
11
64
21
2
0
LINE
8
0
10
64
20
2
11
64
21
16
0
LINE
8
0
10
64
20
16
11
50
21
16
0
LINE
8
0
10
50
20
16
11
50
21
2
0
LINE
8
0
10
50
20
21
11
64
21
21
0
LINE
8
0
10
64
20
21
11
64
21
35
0
LINE
8
0
10
64
20
35
11
50
21
35
0
LINE
8
0
10
50
20
35
11
50
21
21
0
LINE
8
0
10
50
20
40
11
64
21
40
0
LINE
8
0
10
64
20
40
11
64
21
54
0
LINE
8
0
10
64
20
54
11
50
21
54
0
LINE
8
0
10
50
20
54
11
50
21
40
0
LINE
8
0
10
50
20
59
11
64
21
59
0
LINE
8
0
10
64
20
59
11
64
21
73
0
LINE
8
0
10
64
20
73
11
50
21
73
0
LINE
8
0
10
50
20
73
11
50
21
59
0
LINE
8
0
10
69
20
-1
11
83
21
-1
0
LINE
8
0
10
83
20
-1
11
83
21
13
0
LINE
8
0
10
83
20
13
11
69
21
13
0
LINE
8
0
10
69
20
13
11
69
21
-1
0
LINE
8
0
10
69
20
18
11
83
21
18
0
LINE
8
0
10
83
20
18
11
83
21
32
0
LINE
8
0
10
83
20
32
11
69
21
32
0
LINE
8
0
10
69
20
32
11
69
21
18
0
LINE
8
0
10
69
20
37
11
83
21
37
0
LINE
8
0
10
83
20
37
11
83
21
51
0
LINE
8
0
10
83
20
51
11
69
21
51
0
LINE
8
0
10
69
20
51
11
69
21
37
0
LINE
8
0
10
69
20
56
11
83
21
56
0
LINE
8
0
10
83
20
56
11
83
21
70
0
LINE
8
0
10
83
20
70
11
69
21
70
0
LINE
8
0
10
69
20
70
11
69
21
56
0
LINE
8
0
10
88
20
-1
11
102
21
-1
0
LINE
8
0
10
102
20
-1
11
102
21
13
0
LINE
8
0
10
102
20
13
11
88
21
13
0
LINE
8
0
10
88
20
13
11
88
21
-1
0
LINE
8
0
10
88
20
18
11
102
21
18
0
LINE
8
0
10
102
20
18
11
102
21
32
0
LINE
8
0
10
102
20
32
11
88
21
32
0
LINE
8
0
10
88
20
32
11
88
21
18
0
LINE
8
0
10
88
20
37
11
102
21
37
0
LINE
8
0
10
102
20
37
11
102
21
51
0
LINE
8
0
10
102
20
51
11
88
21
51
0
LINE
8
0
10
88
20
51
11
88
21
37
0
LINE
8
0
10
88
20
56
11
102
21
56
0
LINE
8
0
10
102
20
56
11
102
21
70
0
LINE
8
0
10
102
20
70
11
88
21
70
0
LINE
8
0
10
88
20
70
11
88
21
56
0
LINE
8
0
10
107
20
5
11
121
21
5
0
LINE
8
0
10
121
20
5
11
121
21
19
0
LINE
8
0
10
121
20
19
11
107
21
19
0
LINE
8
0
10
107
20
19
11
107
21
5
0
LINE
8
0
10
49.9
20
-20
11
63.9
21
-20
0
LINE
8
0
10
63.9
20
-20
11
63.9
21
-6
0
LINE
8
0
10
63.9
20
-6
11
49.9
21
-6
0
LINE
8
0
10
49.9
20
-6
11
49.9
21
-20
0
LINE
8
0
10
68.9
20
-20
11
82.9
21
-20
0
LINE
8
0
10
82.9
20
-20
11
82.9
21
-6
0
LINE
8
0
10
82.9
20
-6
11
68.9
21
-6
0
LINE
8
0
10
68.9
20
-6
11
68.9
21
-20
0
LINE
8
0
10
89.3165469
20
-19.3632727
11
103.2632727
21
-20.5834531
0
LINE
8
0
10
103.2632727
20
-20.5834531
11
104.4834531
21
-6.6367273
0
LINE
8
0
10
104.4834531
20
-6.6367273
11
90.5367273
21
-5.4165469
0
LINE
8
0
10
90.5367273
20
-5.4165469
11
89.3165469
21
-19.3632727
0
LINE
8
0
10
108.9939118
20
-16.9576648
11
122.8576648
21
-18.9060882
0
LINE
8
0
10
122.8576648
20
-18.9060882
11
124.8060882
21
-5.0423352
0
LINE
8
0
10
124.8060882
20
-5.0423352
11
110.9423352
21
-3.0939118
0
LINE
8
0
10
110.9423352
20
-3.0939118
11
108.9939118
21
-16.9576648
0
ENDSEC
0
EOF