%TF.GenerationSoftware,KiCad,Pcbnew,9.0.5*%
%TF.CreationDate,2025-11-01T14:53:46+08:00*%
%TF.ProjectId,main,6d61696e-2e6b-4696-9361-645f70636258,v1.0.0*%
%TF.SameCoordinates,Original*%
%TF.FileFunction,Copper,L1,Top*%
%TF.FilePolarity,Positive*%
%FSLAX46Y46*%
G04 Gerber Fmt 4.6, Leading zero omitted, Abs format (unit mm)*
G04 Created by KiCad (PCBNEW 9.0.5) date 2025-11-01 14:53:46*
%MOMM*%
%LPD*%
G01*
G04 APERTURE LIST*
G04 Aperture macros list*
%AMRotRect*
0 Rectangle, with rotation*
0 The origin of the aperture is its center*
0 $1 length*
0 $2 width*
0 $3 Rotation angle, in degrees counterclockwise*
0 Add horizontal line*
21,1,$1,$2,0,0,$3*%
%AMFreePoly0*
4,1,6,0.250000,0.000000,-0.250000,-0.625000,-0.500000,-0.625000,-0.500000,0.625000,-0.250000,0.625000,0.250000,0.000000,0.250000,0.000000,$1*%
%AMFreePoly1*
4,1,6,0.500000,-0.625000,-0.650000,-0.625000,-0.150000,0.000000,-0.650000,0.625000,0.500000,0.625000,0.500000,-0.625000,0.500000,-0.625000,$1*%
G04 Aperture macros list end*
%ADD10C,0.300000*%
%TA.AperFunction,NonConductor*%
%ADD11C,0.300000*%
%TD*%
%TA.AperFunction,SMDPad,CuDef*%
%ADD12R,1.800000X1.100000*%
%TD*%
%TA.AperFunction,ComponentPad*%
%ADD13C,2.286000*%
%TD*%
%TA.AperFunction,ComponentPad*%
%ADD14R,1.778000X1.778000*%
%TD*%
%TA.AperFunction,SMDPad,CuDef*%
%ADD15R,0.900000X1.200000*%
%TD*%
%TA.AperFunction,ComponentPad*%
%ADD16C,1.905000*%
%TD*%
%TA.AperFunction,ComponentPad*%
%ADD17RotRect,1.778000X1.778000X352.000000*%
%TD*%
%TA.AperFunction,SMDPad,CuDef*%
%ADD18RotRect,0.900000X1.200000X352.000000*%
%TD*%
%TA.AperFunction,SMDPad,CuDef*%
%ADD19FreePoly0,180.000000*%
%TD*%
%TA.AperFunction,ComponentPad*%
%ADD20C,1.700000*%
%TD*%
%TA.AperFunction,SMDPad,CuDef*%
%ADD21FreePoly0,0.000000*%
%TD*%
%TA.AperFunction,ComponentPad*%
%ADD22C,0.800000*%
%TD*%
%TA.AperFunction,SMDPad,CuDef*%
%ADD23FreePoly1,180.000000*%
%TD*%
%TA.AperFunction,SMDPad,CuDef*%
%ADD24FreePoly1,0.000000*%
%TD*%
%TA.AperFunction,ComponentPad*%
%ADD25R,1.700000X1.200000*%
%TD*%
%TA.AperFunction,ComponentPad*%
%ADD26O,1.700000X1.200000*%
%TD*%
%TA.AperFunction,ComponentPad*%
%ADD27RotRect,1.778000X1.778000X355.000000*%
%TD*%
%TA.AperFunction,SMDPad,CuDef*%
%ADD28RotRect,0.900000X1.200000X355.000000*%
%TD*%
%TA.AperFunction,ViaPad*%
%ADD29C,0.600000*%
%TD*%
%TA.AperFunction,Conductor*%
%ADD30C,0.200000*%
%TD*%
%TA.AperFunction,Conductor*%
%ADD31C,0.250000*%
%TD*%
G04 APERTURE END LIST*
D10*
D11*
X21054510Y-23300828D02*
X21054510Y-21800828D01*
X21054510Y-21800828D02*
X21554510Y-22872257D01*
X21554510Y-22872257D02*
X22054510Y-21800828D01*
X22054510Y-21800828D02*
X22054510Y-23300828D01*
X22983082Y-23300828D02*
X22840225Y-23229400D01*
X22840225Y-23229400D02*
X22768796Y-23157971D01*
X22768796Y-23157971D02*
X22697368Y-23015114D01*
X22697368Y-23015114D02*
X22697368Y-22586542D01*
X22697368Y-22586542D02*
X22768796Y-22443685D01*
X22768796Y-22443685D02*
X22840225Y-22372257D01*
X22840225Y-22372257D02*
X22983082Y-22300828D01*
X22983082Y-22300828D02*
X23197368Y-22300828D01*
X23197368Y-22300828D02*
X23340225Y-22372257D01*
X23340225Y-22372257D02*
X23411654Y-22443685D01*
X23411654Y-22443685D02*
X23483082Y-22586542D01*
X23483082Y-22586542D02*
X23483082Y-23015114D01*
X23483082Y-23015114D02*
X23411654Y-23157971D01*
X23411654Y-23157971D02*
X23340225Y-23229400D01*
X23340225Y-23229400D02*
X23197368Y-23300828D01*
X23197368Y-23300828D02*
X22983082Y-23300828D01*
X24768797Y-23300828D02*
X24768797Y-21800828D01*
X24768797Y-23229400D02*
X24625939Y-23300828D01*
X24625939Y-23300828D02*
X24340225Y-23300828D01*
X24340225Y-23300828D02*
X24197368Y-23229400D01*
X24197368Y-23229400D02*
X24125939Y-23157971D01*
X24125939Y-23157971D02*
X24054511Y-23015114D01*
X24054511Y-23015114D02*
X24054511Y-22586542D01*
X24054511Y-22586542D02*
X24125939Y-22443685D01*
X24125939Y-22443685D02*
X24197368Y-22372257D01*
X24197368Y-22372257D02*
X24340225Y-22300828D01*
X24340225Y-22300828D02*
X24625939Y-22300828D01*
X24625939Y-22300828D02*
X24768797Y-22372257D01*
X26054511Y-23229400D02*
X25911654Y-23300828D01*
X25911654Y-23300828D02*
X25625940Y-23300828D01*
X25625940Y-23300828D02*
X25483082Y-23229400D01*
X25483082Y-23229400D02*
X25411654Y-23086542D01*
X25411654Y-23086542D02*
X25411654Y-22515114D01*
X25411654Y-22515114D02*
X25483082Y-22372257D01*
X25483082Y-22372257D02*
X25625940Y-22300828D01*
X25625940Y-22300828D02*
X25911654Y-22300828D01*
X25911654Y-22300828D02*
X26054511Y-22372257D01*
X26054511Y-22372257D02*
X26125940Y-22515114D01*
X26125940Y-22515114D02*
X26125940Y-22657971D01*
X26125940Y-22657971D02*
X25411654Y-22800828D01*
X26983082Y-23300828D02*
X26840225Y-23229400D01*
X26840225Y-23229400D02*
X26768796Y-23086542D01*
X26768796Y-23086542D02*
X26768796Y-21800828D01*
X27768796Y-23300828D02*
X27625939Y-23229400D01*
X27625939Y-23229400D02*
X27554510Y-23086542D01*
X27554510Y-23086542D02*
X27554510Y-21800828D01*
X28911653Y-23229400D02*
X28768796Y-23300828D01*
X28768796Y-23300828D02*
X28483082Y-23300828D01*
X28483082Y-23300828D02*
X28340224Y-23229400D01*
X28340224Y-23229400D02*
X28268796Y-23086542D01*
X28268796Y-23086542D02*
X28268796Y-22515114D01*
X28268796Y-22515114D02*
X28340224Y-22372257D01*
X28340224Y-22372257D02*
X28483082Y-22300828D01*
X28483082Y-22300828D02*
X28768796Y-22300828D01*
X28768796Y-22300828D02*
X28911653Y-22372257D01*
X28911653Y-22372257D02*
X28983082Y-22515114D01*
X28983082Y-22515114D02*
X28983082Y-22657971D01*
X28983082Y-22657971D02*
X28268796Y-22800828D01*
X30268796Y-23300828D02*
X30268796Y-21800828D01*
X30268796Y-23229400D02*
X30125938Y-23300828D01*
X30125938Y-23300828D02*
X29840224Y-23300828D01*
X29840224Y-23300828D02*
X29697367Y-23229400D01*
X29697367Y-23229400D02*
X29625938Y-23157971D01*
X29625938Y-23157971D02*
X29554510Y-23015114D01*
X29554510Y-23015114D02*
X29554510Y-22586542D01*
X29554510Y-22586542D02*
X29625938Y-22443685D01*
X29625938Y-22443685D02*
X29697367Y-22372257D01*
X29697367Y-22372257D02*
X29840224Y-22300828D01*
X29840224Y-22300828D02*
X30125938Y-22300828D01*
X30125938Y-22300828D02*
X30268796Y-22372257D01*
X32340224Y-23300828D02*
X32197367Y-23229400D01*
X32197367Y-23229400D02*
X32125938Y-23157971D01*
X32125938Y-23157971D02*
X32054510Y-23015114D01*
X32054510Y-23015114D02*
X32054510Y-22586542D01*
X32054510Y-22586542D02*
X32125938Y-22443685D01*
X32125938Y-22443685D02*
X32197367Y-22372257D01*
X32197367Y-22372257D02*
X32340224Y-22300828D01*
X32340224Y-22300828D02*
X32554510Y-22300828D01*
X32554510Y-22300828D02*
X32697367Y-22372257D01*
X32697367Y-22372257D02*
X32768796Y-22443685D01*
X32768796Y-22443685D02*
X32840224Y-22586542D01*
X32840224Y-22586542D02*
X32840224Y-23015114D01*
X32840224Y-23015114D02*
X32768796Y-23157971D01*
X32768796Y-23157971D02*
X32697367Y-23229400D01*
X32697367Y-23229400D02*
X32554510Y-23300828D01*
X32554510Y-23300828D02*
X32340224Y-23300828D01*
X33483081Y-22300828D02*
X33483081Y-23300828D01*
X33483081Y-22443685D02*
X33554510Y-22372257D01*
X33554510Y-22372257D02*
X33697367Y-22300828D01*
X33697367Y-22300828D02*
X33911653Y-22300828D01*
X33911653Y-22300828D02*
X34054510Y-22372257D01*
X34054510Y-22372257D02*
X34125939Y-22515114D01*
X34125939Y-22515114D02*
X34125939Y-23300828D01*
X36697367Y-23300828D02*
X35983081Y-23300828D01*
X35983081Y-23300828D02*
X35983081Y-21800828D01*
X37197367Y-23300828D02*
X37197367Y-22300828D01*
X37197367Y-21800828D02*
X37125939Y-21872257D01*
X37125939Y-21872257D02*
X37197367Y-21943685D01*
X37197367Y-21943685D02*
X37268796Y-21872257D01*
X37268796Y-21872257D02*
X37197367Y-21800828D01*
X37197367Y-21800828D02*
X37197367Y-21943685D01*
X38125939Y-23300828D02*
X37983082Y-23229400D01*
X37983082Y-23229400D02*
X37911653Y-23086542D01*
X37911653Y-23086542D02*
X37911653Y-21800828D01*
X38554510Y-22300828D02*
X38911653Y-23300828D01*
X39268796Y-22300828D02*
X38911653Y-23300828D01*
X38911653Y-23300828D02*
X38768796Y-23657971D01*
X38768796Y-23657971D02*
X38697367Y-23729400D01*
X38697367Y-23729400D02*
X38554510Y-23800828D01*
X40554510Y-21800828D02*
X39840224Y-21800828D01*
X39840224Y-21800828D02*
X39768796Y-22515114D01*
X39768796Y-22515114D02*
X39840224Y-22443685D01*
X39840224Y-22443685D02*
X39983082Y-22372257D01*
X39983082Y-22372257D02*
X40340224Y-22372257D01*
X40340224Y-22372257D02*
X40483082Y-22443685D01*
X40483082Y-22443685D02*
X40554510Y-22515114D01*
X40554510Y-22515114D02*
X40625939Y-22657971D01*
X40625939Y-22657971D02*
X40625939Y-23015114D01*
X40625939Y-23015114D02*
X40554510Y-23157971D01*
X40554510Y-23157971D02*
X40483082Y-23229400D01*
X40483082Y-23229400D02*
X40340224Y-23300828D01*
X40340224Y-23300828D02*
X39983082Y-23300828D01*
X39983082Y-23300828D02*
X39840224Y-23229400D01*
X39840224Y-23229400D02*
X39768796Y-23157971D01*
X41483081Y-22443685D02*
X41340224Y-22372257D01*
X41340224Y-22372257D02*
X41268795Y-22300828D01*
X41268795Y-22300828D02*
X41197367Y-22157971D01*
X41197367Y-22157971D02*
X41197367Y-22086542D01*
X41197367Y-22086542D02*
X41268795Y-21943685D01*
X41268795Y-21943685D02*
X41340224Y-21872257D01*
X41340224Y-21872257D02*
X41483081Y-21800828D01*
X41483081Y-21800828D02*
X41768795Y-21800828D01*
X41768795Y-21800828D02*
X41911653Y-21872257D01*
X41911653Y-21872257D02*
X41983081Y-21943685D01*
X41983081Y-21943685D02*
X42054510Y-22086542D01*
X42054510Y-22086542D02*
X42054510Y-22157971D01*
X42054510Y-22157971D02*
X41983081Y-22300828D01*
X41983081Y-22300828D02*
X41911653Y-22372257D01*
X41911653Y-22372257D02*
X41768795Y-22443685D01*
X41768795Y-22443685D02*
X41483081Y-22443685D01*
X41483081Y-22443685D02*
X41340224Y-22515114D01*
X41340224Y-22515114D02*
X41268795Y-22586542D01*
X41268795Y-22586542D02*
X41197367Y-22729400D01*
X41197367Y-22729400D02*
X41197367Y-23015114D01*
X41197367Y-23015114D02*
X41268795Y-23157971D01*
X41268795Y-23157971D02*
X41340224Y-23229400D01*
X41340224Y-23229400D02*
X41483081Y-23300828D01*
X41483081Y-23300828D02*
X41768795Y-23300828D01*
X41768795Y-23300828D02*
X41911653Y-23229400D01*
X41911653Y-23229400D02*
X41983081Y-23157971D01*
X41983081Y-23157971D02*
X42054510Y-23015114D01*
X42054510Y-23015114D02*
X42054510Y-22729400D01*
X42054510Y-22729400D02*
X41983081Y-22586542D01*
X41983081Y-22586542D02*
X41911653Y-22515114D01*
X41911653Y-22515114D02*
X41768795Y-22443685D01*
D10*
D11*
X20583082Y-104729400D02*
X20797368Y-104800828D01*
X20797368Y-104800828D02*
X21154510Y-104800828D01*
X21154510Y-104800828D02*
X21297368Y-104729400D01*
X21297368Y-104729400D02*
X21368796Y-104657971D01*
X21368796Y-104657971D02*
X21440225Y-104515114D01*
X21440225Y-104515114D02*
X21440225Y-104372257D01*
X21440225Y-104372257D02*
X21368796Y-104229400D01*
X21368796Y-104229400D02*
X21297368Y-104157971D01*
X21297368Y-104157971D02*
X21154510Y-104086542D01*
X21154510Y-104086542D02*
X20868796Y-104015114D01*
X20868796Y-104015114D02*
X20725939Y-103943685D01*
X20725939Y-103943685D02*
X20654510Y-103872257D01*
X20654510Y-103872257D02*
X20583082Y-103729400D01*
X20583082Y-103729400D02*
X20583082Y-103586542D01*
X20583082Y-103586542D02*
X20654510Y-103443685D01*
X20654510Y-103443685D02*
X20725939Y-103372257D01*
X20725939Y-103372257D02*
X20868796Y-103300828D01*
X20868796Y-103300828D02*
X21225939Y-103300828D01*
X21225939Y-103300828D02*
X21440225Y-103372257D01*
X21868796Y-103800828D02*
X22440224Y-103800828D01*
X22083081Y-103300828D02*
X22083081Y-104586542D01*
X22083081Y-104586542D02*
X22154510Y-104729400D01*
X22154510Y-104729400D02*
X22297367Y-104800828D01*
X22297367Y-104800828D02*
X22440224Y-104800828D01*
X23511653Y-104729400D02*
X23368796Y-104800828D01*
X23368796Y-104800828D02*
X23083082Y-104800828D01*
X23083082Y-104800828D02*
X22940224Y-104729400D01*
X22940224Y-104729400D02*
X22868796Y-104586542D01*
X22868796Y-104586542D02*
X22868796Y-104015114D01*
X22868796Y-104015114D02*
X22940224Y-103872257D01*
X22940224Y-103872257D02*
X23083082Y-103800828D01*
X23083082Y-103800828D02*
X23368796Y-103800828D01*
X23368796Y-103800828D02*
X23511653Y-103872257D01*
X23511653Y-103872257D02*
X23583082Y-104015114D01*
X23583082Y-104015114D02*
X23583082Y-104157971D01*
X23583082Y-104157971D02*
X22868796Y-104300828D01*
X24225938Y-104800828D02*
X24225938Y-103800828D01*
X24225938Y-104086542D02*
X24297367Y-103943685D01*
X24297367Y-103943685D02*
X24368796Y-103872257D01*
X24368796Y-103872257D02*
X24511653Y-103800828D01*
X24511653Y-103800828D02*
X24654510Y-103800828D01*
X25368795Y-104800828D02*
X25225938Y-104729400D01*
X25225938Y-104729400D02*
X25154509Y-104586542D01*
X25154509Y-104586542D02*
X25154509Y-103300828D01*
X25940223Y-104800828D02*
X25940223Y-103800828D01*
X25940223Y-103300828D02*
X25868795Y-103372257D01*
X25868795Y-103372257D02*
X25940223Y-103443685D01*
X25940223Y-103443685D02*
X26011652Y-103372257D01*
X26011652Y-103372257D02*
X25940223Y-103300828D01*
X25940223Y-103300828D02*
X25940223Y-103443685D01*
X26654509Y-103800828D02*
X26654509Y-104800828D01*
X26654509Y-103943685D02*
X26725938Y-103872257D01*
X26725938Y-103872257D02*
X26868795Y-103800828D01*
X26868795Y-103800828D02*
X27083081Y-103800828D01*
X27083081Y-103800828D02*
X27225938Y-103872257D01*
X27225938Y-103872257D02*
X27297367Y-104015114D01*
X27297367Y-104015114D02*
X27297367Y-104800828D01*
X28654510Y-103800828D02*
X28654510Y-105015114D01*
X28654510Y-105015114D02*
X28583081Y-105157971D01*
X28583081Y-105157971D02*
X28511652Y-105229400D01*
X28511652Y-105229400D02*
X28368795Y-105300828D01*
X28368795Y-105300828D02*
X28154510Y-105300828D01*
X28154510Y-105300828D02*
X28011652Y-105229400D01*
X28654510Y-104729400D02*
X28511652Y-104800828D01*
X28511652Y-104800828D02*
X28225938Y-104800828D01*
X28225938Y-104800828D02*
X28083081Y-104729400D01*
X28083081Y-104729400D02*
X28011652Y-104657971D01*
X28011652Y-104657971D02*
X27940224Y-104515114D01*
X27940224Y-104515114D02*
X27940224Y-104086542D01*
X27940224Y-104086542D02*
X28011652Y-103943685D01*
X28011652Y-103943685D02*
X28083081Y-103872257D01*
X28083081Y-103872257D02*
X28225938Y-103800828D01*
X28225938Y-103800828D02*
X28511652Y-103800828D01*
X28511652Y-103800828D02*
X28654510Y-103872257D01*
X30440224Y-104372257D02*
X31154510Y-104372257D01*
X30297367Y-104800828D02*
X30797367Y-103300828D01*
X30797367Y-103300828D02*
X31297367Y-104800828D01*
X32440224Y-104800828D02*
X32440224Y-103300828D01*
X32440224Y-104729400D02*
X32297366Y-104800828D01*
X32297366Y-104800828D02*
X32011652Y-104800828D01*
X32011652Y-104800828D02*
X31868795Y-104729400D01*
X31868795Y-104729400D02*
X31797366Y-104657971D01*
X31797366Y-104657971D02*
X31725938Y-104515114D01*
X31725938Y-104515114D02*
X31725938Y-104086542D01*
X31725938Y-104086542D02*
X31797366Y-103943685D01*
X31797366Y-103943685D02*
X31868795Y-103872257D01*
X31868795Y-103872257D02*
X32011652Y-103800828D01*
X32011652Y-103800828D02*
X32297366Y-103800828D01*
X32297366Y-103800828D02*
X32440224Y-103872257D01*
X33797367Y-104800828D02*
X33797367Y-104015114D01*
X33797367Y-104015114D02*
X33725938Y-103872257D01*
X33725938Y-103872257D02*
X33583081Y-103800828D01*
X33583081Y-103800828D02*
X33297367Y-103800828D01*
X33297367Y-103800828D02*
X33154509Y-103872257D01*
X33797367Y-104729400D02*
X33654509Y-104800828D01*
X33654509Y-104800828D02*
X33297367Y-104800828D01*
X33297367Y-104800828D02*
X33154509Y-104729400D01*
X33154509Y-104729400D02*
X33083081Y-104586542D01*
X33083081Y-104586542D02*
X33083081Y-104443685D01*
X33083081Y-104443685D02*
X33154509Y-104300828D01*
X33154509Y-104300828D02*
X33297367Y-104229400D01*
X33297367Y-104229400D02*
X33654509Y-104229400D01*
X33654509Y-104229400D02*
X33797367Y-104157971D01*
X34511652Y-104800828D02*
X34511652Y-103800828D01*
X34511652Y-103943685D02*
X34583081Y-103872257D01*
X34583081Y-103872257D02*
X34725938Y-103800828D01*
X34725938Y-103800828D02*
X34940224Y-103800828D01*
X34940224Y-103800828D02*
X35083081Y-103872257D01*
X35083081Y-103872257D02*
X35154510Y-104015114D01*
X35154510Y-104015114D02*
X35154510Y-104800828D01*
X35154510Y-104015114D02*
X35225938Y-103872257D01*
X35225938Y-103872257D02*
X35368795Y-103800828D01*
X35368795Y-103800828D02*
X35583081Y-103800828D01*
X35583081Y-103800828D02*
X35725938Y-103872257D01*
X35725938Y-103872257D02*
X35797367Y-104015114D01*
X35797367Y-104015114D02*
X35797367Y-104800828D01*
X36440224Y-104729400D02*
X36583081Y-104800828D01*
X36583081Y-104800828D02*
X36868795Y-104800828D01*
X36868795Y-104800828D02*
X37011652Y-104729400D01*
X37011652Y-104729400D02*
X37083081Y-104586542D01*
X37083081Y-104586542D02*
X37083081Y-104515114D01*
X37083081Y-104515114D02*
X37011652Y-104372257D01*
X37011652Y-104372257D02*
X36868795Y-104300828D01*
X36868795Y-104300828D02*
X36654510Y-104300828D01*
X36654510Y-104300828D02*
X36511652Y-104229400D01*
X36511652Y-104229400D02*
X36440224Y-104086542D01*
X36440224Y-104086542D02*
X36440224Y-104015114D01*
X36440224Y-104015114D02*
X36511652Y-103872257D01*
X36511652Y-103872257D02*
X36654510Y-103800828D01*
X36654510Y-103800828D02*
X36868795Y-103800828D01*
X36868795Y-103800828D02*
X37011652Y-103872257D01*
X38868795Y-104229400D02*
X40011653Y-104229400D01*
X42583081Y-104800828D02*
X41868795Y-104800828D01*
X41868795Y-104800828D02*
X41868795Y-103300828D01*
X43297367Y-104800828D02*
X43154510Y-104729400D01*
X43154510Y-104729400D02*
X43083081Y-104657971D01*
X43083081Y-104657971D02*
X43011653Y-104515114D01*
X43011653Y-104515114D02*
X43011653Y-104086542D01*
X43011653Y-104086542D02*
X43083081Y-103943685D01*
X43083081Y-103943685D02*
X43154510Y-103872257D01*
X43154510Y-103872257D02*
X43297367Y-103800828D01*
X43297367Y-103800828D02*
X43511653Y-103800828D01*
X43511653Y-103800828D02*
X43654510Y-103872257D01*
X43654510Y-103872257D02*
X43725939Y-103943685D01*
X43725939Y-103943685D02*
X43797367Y-104086542D01*
X43797367Y-104086542D02*
X43797367Y-104515114D01*
X43797367Y-104515114D02*
X43725939Y-104657971D01*
X43725939Y-104657971D02*
X43654510Y-104729400D01*
X43654510Y-104729400D02*
X43511653Y-104800828D01*
X43511653Y-104800828D02*
X43297367Y-104800828D01*
X45083082Y-103800828D02*
X45083082Y-104800828D01*
X44440224Y-103800828D02*
X44440224Y-104586542D01*
X44440224Y-104586542D02*
X44511653Y-104729400D01*
X44511653Y-104729400D02*
X44654510Y-104800828D01*
X44654510Y-104800828D02*
X44868796Y-104800828D01*
X44868796Y-104800828D02*
X45011653Y-104729400D01*
X45011653Y-104729400D02*
X45083082Y-104657971D01*
X45797367Y-104800828D02*
X45797367Y-103800828D01*
X45797367Y-103300828D02*
X45725939Y-103372257D01*
X45725939Y-103372257D02*
X45797367Y-103443685D01*
X45797367Y-103443685D02*
X45868796Y-103372257D01*
X45868796Y-103372257D02*
X45797367Y-103300828D01*
X45797367Y-103300828D02*
X45797367Y-103443685D01*
X46440225Y-104729400D02*
X46583082Y-104800828D01*
X46583082Y-104800828D02*
X46868796Y-104800828D01*
X46868796Y-104800828D02*
X47011653Y-104729400D01*
X47011653Y-104729400D02*
X47083082Y-104586542D01*
X47083082Y-104586542D02*
X47083082Y-104515114D01*
X47083082Y-104515114D02*
X47011653Y-104372257D01*
X47011653Y-104372257D02*
X46868796Y-104300828D01*
X46868796Y-104300828D02*
X46654511Y-104300828D01*
X46654511Y-104300828D02*
X46511653Y-104229400D01*
X46511653Y-104229400D02*
X46440225Y-104086542D01*
X46440225Y-104086542D02*
X46440225Y-104015114D01*
X46440225Y-104015114D02*
X46511653Y-103872257D01*
X46511653Y-103872257D02*
X46654511Y-103800828D01*
X46654511Y-103800828D02*
X46868796Y-103800828D01*
X46868796Y-103800828D02*
X47011653Y-103872257D01*
X49368796Y-104015114D02*
X49583082Y-104086542D01*
X49583082Y-104086542D02*
X49654511Y-104157971D01*
X49654511Y-104157971D02*
X49725939Y-104300828D01*
X49725939Y-104300828D02*
X49725939Y-104515114D01*
X49725939Y-104515114D02*
X49654511Y-104657971D01*
X49654511Y-104657971D02*
X49583082Y-104729400D01*
X49583082Y-104729400D02*
X49440225Y-104800828D01*
X49440225Y-104800828D02*
X48868796Y-104800828D01*
X48868796Y-104800828D02*
X48868796Y-103300828D01*
X48868796Y-103300828D02*
X49368796Y-103300828D01*
X49368796Y-103300828D02*
X49511654Y-103372257D01*
X49511654Y-103372257D02*
X49583082Y-103443685D01*
X49583082Y-103443685D02*
X49654511Y-103586542D01*
X49654511Y-103586542D02*
X49654511Y-103729400D01*
X49654511Y-103729400D02*
X49583082Y-103872257D01*
X49583082Y-103872257D02*
X49511654Y-103943685D01*
X49511654Y-103943685D02*
X49368796Y-104015114D01*
X49368796Y-104015114D02*
X48868796Y-104015114D01*
X50583082Y-104800828D02*
X50440225Y-104729400D01*
X50440225Y-104729400D02*
X50368796Y-104657971D01*
X50368796Y-104657971D02*
X50297368Y-104515114D01*
X50297368Y-104515114D02*
X50297368Y-104086542D01*
X50297368Y-104086542D02*
X50368796Y-103943685D01*
X50368796Y-103943685D02*
X50440225Y-103872257D01*
X50440225Y-103872257D02*
X50583082Y-103800828D01*
X50583082Y-103800828D02*
X50797368Y-103800828D01*
X50797368Y-103800828D02*
X50940225Y-103872257D01*
X50940225Y-103872257D02*
X51011654Y-103943685D01*
X51011654Y-103943685D02*
X51083082Y-104086542D01*
X51083082Y-104086542D02*
X51083082Y-104515114D01*
X51083082Y-104515114D02*
X51011654Y-104657971D01*
X51011654Y-104657971D02*
X50940225Y-104729400D01*
X50940225Y-104729400D02*
X50797368Y-104800828D01*
X50797368Y-104800828D02*
X50583082Y-104800828D01*
X52368797Y-103800828D02*
X52368797Y-104800828D01*
X51725939Y-103800828D02*
X51725939Y-104586542D01*
X51725939Y-104586542D02*
X51797368Y-104729400D01*
X51797368Y-104729400D02*
X51940225Y-104800828D01*
X51940225Y-104800828D02*
X52154511Y-104800828D01*
X52154511Y-104800828D02*
X52297368Y-104729400D01*
X52297368Y-104729400D02*
X52368797Y-104657971D01*
X53083082Y-104800828D02*
X53083082Y-103800828D01*
X53083082Y-104086542D02*
X53154511Y-103943685D01*
X53154511Y-103943685D02*
X53225940Y-103872257D01*
X53225940Y-103872257D02*
X53368797Y-103800828D01*
X53368797Y-103800828D02*
X53511654Y-103800828D01*
X54654511Y-103800828D02*
X54654511Y-105015114D01*
X54654511Y-105015114D02*
X54583082Y-105157971D01*
X54583082Y-105157971D02*
X54511653Y-105229400D01*
X54511653Y-105229400D02*
X54368796Y-105300828D01*
X54368796Y-105300828D02*
X54154511Y-105300828D01*
X54154511Y-105300828D02*
X54011653Y-105229400D01*
X54654511Y-104729400D02*
X54511653Y-104800828D01*
X54511653Y-104800828D02*
X54225939Y-104800828D01*
X54225939Y-104800828D02*
X54083082Y-104729400D01*
X54083082Y-104729400D02*
X54011653Y-104657971D01*
X54011653Y-104657971D02*
X53940225Y-104515114D01*
X53940225Y-104515114D02*
X53940225Y-104086542D01*
X53940225Y-104086542D02*
X54011653Y-103943685D01*
X54011653Y-103943685D02*
X54083082Y-103872257D01*
X54083082Y-103872257D02*
X54225939Y-103800828D01*
X54225939Y-103800828D02*
X54511653Y-103800828D01*
X54511653Y-103800828D02*
X54654511Y-103872257D01*
X56011654Y-104800828D02*
X56011654Y-104015114D01*
X56011654Y-104015114D02*
X55940225Y-103872257D01*
X55940225Y-103872257D02*
X55797368Y-103800828D01*
X55797368Y-103800828D02*
X55511654Y-103800828D01*
X55511654Y-103800828D02*
X55368796Y-103872257D01*
X56011654Y-104729400D02*
X55868796Y-104800828D01*
X55868796Y-104800828D02*
X55511654Y-104800828D01*
X55511654Y-104800828D02*
X55368796Y-104729400D01*
X55368796Y-104729400D02*
X55297368Y-104586542D01*
X55297368Y-104586542D02*
X55297368Y-104443685D01*
X55297368Y-104443685D02*
X55368796Y-104300828D01*
X55368796Y-104300828D02*
X55511654Y-104229400D01*
X55511654Y-104229400D02*
X55868796Y-104229400D01*
X55868796Y-104229400D02*
X56011654Y-104157971D01*
X57368797Y-103800828D02*
X57368797Y-104800828D01*
X56725939Y-103800828D02*
X56725939Y-104586542D01*
X56725939Y-104586542D02*
X56797368Y-104729400D01*
X56797368Y-104729400D02*
X56940225Y-104800828D01*
X56940225Y-104800828D02*
X57154511Y-104800828D01*
X57154511Y-104800828D02*
X57297368Y-104729400D01*
X57297368Y-104729400D02*
X57368797Y-104657971D01*
X58297368Y-104800828D02*
X58154511Y-104729400D01*
X58154511Y-104729400D02*
X58083082Y-104586542D01*
X58083082Y-104586542D02*
X58083082Y-103300828D01*
X58654511Y-103800828D02*
X59225939Y-103800828D01*
X58868796Y-103300828D02*
X58868796Y-104586542D01*
X58868796Y-104586542D02*
X58940225Y-104729400D01*
X58940225Y-104729400D02*
X59083082Y-104800828D01*
X59083082Y-104800828D02*
X59225939Y-104800828D01*
X61511654Y-104800828D02*
X61511654Y-103300828D01*
X61511654Y-104729400D02*
X61368796Y-104800828D01*
X61368796Y-104800828D02*
X61083082Y-104800828D01*
X61083082Y-104800828D02*
X60940225Y-104729400D01*
X60940225Y-104729400D02*
X60868796Y-104657971D01*
X60868796Y-104657971D02*
X60797368Y-104515114D01*
X60797368Y-104515114D02*
X60797368Y-104086542D01*
X60797368Y-104086542D02*
X60868796Y-103943685D01*
X60868796Y-103943685D02*
X60940225Y-103872257D01*
X60940225Y-103872257D02*
X61083082Y-103800828D01*
X61083082Y-103800828D02*
X61368796Y-103800828D01*
X61368796Y-103800828D02*
X61511654Y-103872257D01*
X62868797Y-103800828D02*
X62868797Y-104800828D01*
X62225939Y-103800828D02*
X62225939Y-104586542D01*
X62225939Y-104586542D02*
X62297368Y-104729400D01*
X62297368Y-104729400D02*
X62440225Y-104800828D01*
X62440225Y-104800828D02*
X62654511Y-104800828D01*
X62654511Y-104800828D02*
X62797368Y-104729400D01*
X62797368Y-104729400D02*
X62868797Y-104657971D01*
X65583082Y-104657971D02*
X65511654Y-104729400D01*
X65511654Y-104729400D02*
X65297368Y-104800828D01*
X65297368Y-104800828D02*
X65154511Y-104800828D01*
X65154511Y-104800828D02*
X64940225Y-104729400D01*
X64940225Y-104729400D02*
X64797368Y-104586542D01*
X64797368Y-104586542D02*
X64725939Y-104443685D01*
X64725939Y-104443685D02*
X64654511Y-104157971D01*
X64654511Y-104157971D02*
X64654511Y-103943685D01*
X64654511Y-103943685D02*
X64725939Y-103657971D01*
X64725939Y-103657971D02*
X64797368Y-103515114D01*
X64797368Y-103515114D02*
X64940225Y-103372257D01*
X64940225Y-103372257D02*
X65154511Y-103300828D01*
X65154511Y-103300828D02*
X65297368Y-103300828D01*
X65297368Y-103300828D02*
X65511654Y-103372257D01*
X65511654Y-103372257D02*
X65583082Y-103443685D01*
X66440225Y-104800828D02*
X66297368Y-104729400D01*
X66297368Y-104729400D02*
X66225939Y-104657971D01*
X66225939Y-104657971D02*
X66154511Y-104515114D01*
X66154511Y-104515114D02*
X66154511Y-104086542D01*
X66154511Y-104086542D02*
X66225939Y-103943685D01*
X66225939Y-103943685D02*
X66297368Y-103872257D01*
X66297368Y-103872257D02*
X66440225Y-103800828D01*
X66440225Y-103800828D02*
X66654511Y-103800828D01*
X66654511Y-103800828D02*
X66797368Y-103872257D01*
X66797368Y-103872257D02*
X66868797Y-103943685D01*
X66868797Y-103943685D02*
X66940225Y-104086542D01*
X66940225Y-104086542D02*
X66940225Y-104515114D01*
X66940225Y-104515114D02*
X66868797Y-104657971D01*
X66868797Y-104657971D02*
X66797368Y-104729400D01*
X66797368Y-104729400D02*
X66654511Y-104800828D01*
X66654511Y-104800828D02*
X66440225Y-104800828D01*
X68225940Y-103800828D02*
X68225940Y-104800828D01*
X67583082Y-103800828D02*
X67583082Y-104586542D01*
X67583082Y-104586542D02*
X67654511Y-104729400D01*
X67654511Y-104729400D02*
X67797368Y-104800828D01*
X67797368Y-104800828D02*
X68011654Y-104800828D01*
X68011654Y-104800828D02*
X68154511Y-104729400D01*
X68154511Y-104729400D02*
X68225940Y-104657971D01*
X69583083Y-104800828D02*
X69583083Y-103300828D01*
X69583083Y-104729400D02*
X69440225Y-104800828D01*
X69440225Y-104800828D02*
X69154511Y-104800828D01*
X69154511Y-104800828D02*
X69011654Y-104729400D01*
X69011654Y-104729400D02*
X68940225Y-104657971D01*
X68940225Y-104657971D02*
X68868797Y-104515114D01*
X68868797Y-104515114D02*
X68868797Y-104086542D01*
X68868797Y-104086542D02*
X68940225Y-103943685D01*
X68940225Y-103943685D02*
X69011654Y-103872257D01*
X69011654Y-103872257D02*
X69154511Y-103800828D01*
X69154511Y-103800828D02*
X69440225Y-103800828D01*
X69440225Y-103800828D02*
X69583083Y-103872257D01*
X70297368Y-104800828D02*
X70297368Y-103800828D01*
X70297368Y-104086542D02*
X70368797Y-103943685D01*
X70368797Y-103943685D02*
X70440226Y-103872257D01*
X70440226Y-103872257D02*
X70583083Y-103800828D01*
X70583083Y-103800828D02*
X70725940Y-103800828D01*
X71868797Y-104800828D02*
X71868797Y-104015114D01*
X71868797Y-104015114D02*
X71797368Y-103872257D01*
X71797368Y-103872257D02*
X71654511Y-103800828D01*
X71654511Y-103800828D02*
X71368797Y-103800828D01*
X71368797Y-103800828D02*
X71225939Y-103872257D01*
X71868797Y-104729400D02*
X71725939Y-104800828D01*
X71725939Y-104800828D02*
X71368797Y-104800828D01*
X71368797Y-104800828D02*
X71225939Y-104729400D01*
X71225939Y-104729400D02*
X71154511Y-104586542D01*
X71154511Y-104586542D02*
X71154511Y-104443685D01*
X71154511Y-104443685D02*
X71225939Y-104300828D01*
X71225939Y-104300828D02*
X71368797Y-104229400D01*
X71368797Y-104229400D02*
X71725939Y-104229400D01*
X71725939Y-104229400D02*
X71868797Y-104157971D01*
X72440225Y-103800828D02*
X72797368Y-104800828D01*
X73154511Y-103800828D02*
X72797368Y-104800828D01*
X72797368Y-104800828D02*
X72654511Y-105157971D01*
X72654511Y-105157971D02*
X72583082Y-105229400D01*
X72583082Y-105229400D02*
X72440225Y-105300828D01*
D12*
%TO.P,B1,1*%
%TO.N,GND*%
X137692500Y-61130000D03*
X143892500Y-61130000D03*
%TO.P,B1,2*%
%TO.N,RST*%
X137692500Y-64830000D03*
X143892500Y-64830000D03*
%TD*%
D13*
%TO.P,S11,1*%
%TO.N,P7*%
X65060000Y-46420000D03*
X70140000Y-46420000D03*
%TO.P,S11,2*%
%TO.N,ring_upper*%
X63790000Y-48960000D03*
X71410000Y-48960000D03*
%TD*%
%TO.P,S23,1*%
%TO.N,P10*%
X122060000Y-46420000D03*
X127140000Y-46420000D03*
%TO.P,S23,2*%
%TO.N,inner_upper*%
X120790000Y-48960000D03*
X128410000Y-48960000D03*
%TD*%
D14*
%TO.P,D4,1*%
%TO.N,P3*%
X25790000Y-29500000D03*
D15*
X27950000Y-29500000D03*
%TO.P,D4,2*%
%TO.N,outer_num*%
X31250000Y-29500000D03*
D16*
X33410000Y-29500000D03*
%TD*%
D14*
%TO.P,D2,1*%
%TO.N,P1*%
X25790000Y-67500000D03*
D15*
X27950000Y-67500000D03*
%TO.P,D2,2*%
%TO.N,outer_home*%
X31250000Y-67500000D03*
D16*
X33410000Y-67500000D03*
%TD*%
D14*
%TO.P,D27,1*%
%TO.N,P4*%
X101690000Y-99500000D03*
D15*
X103850000Y-99500000D03*
%TO.P,D27,2*%
%TO.N,2_top*%
X107150000Y-99500000D03*
D16*
X109310000Y-99500000D03*
%TD*%
D13*
%TO.P,S10,1*%
%TO.N,P7*%
X65060000Y-65420000D03*
X70140000Y-65420000D03*
%TO.P,S10,2*%
%TO.N,ring_home*%
X63790000Y-67960000D03*
X71410000Y-67960000D03*
%TD*%
%TO.P,S3,1*%
%TO.N,P16*%
X27060000Y-52420000D03*
X32140000Y-52420000D03*
%TO.P,S3,2*%
%TO.N,outer_upper*%
X25790000Y-54960000D03*
X33410000Y-54960000D03*
%TD*%
%TO.P,S29,1*%
%TO.N,P14*%
X144691718Y-101115942D03*
X149722280Y-101822938D03*
%TO.P,S29,2*%
%TO.N,4_top*%
X143080578Y-103454470D03*
X150626421Y-104514969D03*
%TD*%
%TO.P,S28,1*%
%TO.N,P10*%
X124412417Y-103217955D03*
X129473086Y-103660707D03*
%TO.P,S28,2*%
%TO.N,3_top*%
X122925874Y-105637602D03*
X130516877Y-106301729D03*
%TD*%
D14*
%TO.P,D25,1*%
%TO.N,P0*%
X139790000Y-74500000D03*
D15*
X141950000Y-74500000D03*
%TO.P,D25,2*%
%TO.N,innest_lower*%
X145250000Y-74500000D03*
D16*
X147410000Y-74500000D03*
%TD*%
D17*
%TO.P,D29,1*%
%TO.N,P4*%
X143979637Y-97057336D03*
D18*
X146118616Y-97357951D03*
%TO.P,D29,2*%
%TO.N,4_top*%
X149386500Y-97817223D03*
D16*
X151525479Y-98117838D03*
%TD*%
D13*
%TO.P,S24,1*%
%TO.N,P10*%
X122060000Y-27420000D03*
X127140000Y-27420000D03*
%TO.P,S24,2*%
%TO.N,inner_num*%
X120790000Y-29960000D03*
X128410000Y-29960000D03*
%TD*%
D14*
%TO.P,D8,1*%
%TO.N,P3*%
X44790000Y-29500000D03*
D15*
X46950000Y-29500000D03*
%TO.P,D8,2*%
%TO.N,pinkie_num*%
X50250000Y-29500000D03*
D16*
X52410000Y-29500000D03*
%TD*%
D14*
%TO.P,D9,1*%
%TO.N,P0*%
X63790000Y-80500000D03*
D15*
X65950000Y-80500000D03*
%TO.P,D9,2*%
%TO.N,ring_lower*%
X69250000Y-80500000D03*
D16*
X71410000Y-80500000D03*
%TD*%
D14*
%TO.P,D15,1*%
%TO.N,P2*%
X82790000Y-39500000D03*
D15*
X84950000Y-39500000D03*
%TO.P,D15,2*%
%TO.N,middle_upper*%
X88250000Y-39500000D03*
D16*
X90410000Y-39500000D03*
%TD*%
D14*
%TO.P,D23,1*%
%TO.N,P2*%
X120790000Y-42500000D03*
D15*
X122950000Y-42500000D03*
%TO.P,D23,2*%
%TO.N,inner_upper*%
X126250000Y-42500000D03*
D16*
X128410000Y-42500000D03*
%TD*%
D14*
%TO.P,D7,1*%
%TO.N,P2*%
X44790000Y-48500000D03*
D15*
X46950000Y-48500000D03*
%TO.P,D7,2*%
%TO.N,pinkie_upper*%
X50250000Y-48500000D03*
D16*
X52410000Y-48500000D03*
%TD*%
D14*
%TO.P,D14,1*%
%TO.N,P1*%
X82790000Y-58500000D03*
D15*
X84950000Y-58500000D03*
%TO.P,D14,2*%
%TO.N,middle_home*%
X88250000Y-58500000D03*
D16*
X90410000Y-58500000D03*
%TD*%
D14*
%TO.P,D16,1*%
%TO.N,P3*%
X82790000Y-20500000D03*
D15*
X84950000Y-20500000D03*
%TO.P,D16,2*%
%TO.N,middle_num*%
X88250000Y-20500000D03*
D16*
X90410000Y-20500000D03*
%TD*%
D13*
%TO.P,S18,1*%
%TO.N,P9*%
X103060000Y-65420000D03*
X108140000Y-65420000D03*
%TO.P,S18,2*%
%TO.N,index_home*%
X101790000Y-67960000D03*
X109410000Y-67960000D03*
%TD*%
%TO.P,S15,1*%
%TO.N,P8*%
X84060000Y-43420000D03*
X89140000Y-43420000D03*
%TO.P,S15,2*%
%TO.N,middle_upper*%
X82790000Y-45960000D03*
X90410000Y-45960000D03*
%TD*%
%TO.P,S1,1*%
%TO.N,P16*%
X27060000Y-90420000D03*
X32140000Y-90420000D03*
%TO.P,S1,2*%
%TO.N,outer_lower*%
X25790000Y-92960000D03*
X33410000Y-92960000D03*
%TD*%
%TO.P,S27,1*%
%TO.N,P9*%
X102960000Y-103420000D03*
X108040000Y-103420000D03*
%TO.P,S27,2*%
%TO.N,2_top*%
X101690000Y-105960000D03*
X109310000Y-105960000D03*
%TD*%
%TO.P,S14,1*%
%TO.N,P8*%
X84060000Y-62420000D03*
X89140000Y-62420000D03*
%TO.P,S14,2*%
%TO.N,middle_home*%
X82790000Y-64960000D03*
X90410000Y-64960000D03*
%TD*%
%TO.P,S6,1*%
%TO.N,P6*%
X46060000Y-71420000D03*
X51140000Y-71420000D03*
%TO.P,S6,2*%
%TO.N,pinkie_home*%
X44790000Y-73960000D03*
X52410000Y-73960000D03*
%TD*%
%TO.P,S13,1*%
%TO.N,P8*%
X84060000Y-81420000D03*
X89140000Y-81420000D03*
%TO.P,S13,2*%
%TO.N,middle_lower*%
X82790000Y-83960000D03*
X90410000Y-83960000D03*
%TD*%
%TO.P,S2,1*%
%TO.N,P16*%
X27060000Y-71420000D03*
X32140000Y-71420000D03*
%TO.P,S2,2*%
%TO.N,outer_home*%
X25790000Y-73960000D03*
X33410000Y-73960000D03*
%TD*%
D14*
%TO.P,D17,1*%
%TO.N,P0*%
X101790000Y-80500000D03*
D15*
X103950000Y-80500000D03*
%TO.P,D17,2*%
%TO.N,index_lower*%
X107250000Y-80500000D03*
D16*
X109410000Y-80500000D03*
%TD*%
D19*
%TO.P,MCU1,1*%
%TO.N,MCU1_1*%
X151055000Y-26800000D03*
D20*
X153175000Y-26800000D03*
D19*
%TO.P,MCU1,2*%
%TO.N,MCU1_2*%
X151055000Y-29340000D03*
D20*
X153175000Y-29340000D03*
D19*
%TO.P,MCU1,3*%
%TO.N,MCU1_3*%
X151055000Y-31880000D03*
D20*
X153175000Y-31880000D03*
D19*
%TO.P,MCU1,4*%
%TO.N,MCU1_4*%
X151055000Y-34420000D03*
D20*
X153175000Y-34420000D03*
D19*
%TO.P,MCU1,5*%
%TO.N,MCU1_5*%
X151055000Y-36960000D03*
D20*
X153175000Y-36960000D03*
D19*
%TO.P,MCU1,6*%
%TO.N,MCU1_6*%
X151055000Y-39500000D03*
D20*
X153175000Y-39500000D03*
D19*
%TO.P,MCU1,7*%
%TO.N,MCU1_7*%
X151055000Y-42040000D03*
D20*
X153175000Y-42040000D03*
D19*
%TO.P,MCU1,8*%
%TO.N,MCU1_8*%
X151055000Y-44580000D03*
D20*
X153175000Y-44580000D03*
D19*
%TO.P,MCU1,9*%
%TO.N,MCU1_9*%
X151055000Y-47120000D03*
D20*
X153175000Y-47120000D03*
D19*
%TO.P,MCU1,10*%
%TO.N,MCU1_10*%
X151055000Y-49660000D03*
D20*
X153175000Y-49660000D03*
D19*
%TO.P,MCU1,11*%
%TO.N,MCU1_11*%
X151055000Y-52200000D03*
D20*
X153175000Y-52200000D03*
D19*
%TO.P,MCU1,12*%
%TO.N,MCU1_12*%
X151055000Y-54740000D03*
D20*
X153175000Y-54740000D03*
%TO.P,MCU1,13*%
%TO.N,MCU1_13*%
X137935000Y-54740000D03*
D21*
X140055000Y-54740000D03*
D20*
%TO.P,MCU1,14*%
%TO.N,MCU1_14*%
X137935000Y-52200000D03*
D21*
X140055000Y-52200000D03*
D20*
%TO.P,MCU1,15*%
%TO.N,MCU1_15*%
X137935000Y-49660000D03*
D21*
X140055000Y-49660000D03*
D20*
%TO.P,MCU1,16*%
%TO.N,MCU1_16*%
X137935000Y-47120000D03*
D21*
X140055000Y-47120000D03*
D20*
%TO.P,MCU1,17*%
%TO.N,MCU1_17*%
X137935000Y-44580000D03*
D21*
X140055000Y-44580000D03*
D20*
%TO.P,MCU1,18*%
%TO.N,MCU1_18*%
X137935000Y-42040000D03*
D21*
X140055000Y-42040000D03*
D20*
%TO.P,MCU1,19*%
%TO.N,MCU1_19*%
X137935000Y-39500000D03*
D21*
X140055000Y-39500000D03*
D20*
%TO.P,MCU1,20*%
%TO.N,MCU1_20*%
X137935000Y-36960000D03*
D21*
X140055000Y-36960000D03*
D20*
%TO.P,MCU1,21*%
%TO.N,MCU1_21*%
X137935000Y-34420000D03*
D21*
X140055000Y-34420000D03*
D20*
%TO.P,MCU1,22*%
%TO.N,MCU1_22*%
X137935000Y-31880000D03*
D21*
X140055000Y-31880000D03*
D20*
%TO.P,MCU1,23*%
%TO.N,MCU1_23*%
X137935000Y-29340000D03*
D21*
X140055000Y-29340000D03*
D20*
%TO.P,MCU1,24*%
%TO.N,MCU1_24*%
X137935000Y-26800000D03*
D21*
X140055000Y-26800000D03*
D22*
%TO.P,MCU1,101*%
%TO.N,P1*%
X148955000Y-26800000D03*
D23*
X150330000Y-26800000D03*
D22*
%TO.P,MCU1,102*%
%TO.N,P0*%
X148955000Y-29340000D03*
D23*
X150330000Y-29340000D03*
D22*
%TO.P,MCU1,103*%
%TO.N,GND*%
X148955000Y-31880000D03*
D23*
X150330000Y-31880000D03*
D22*
%TO.P,MCU1,104*%
X148955000Y-34420000D03*
D23*
X150330000Y-34420000D03*
D22*
%TO.P,MCU1,105*%
%TO.N,P2*%
X148955000Y-36960000D03*
D23*
X150330000Y-36960000D03*
D22*
%TO.P,MCU1,106*%
%TO.N,P3*%
X148955000Y-39500000D03*
D23*
X150330000Y-39500000D03*
D22*
%TO.P,MCU1,107*%
%TO.N,P4*%
X148955000Y-42040000D03*
D23*
X150330000Y-42040000D03*
D22*
%TO.P,MCU1,108*%
%TO.N,P5*%
X148955000Y-44580000D03*
D23*
X150330000Y-44580000D03*
D22*
%TO.P,MCU1,109*%
%TO.N,P6*%
X148955000Y-47120000D03*
D23*
X150330000Y-47120000D03*
D22*
%TO.P,MCU1,110*%
%TO.N,P7*%
X148955000Y-49660000D03*
D23*
X150330000Y-49660000D03*
D22*
%TO.P,MCU1,111*%
%TO.N,P8*%
X148955000Y-52200000D03*
D23*
X150330000Y-52200000D03*
D22*
%TO.P,MCU1,112*%
%TO.N,P9*%
X148955000Y-54740000D03*
D23*
X150330000Y-54740000D03*
D24*
%TO.P,MCU1,113*%
%TO.N,P10*%
X140780000Y-54740000D03*
D22*
X142155000Y-54740000D03*
D24*
%TO.P,MCU1,114*%
%TO.N,P16*%
X140780000Y-52200000D03*
D22*
X142155000Y-52200000D03*
D24*
%TO.P,MCU1,115*%
%TO.N,P14*%
X140780000Y-49660000D03*
D22*
X142155000Y-49660000D03*
D24*
%TO.P,MCU1,116*%
%TO.N,P15*%
X140780000Y-47120000D03*
D22*
X142155000Y-47120000D03*
D24*
%TO.P,MCU1,117*%
%TO.N,P18*%
X140780000Y-44580000D03*
D22*
X142155000Y-44580000D03*
D24*
%TO.P,MCU1,118*%
%TO.N,P19*%
X140780000Y-42040000D03*
D22*
X142155000Y-42040000D03*
D24*
%TO.P,MCU1,119*%
%TO.N,P20*%
X140780000Y-39500000D03*
D22*
X142155000Y-39500000D03*
D24*
%TO.P,MCU1,120*%
%TO.N,P21*%
X140780000Y-36960000D03*
D22*
X142155000Y-36960000D03*
D24*
%TO.P,MCU1,121*%
%TO.N,VCC*%
X140780000Y-34420000D03*
D22*
X142155000Y-34420000D03*
D24*
%TO.P,MCU1,122*%
%TO.N,RST*%
X140780000Y-31880000D03*
D22*
X142155000Y-31880000D03*
D24*
%TO.P,MCU1,123*%
%TO.N,GND*%
X140780000Y-29340000D03*
D22*
X142155000Y-29340000D03*
D24*
%TO.P,MCU1,124*%
%TO.N,RAW*%
X140780000Y-26800000D03*
D22*
X142155000Y-26800000D03*
%TD*%
D13*
%TO.P,S4,1*%
%TO.N,P16*%
X27060000Y-33420000D03*
X32140000Y-33420000D03*
%TO.P,S4,2*%
%TO.N,outer_num*%
X25790000Y-35960000D03*
X33410000Y-35960000D03*
%TD*%
%TO.P,S26,1*%
%TO.N,P8*%
X83960000Y-103420000D03*
X89040000Y-103420000D03*
%TO.P,S26,2*%
%TO.N,1_top*%
X82690000Y-105960000D03*
X90310000Y-105960000D03*
%TD*%
D14*
%TO.P,D18,1*%
%TO.N,P1*%
X101790000Y-61500000D03*
D15*
X103950000Y-61500000D03*
%TO.P,D18,2*%
%TO.N,index_home*%
X107250000Y-61500000D03*
D16*
X109410000Y-61500000D03*
%TD*%
D14*
%TO.P,D19,1*%
%TO.N,P2*%
X101790000Y-42500000D03*
D15*
X103950000Y-42500000D03*
%TO.P,D19,2*%
%TO.N,index_upper*%
X107250000Y-42500000D03*
D16*
X109410000Y-42500000D03*
%TD*%
D14*
%TO.P,D3,1*%
%TO.N,P2*%
X25790000Y-48500000D03*
D15*
X27950000Y-48500000D03*
%TO.P,D3,2*%
%TO.N,outer_upper*%
X31250000Y-48500000D03*
D16*
X33410000Y-48500000D03*
%TD*%
D14*
%TO.P,D22,1*%
%TO.N,P1*%
X120790000Y-61500000D03*
D15*
X122950000Y-61500000D03*
%TO.P,D22,2*%
%TO.N,inner_home*%
X126250000Y-61500000D03*
D16*
X128410000Y-61500000D03*
%TD*%
D13*
%TO.P,S21,1*%
%TO.N,P10*%
X122060000Y-84420000D03*
X127140000Y-84420000D03*
%TO.P,S21,2*%
%TO.N,inner_lower*%
X120790000Y-86960000D03*
X128410000Y-86960000D03*
%TD*%
D14*
%TO.P,D13,1*%
%TO.N,P0*%
X82790000Y-77500000D03*
D15*
X84950000Y-77500000D03*
%TO.P,D13,2*%
%TO.N,middle_lower*%
X88250000Y-77500000D03*
D16*
X90410000Y-77500000D03*
%TD*%
D13*
%TO.P,S9,1*%
%TO.N,P7*%
X65060000Y-84420000D03*
X70140000Y-84420000D03*
%TO.P,S9,2*%
%TO.N,ring_lower*%
X63790000Y-86960000D03*
X71410000Y-86960000D03*
%TD*%
D14*
%TO.P,D6,1*%
%TO.N,P1*%
X44790000Y-67500000D03*
D15*
X46950000Y-67500000D03*
%TO.P,D6,2*%
%TO.N,pinkie_home*%
X50250000Y-67500000D03*
D16*
X52410000Y-67500000D03*
%TD*%
D13*
%TO.P,S17,1*%
%TO.N,P9*%
X103060000Y-84420000D03*
X108140000Y-84420000D03*
%TO.P,S17,2*%
%TO.N,index_lower*%
X101790000Y-86960000D03*
X109410000Y-86960000D03*
%TD*%
D25*
%TO.P,JST1,1*%
%TO.N,VCC*%
X153175000Y-61980000D03*
D26*
%TO.P,JST1,2*%
%TO.N,GND*%
X153175000Y-63980000D03*
%TD*%
D13*
%TO.P,S7,1*%
%TO.N,P6*%
X46060000Y-52420000D03*
X51140000Y-52420000D03*
%TO.P,S7,2*%
%TO.N,pinkie_upper*%
X44790000Y-54960000D03*
X52410000Y-54960000D03*
%TD*%
D14*
%TO.P,D12,1*%
%TO.N,P3*%
X63790000Y-23500000D03*
D15*
X65950000Y-23500000D03*
%TO.P,D12,2*%
%TO.N,ring_num*%
X69250000Y-23500000D03*
D16*
X71410000Y-23500000D03*
%TD*%
D14*
%TO.P,D20,1*%
%TO.N,P3*%
X101790000Y-23500000D03*
D15*
X103950000Y-23500000D03*
%TO.P,D20,2*%
%TO.N,index_num*%
X107250000Y-23500000D03*
D16*
X109410000Y-23500000D03*
%TD*%
D14*
%TO.P,D26,1*%
%TO.N,P4*%
X82690000Y-99500000D03*
D15*
X84850000Y-99500000D03*
%TO.P,D26,2*%
%TO.N,1_top*%
X88150000Y-99500000D03*
D16*
X90310000Y-99500000D03*
%TD*%
D13*
%TO.P,S12,1*%
%TO.N,P7*%
X65060000Y-27420000D03*
X70140000Y-27420000D03*
%TO.P,S12,2*%
%TO.N,ring_num*%
X63790000Y-29960000D03*
X71410000Y-29960000D03*
%TD*%
D27*
%TO.P,D28,1*%
%TO.N,P4*%
X123488900Y-99202185D03*
D28*
X125640681Y-99390441D03*
%TO.P,D28,2*%
%TO.N,3_top*%
X128928123Y-99678055D03*
D16*
X131079904Y-99866311D03*
%TD*%
D13*
%TO.P,S20,1*%
%TO.N,P9*%
X103060000Y-27420000D03*
X108140000Y-27420000D03*
%TO.P,S20,2*%
%TO.N,index_num*%
X101790000Y-29960000D03*
X109410000Y-29960000D03*
%TD*%
%TO.P,S22,1*%
%TO.N,P10*%
X122060000Y-65420000D03*
X127140000Y-65420000D03*
%TO.P,S22,2*%
%TO.N,inner_home*%
X120790000Y-67960000D03*
X128410000Y-67960000D03*
%TD*%
D14*
%TO.P,D11,1*%
%TO.N,P2*%
X63790000Y-42500000D03*
D15*
X65950000Y-42500000D03*
%TO.P,D11,2*%
%TO.N,ring_upper*%
X69250000Y-42500000D03*
D16*
X71410000Y-42500000D03*
%TD*%
D14*
%TO.P,D1,1*%
%TO.N,P0*%
X25790000Y-86500000D03*
D15*
X27950000Y-86500000D03*
%TO.P,D1,2*%
%TO.N,outer_lower*%
X31250000Y-86500000D03*
D16*
X33410000Y-86500000D03*
%TD*%
D13*
%TO.P,S5,1*%
%TO.N,P6*%
X46060000Y-90420000D03*
X51140000Y-90420000D03*
%TO.P,S5,2*%
%TO.N,pinkie_lower*%
X44790000Y-92960000D03*
X52410000Y-92960000D03*
%TD*%
D14*
%TO.P,D24,1*%
%TO.N,P3*%
X120790000Y-23500000D03*
D15*
X122950000Y-23500000D03*
%TO.P,D24,2*%
%TO.N,inner_num*%
X126250000Y-23500000D03*
D16*
X128410000Y-23500000D03*
%TD*%
D13*
%TO.P,S16,1*%
%TO.N,P8*%
X84060000Y-24420000D03*
X89140000Y-24420000D03*
%TO.P,S16,2*%
%TO.N,middle_num*%
X82790000Y-26960000D03*
X90410000Y-26960000D03*
%TD*%
D14*
%TO.P,D21,1*%
%TO.N,P0*%
X120790000Y-80500000D03*
D15*
X122950000Y-80500000D03*
%TO.P,D21,2*%
%TO.N,inner_lower*%
X126250000Y-80500000D03*
D16*
X128410000Y-80500000D03*
%TD*%
D13*
%TO.P,S25,1*%
%TO.N,P11*%
X141060000Y-78420000D03*
X146140000Y-78420000D03*
%TO.P,S25,2*%
%TO.N,innest_lower*%
X139790000Y-80960000D03*
X147410000Y-80960000D03*
%TD*%
D14*
%TO.P,D5,1*%
%TO.N,P0*%
X44790000Y-86500000D03*
D15*
X46950000Y-86500000D03*
%TO.P,D5,2*%
%TO.N,pinkie_lower*%
X50250000Y-86500000D03*
D16*
X52410000Y-86500000D03*
%TD*%
D14*
%TO.P,D10,1*%
%TO.N,P1*%
X63790000Y-61500000D03*
D15*
X65950000Y-61500000D03*
%TO.P,D10,2*%
%TO.N,ring_home*%
X69250000Y-61500000D03*
D16*
X71410000Y-61500000D03*
%TD*%
D13*
%TO.P,S19,1*%
%TO.N,P9*%
X103060000Y-46420000D03*
X108140000Y-46420000D03*
%TO.P,S19,2*%
%TO.N,index_upper*%
X101790000Y-48960000D03*
X109410000Y-48960000D03*
%TD*%
%TO.P,S8,1*%
%TO.N,P6*%
X46060000Y-33420000D03*
X51140000Y-33420000D03*
%TO.P,S8,2*%
%TO.N,pinkie_num*%
X44790000Y-35960000D03*
X52410000Y-35960000D03*
%TD*%
D29*
%TO.N,P6*%
X135990235Y-48261235D03*
%TO.N,P7*%
X134700000Y-47101827D03*
%TO.N,P2*%
X135100000Y-36500000D03*
%TO.N,P4*%
X134100000Y-55000000D03*
X134100000Y-72000000D03*
%TO.N,GND*%
X155728000Y-35000000D03*
%TO.N,VCC*%
X155100000Y-57500000D03*
%TD*%
D30*
%TO.N,RST*%
X139362500Y-66500000D02*
X137692500Y-64830000D01*
X142222500Y-66500000D02*
X139362500Y-66500000D01*
X143892500Y-64830000D02*
X142222500Y-66500000D01*
%TO.N,GND*%
X142262500Y-59500000D02*
X143892500Y-61130000D01*
X139322500Y-59500000D02*
X142262500Y-59500000D01*
X137692500Y-61130000D02*
X139322500Y-59500000D01*
%TO.N,RST*%
X153817860Y-25248000D02*
X148787000Y-25248000D01*
X152619321Y-57000000D02*
X155128000Y-54491321D01*
X139000000Y-57000000D02*
X152619321Y-57000000D01*
X155128000Y-26558140D02*
X153817860Y-25248000D01*
X136491500Y-59508500D02*
X139000000Y-57000000D01*
X155128000Y-54491321D02*
X155128000Y-26558140D01*
X137692500Y-64830000D02*
X136491500Y-63629000D01*
X136491500Y-63629000D02*
X136491500Y-59508500D01*
X148787000Y-25248000D02*
X142155000Y-31880000D01*
%TO.N,P1*%
X43536500Y-66246500D02*
X29203500Y-66246500D01*
%TO.N,outer_home*%
X31250000Y-67500000D02*
X33410000Y-67500000D01*
%TO.N,outer_lower*%
X31250000Y-86500000D02*
X33410000Y-86500000D01*
D31*
%TO.N,P16*%
X140780000Y-52200000D02*
X142155000Y-52200000D01*
D30*
X24600000Y-79500000D02*
X59973611Y-79500000D01*
X27060000Y-52420000D02*
X32140000Y-52420000D01*
X140855000Y-53500000D02*
X142155000Y-52200000D01*
X27060000Y-71420000D02*
X32140000Y-71420000D01*
X21600000Y-76500000D02*
X24600000Y-79500000D01*
X59973611Y-79500000D02*
X66628711Y-72844900D01*
X26287875Y-52420000D02*
X24346000Y-54361875D01*
X21600000Y-66873611D02*
X21600000Y-76500000D01*
X132602000Y-53500000D02*
X140855000Y-53500000D01*
X32140000Y-52420000D02*
X26287875Y-52420000D01*
X27060000Y-33420000D02*
X32140000Y-33420000D01*
X24346000Y-54361875D02*
X24346000Y-55562189D01*
X24346000Y-55562189D02*
X28628711Y-59844900D01*
X123701000Y-62401000D02*
X132602000Y-53500000D01*
X27060000Y-90420000D02*
X32140000Y-90420000D01*
X122199000Y-62401000D02*
X123701000Y-62401000D01*
X66628711Y-72844900D02*
X111755100Y-72844900D01*
X28628711Y-59844900D02*
X21600000Y-66873611D01*
X111755100Y-72844900D02*
X122199000Y-62401000D01*
%TO.N,outer_lower*%
X34362500Y-87452500D02*
X34362500Y-92007500D01*
X33410000Y-86500000D02*
X34362500Y-87452500D01*
X25790000Y-92960000D02*
X33410000Y-92960000D01*
X34362500Y-92007500D02*
X33410000Y-92960000D01*
%TO.N,outer_home*%
X34362500Y-73007500D02*
X33410000Y-73960000D01*
X33410000Y-67500000D02*
X34362500Y-68452500D01*
X25790000Y-73960000D02*
X33410000Y-73960000D01*
X34362500Y-68452500D02*
X34362500Y-73007500D01*
%TO.N,outer_upper*%
X31250000Y-48500000D02*
X33410000Y-48500000D01*
X33410000Y-48500000D02*
X34362500Y-49452500D01*
X34362500Y-54007500D02*
X33410000Y-54960000D01*
X25790000Y-54960000D02*
X33410000Y-54960000D01*
X34362500Y-49452500D02*
X34362500Y-54007500D01*
%TO.N,outer_num*%
X25790000Y-35960000D02*
X33410000Y-35960000D01*
X33410000Y-35960000D02*
X34553000Y-34817000D01*
X34553000Y-34817000D02*
X34553000Y-30643000D01*
X34553000Y-30643000D02*
X33410000Y-29500000D01*
X33410000Y-29500000D02*
X31250000Y-29500000D01*
%TO.N,P6*%
X135100000Y-49000000D02*
X128100000Y-56000000D01*
X46060000Y-52420000D02*
X51140000Y-52420000D01*
X49499000Y-50779000D02*
X51140000Y-52420000D01*
X46060000Y-90420000D02*
X51140000Y-90420000D01*
X60030311Y-47246500D02*
X49851500Y-47246500D01*
X49851500Y-47246500D02*
X49499000Y-47599000D01*
X49499000Y-47599000D02*
X49499000Y-50779000D01*
X135990235Y-48261235D02*
X135251470Y-49000000D01*
X135251470Y-49000000D02*
X135100000Y-49000000D01*
X46060000Y-33420000D02*
X51140000Y-33420000D01*
X46060000Y-71420000D02*
X51140000Y-71420000D01*
X128100000Y-56000000D02*
X68783811Y-56000000D01*
D31*
X150330000Y-47120000D02*
X148955000Y-47120000D01*
D30*
X68783811Y-56000000D02*
X60030311Y-47246500D01*
%TO.N,pinkie_lower*%
X53362500Y-92007500D02*
X52410000Y-92960000D01*
X53362500Y-87452500D02*
X53362500Y-92007500D01*
X44790000Y-92960000D02*
X52410000Y-92960000D01*
X50250000Y-86500000D02*
X52410000Y-86500000D01*
X52410000Y-86500000D02*
X53362500Y-87452500D01*
%TO.N,pinkie_home*%
X50250000Y-67500000D02*
X52410000Y-67500000D01*
X53362500Y-73007500D02*
X52410000Y-73960000D01*
X44790000Y-73960000D02*
X52410000Y-73960000D01*
X53362500Y-68452500D02*
X53362500Y-73007500D01*
X52410000Y-67500000D02*
X53362500Y-68452500D01*
%TO.N,pinkie_upper*%
X52410000Y-48500000D02*
X53362500Y-49452500D01*
X53362500Y-49452500D02*
X53362500Y-54007500D01*
X44790000Y-54960000D02*
X52410000Y-54960000D01*
X53362500Y-54007500D02*
X52410000Y-54960000D01*
X50250000Y-48500000D02*
X52410000Y-48500000D01*
%TO.N,pinkie_num*%
X44790000Y-35960000D02*
X52410000Y-35960000D01*
X52410000Y-29500000D02*
X53100000Y-30190000D01*
X53100000Y-35270000D02*
X52410000Y-35960000D01*
X50250000Y-29500000D02*
X52410000Y-29500000D01*
X53100000Y-30190000D02*
X53100000Y-35270000D01*
%TO.N,P7*%
X65060000Y-65420000D02*
X70140000Y-65420000D01*
D31*
X150330000Y-49660000D02*
X148955000Y-49660000D01*
D30*
X134700000Y-47101827D02*
X134666058Y-47067885D01*
X132412372Y-47067885D02*
X125635357Y-53844900D01*
X77520000Y-46420000D02*
X70140000Y-46420000D01*
X84944900Y-53844900D02*
X77520000Y-46420000D01*
X65060000Y-27420000D02*
X70140000Y-27420000D01*
X65060000Y-46420000D02*
X70140000Y-46420000D01*
X134666058Y-47067885D02*
X132412372Y-47067885D01*
X65060000Y-84420000D02*
X70140000Y-84420000D01*
X125635357Y-53844900D02*
X84944900Y-53844900D01*
%TO.N,ring_lower*%
X71410000Y-86960000D02*
X72553000Y-85817000D01*
X72553000Y-85817000D02*
X72553000Y-81643000D01*
X71410000Y-80500000D02*
X69250000Y-80500000D01*
X63790000Y-86960000D02*
X71410000Y-86960000D01*
X72553000Y-81643000D02*
X71410000Y-80500000D01*
%TO.N,ring_home*%
X72362500Y-67007500D02*
X71410000Y-67960000D01*
X63790000Y-67960000D02*
X71410000Y-67960000D01*
X72362500Y-62452500D02*
X72362500Y-67007500D01*
X71410000Y-61500000D02*
X72362500Y-62452500D01*
X69250000Y-61500000D02*
X71410000Y-61500000D01*
%TO.N,ring_upper*%
X71410000Y-42500000D02*
X69250000Y-42500000D01*
X63790000Y-48960000D02*
X71410000Y-48960000D01*
%TO.N,ring_num*%
X72362500Y-24452500D02*
X72362500Y-29007500D01*
X72362500Y-29007500D02*
X71410000Y-29960000D01*
X63790000Y-29960000D02*
X71410000Y-29960000D01*
X71410000Y-23500000D02*
X72362500Y-24452500D01*
X69250000Y-23500000D02*
X71410000Y-23500000D01*
%TO.N,P8*%
X84060000Y-43420000D02*
X89140000Y-43420000D01*
D31*
X150330000Y-52200000D02*
X148955000Y-52200000D01*
D30*
X84060000Y-24420000D02*
X89140000Y-24420000D01*
X84060000Y-81420000D02*
X89140000Y-81420000D01*
X83960000Y-103420000D02*
X89040000Y-103420000D01*
X84060000Y-62420000D02*
X89140000Y-62420000D01*
%TO.N,middle_lower*%
X91553000Y-78643000D02*
X90410000Y-77500000D01*
X91553000Y-82817000D02*
X91553000Y-78643000D01*
X90410000Y-77500000D02*
X88250000Y-77500000D01*
X82790000Y-83960000D02*
X90410000Y-83960000D01*
X90410000Y-83960000D02*
X91553000Y-82817000D01*
%TO.N,middle_home*%
X91362500Y-64007500D02*
X90410000Y-64960000D01*
X90410000Y-58500000D02*
X91362500Y-59452500D01*
X88250000Y-58500000D02*
X90410000Y-58500000D01*
X91362500Y-59452500D02*
X91362500Y-64007500D01*
X82790000Y-64960000D02*
X90410000Y-64960000D01*
%TO.N,middle_upper*%
X90410000Y-39500000D02*
X88250000Y-39500000D01*
X90410000Y-45960000D02*
X90600000Y-45770000D01*
X82790000Y-45960000D02*
X90410000Y-45960000D01*
X90600000Y-45770000D02*
X90600000Y-39690000D01*
X90600000Y-39690000D02*
X90410000Y-39500000D01*
%TO.N,middle_num*%
X88250000Y-20500000D02*
X90410000Y-20500000D01*
X82790000Y-26960000D02*
X90410000Y-26960000D01*
%TO.N,P9*%
X103060000Y-27420000D02*
X108140000Y-27420000D01*
X103060000Y-65420000D02*
X108140000Y-65420000D01*
X103060000Y-46420000D02*
X108140000Y-46420000D01*
X102960000Y-103420000D02*
X108040000Y-103420000D01*
D31*
X150330000Y-54740000D02*
X148955000Y-54740000D01*
D30*
X103060000Y-84420000D02*
X108140000Y-84420000D01*
%TO.N,index_lower*%
X110553000Y-85817000D02*
X110553000Y-81643000D01*
X101790000Y-86960000D02*
X109410000Y-86960000D01*
X110553000Y-81643000D02*
X109410000Y-80500000D01*
X109410000Y-86960000D02*
X110553000Y-85817000D01*
X109410000Y-80500000D02*
X107250000Y-80500000D01*
%TO.N,index_home*%
X110362500Y-67007500D02*
X109410000Y-67960000D01*
X109410000Y-61500000D02*
X110362500Y-62452500D01*
X110362500Y-62452500D02*
X110362500Y-67007500D01*
X107250000Y-61500000D02*
X109410000Y-61500000D01*
X101790000Y-67960000D02*
X109410000Y-67960000D01*
%TO.N,index_upper*%
X101790000Y-48960000D02*
X109410000Y-48960000D01*
X110362500Y-43452500D02*
X110362500Y-48007500D01*
X107250000Y-42500000D02*
X109410000Y-42500000D01*
X110362500Y-48007500D02*
X109410000Y-48960000D01*
X109410000Y-42500000D02*
X110362500Y-43452500D01*
%TO.N,index_num*%
X107250000Y-23500000D02*
X109410000Y-23500000D01*
X101790000Y-29960000D02*
X109410000Y-29960000D01*
%TO.N,P10*%
X129030334Y-103217955D02*
X129473086Y-103660707D01*
D31*
X140780000Y-54740000D02*
X142155000Y-54740000D01*
D30*
X122060000Y-84420000D02*
X127140000Y-84420000D01*
X122060000Y-65420000D02*
X127140000Y-65420000D01*
X124412417Y-103217955D02*
X129030334Y-103217955D01*
X122060000Y-46420000D02*
X127140000Y-46420000D01*
X122060000Y-27420000D02*
X127140000Y-27420000D01*
%TO.N,inner_lower*%
X129553000Y-85817000D02*
X129553000Y-81643000D01*
X128410000Y-80500000D02*
X126250000Y-80500000D01*
X128410000Y-86960000D02*
X129553000Y-85817000D01*
X120790000Y-86960000D02*
X128410000Y-86960000D01*
X129553000Y-81643000D02*
X128410000Y-80500000D01*
%TO.N,inner_home*%
X126250000Y-61500000D02*
X128410000Y-61500000D01*
X129362500Y-67007500D02*
X128410000Y-67960000D01*
X120790000Y-67960000D02*
X128410000Y-67960000D01*
X129362500Y-62452500D02*
X129362500Y-67007500D01*
X128410000Y-61500000D02*
X129362500Y-62452500D01*
%TO.N,inner_upper*%
X120790000Y-48960000D02*
X128410000Y-48960000D01*
X129362500Y-48007500D02*
X128410000Y-48960000D01*
X129362500Y-43452500D02*
X129362500Y-48007500D01*
X126250000Y-42500000D02*
X128410000Y-42500000D01*
X128410000Y-42500000D02*
X129362500Y-43452500D01*
%TO.N,inner_num*%
X129362500Y-24452500D02*
X129362500Y-29007500D01*
X128410000Y-23500000D02*
X129362500Y-24452500D01*
X129362500Y-29007500D02*
X128410000Y-29960000D01*
X126250000Y-23500000D02*
X128410000Y-23500000D01*
X120790000Y-29960000D02*
X128410000Y-29960000D01*
%TO.N,P11*%
X141060000Y-78420000D02*
X146140000Y-78420000D01*
%TO.N,innest_lower*%
X148553000Y-75643000D02*
X147410000Y-74500000D01*
X139790000Y-80960000D02*
X147410000Y-80960000D01*
X145250000Y-74500000D02*
X147410000Y-74500000D01*
X148553000Y-79817000D02*
X148553000Y-75643000D01*
X147410000Y-80960000D02*
X148553000Y-79817000D01*
%TO.N,1_top*%
X91453000Y-104817000D02*
X91453000Y-100643000D01*
X90310000Y-99500000D02*
X88150000Y-99500000D01*
X82690000Y-105960000D02*
X90310000Y-105960000D01*
X91453000Y-100643000D02*
X90310000Y-99500000D01*
X90310000Y-105960000D02*
X91453000Y-104817000D01*
%TO.N,2_top*%
X110453000Y-104817000D02*
X110453000Y-100643000D01*
X101690000Y-105960000D02*
X109310000Y-105960000D01*
X109310000Y-105960000D02*
X110453000Y-104817000D01*
X110453000Y-100643000D02*
X109310000Y-99500000D01*
X107150000Y-99500000D02*
X109310000Y-99500000D01*
%TO.N,3_top*%
X128928123Y-99678055D02*
X130891648Y-99678055D01*
X130891648Y-99678055D02*
X131079904Y-99866311D01*
X131079904Y-105738702D02*
X131079904Y-99866311D01*
X130516877Y-106301729D02*
X131079904Y-105738702D01*
X122925874Y-105637602D02*
X129852750Y-105637602D01*
X129852750Y-105637602D02*
X130516877Y-106301729D01*
D31*
%TO.N,P14*%
X140780000Y-49660000D02*
X142155000Y-49660000D01*
D30*
X145398717Y-101822938D02*
X144691718Y-101115939D01*
X149722280Y-101822938D02*
X145398717Y-101822938D01*
%TO.N,4_top*%
X149565922Y-103454470D02*
X150626421Y-104514969D01*
X150626421Y-104514969D02*
X151525479Y-103615911D01*
X149386500Y-97817223D02*
X151224865Y-97817223D01*
X151525479Y-103615911D02*
X151525479Y-98117837D01*
X151224865Y-97817223D02*
X151525479Y-98117837D01*
X143080578Y-103454470D02*
X149565922Y-103454470D01*
%TO.N,P0*%
X84950000Y-77500000D02*
X87450000Y-75000000D01*
X135100000Y-62786364D02*
X135600000Y-62286364D01*
X135100000Y-67650000D02*
X135100000Y-62786364D01*
X141589636Y-55166000D02*
X141864636Y-55441000D01*
X27950000Y-86500000D02*
X29203500Y-85246500D01*
X43536500Y-85246500D02*
X44790000Y-86500000D01*
X63790000Y-80500000D02*
X65950000Y-80500000D01*
X148254000Y-26509636D02*
X148254000Y-28639000D01*
X135600000Y-59500000D02*
X139429000Y-55671000D01*
X105203500Y-79246500D02*
X119536500Y-79246500D01*
X142445364Y-55441000D02*
X142856000Y-55030364D01*
X103950000Y-80500000D02*
X105203500Y-79246500D01*
X141586000Y-55166000D02*
X141589636Y-55166000D01*
X120790000Y-80500000D02*
X122950000Y-80500000D01*
X25790000Y-86500000D02*
X27950000Y-86500000D01*
X101790000Y-80500000D02*
X103950000Y-80500000D01*
X68950000Y-77500000D02*
X82790000Y-77500000D01*
X52950000Y-80500000D02*
X63790000Y-80500000D01*
D31*
X150330000Y-29340000D02*
X148955000Y-29340000D01*
D30*
X122950000Y-80500000D02*
X128950000Y-74500000D01*
X141864636Y-55441000D02*
X142445364Y-55441000D01*
X153651760Y-25649000D02*
X149114636Y-25649000D01*
X119536500Y-79246500D02*
X120790000Y-80500000D01*
X65950000Y-80500000D02*
X68950000Y-77500000D01*
X87450000Y-75000000D02*
X96290000Y-75000000D01*
X153651760Y-50811000D02*
X154727000Y-49735760D01*
X149114636Y-25649000D02*
X148254000Y-26509636D01*
X146289000Y-50811000D02*
X153651760Y-50811000D01*
X139790000Y-74500000D02*
X141950000Y-74500000D01*
X140003248Y-55671000D02*
X141406752Y-55671000D01*
X139429000Y-55671000D02*
X139931707Y-55671000D01*
X29203500Y-85246500D02*
X43536500Y-85246500D01*
X142753182Y-54346818D02*
X146289000Y-50811000D01*
X142856000Y-54449636D02*
X142753182Y-54346818D01*
X44790000Y-86500000D02*
X46950000Y-86500000D01*
X141406752Y-55671000D02*
X141586000Y-55491752D01*
X141586000Y-55491752D02*
X141586000Y-55166000D01*
X154727000Y-26724240D02*
X153651760Y-25649000D01*
X142856000Y-55030364D02*
X142856000Y-54449636D01*
X82790000Y-77500000D02*
X84950000Y-77500000D01*
X141950000Y-74500000D02*
X135100000Y-67650000D01*
X96290000Y-75000000D02*
X101790000Y-80500000D01*
X128950000Y-74500000D02*
X139790000Y-74500000D01*
X154727000Y-49735760D02*
X154727000Y-26724240D01*
X139967478Y-55635229D02*
X140003248Y-55671000D01*
X135600000Y-62286364D02*
X135600000Y-59500000D01*
X139931707Y-55671000D02*
X139967478Y-55635229D01*
X148254000Y-28639000D02*
X148955000Y-29340000D01*
X46950000Y-86500000D02*
X52950000Y-80500000D01*
%TO.N,P1*%
X63790000Y-61500000D02*
X52950000Y-61500000D01*
X154326000Y-39976760D02*
X154326000Y-28625240D01*
X122950000Y-61500000D02*
X120790000Y-61500000D01*
X150106000Y-27951000D02*
X148955000Y-26800000D01*
X119536500Y-60246500D02*
X120790000Y-61500000D01*
X52950000Y-61500000D02*
X46950000Y-67500000D01*
X136600000Y-41509240D02*
X137458240Y-40651000D01*
X82790000Y-58500000D02*
X70600000Y-58500000D01*
X84950000Y-58500000D02*
X82790000Y-58500000D01*
X86203500Y-57246500D02*
X97536500Y-57246500D01*
X27950000Y-67500000D02*
X25790000Y-67500000D01*
X105203500Y-60246500D02*
X119536500Y-60246500D01*
X67600000Y-61500000D02*
X65950000Y-61500000D01*
X65950000Y-61500000D02*
X63790000Y-61500000D01*
X153651760Y-27951000D02*
X150106000Y-27951000D01*
X84950000Y-58500000D02*
X86203500Y-57246500D01*
X70600000Y-58500000D02*
X67600000Y-61500000D01*
X122950000Y-61500000D02*
X123600000Y-61500000D01*
X136600000Y-48500000D02*
X136600000Y-41509240D01*
X137458240Y-40651000D02*
X153651760Y-40651000D01*
X29203500Y-66246500D02*
X27950000Y-67500000D01*
X44790000Y-67500000D02*
X43536500Y-66246500D01*
X97536500Y-57246500D02*
X101790000Y-61500000D01*
X123600000Y-61500000D02*
X136600000Y-48500000D01*
D31*
X150330000Y-26800000D02*
X148955000Y-26800000D01*
D30*
X153651760Y-40651000D02*
X154326000Y-39976760D01*
X154326000Y-28625240D02*
X153651760Y-27951000D01*
X103950000Y-61500000D02*
X105203500Y-60246500D01*
X103950000Y-61500000D02*
X101790000Y-61500000D01*
D31*
%TO.N,P2*%
X150330000Y-36960000D02*
X148955000Y-36960000D01*
D30*
X52950000Y-42500000D02*
X63790000Y-42500000D01*
X128950000Y-36500000D02*
X135100000Y-36500000D01*
X27950000Y-48500000D02*
X29203500Y-47246500D01*
X29203500Y-47246500D02*
X43536500Y-47246500D01*
X84950000Y-39500000D02*
X86203500Y-38246500D01*
X46950000Y-48500000D02*
X52950000Y-42500000D01*
X25790000Y-48500000D02*
X27950000Y-48500000D01*
X68950000Y-39500000D02*
X82790000Y-39500000D01*
X43536500Y-47246500D02*
X44790000Y-48500000D01*
X103950000Y-42500000D02*
X105203500Y-41246500D01*
X101790000Y-42500000D02*
X103950000Y-42500000D01*
X122950000Y-42500000D02*
X128950000Y-36500000D01*
X86203500Y-38246500D02*
X97536500Y-38246500D01*
X65950000Y-42500000D02*
X68950000Y-39500000D01*
X97536500Y-38246500D02*
X101790000Y-42500000D01*
X120790000Y-42500000D02*
X122950000Y-42500000D01*
X119536500Y-41246500D02*
X120790000Y-42500000D01*
X105203500Y-41246500D02*
X119536500Y-41246500D01*
X63790000Y-42500000D02*
X65950000Y-42500000D01*
X44790000Y-48500000D02*
X46950000Y-48500000D01*
X82790000Y-39500000D02*
X84950000Y-39500000D01*
%TO.N,P3*%
X120790000Y-23500000D02*
X119536500Y-24753500D01*
X61790000Y-25500000D02*
X63790000Y-23500000D01*
X122950000Y-23500000D02*
X124203500Y-22246500D01*
X68950000Y-20500000D02*
X65950000Y-23500000D01*
X43536500Y-28246500D02*
X29203500Y-28246500D01*
X136784000Y-37436760D02*
X137458240Y-38111000D01*
X65950000Y-23500000D02*
X63790000Y-23500000D01*
X85851000Y-21401000D02*
X84950000Y-20500000D01*
X27950000Y-29500000D02*
X25790000Y-29500000D01*
X136784000Y-29816760D02*
X136784000Y-37436760D01*
X82790000Y-20500000D02*
X84950000Y-20500000D01*
X147566000Y-38111000D02*
X148955000Y-39500000D01*
X90600000Y-23500000D02*
X88501000Y-21401000D01*
X44790000Y-29500000D02*
X43536500Y-28246500D01*
D31*
X150330000Y-39500000D02*
X148955000Y-39500000D01*
D30*
X82790000Y-20500000D02*
X68950000Y-20500000D01*
X124203500Y-22246500D02*
X129213740Y-22246500D01*
X88501000Y-21401000D02*
X85851000Y-21401000D01*
X103950000Y-23500000D02*
X101790000Y-23500000D01*
X137458240Y-38111000D02*
X147566000Y-38111000D01*
X29203500Y-28246500D02*
X27950000Y-29500000D01*
X105203500Y-24753500D02*
X103950000Y-23500000D01*
X50950000Y-25500000D02*
X61790000Y-25500000D01*
X122950000Y-23500000D02*
X120790000Y-23500000D01*
X129213740Y-22246500D02*
X136784000Y-29816760D01*
X46950000Y-29500000D02*
X50950000Y-25500000D01*
X101790000Y-23500000D02*
X90600000Y-23500000D01*
X119536500Y-24753500D02*
X105203500Y-24753500D01*
X46950000Y-29500000D02*
X44790000Y-29500000D01*
%TO.N,P4*%
X85100000Y-99500000D02*
X86353500Y-98246500D01*
X125640681Y-99390441D02*
X127973785Y-97057337D01*
X145818002Y-97057337D02*
X146118616Y-97357951D01*
X103850000Y-99500000D02*
X105103500Y-98246500D01*
X123897815Y-99202185D02*
X124086071Y-99390441D01*
D31*
X150330000Y-42040000D02*
X148955000Y-42040000D01*
D30*
X134100000Y-64372500D02*
X134100000Y-55000000D01*
X124086071Y-99390441D02*
X125640681Y-99390441D01*
X122533215Y-98246500D02*
X123488900Y-99202185D01*
X123488900Y-99202185D02*
X123897815Y-99202185D01*
X134036250Y-64436250D02*
X134036250Y-71936250D01*
X134036250Y-71936250D02*
X134100000Y-72000000D01*
X134036250Y-64436250D02*
X134100000Y-64372500D01*
X100436500Y-98246500D02*
X101690000Y-99500000D01*
X84850000Y-99500000D02*
X85100000Y-99500000D01*
X86353500Y-98246500D02*
X100436500Y-98246500D01*
X105103500Y-98246500D02*
X122533215Y-98246500D01*
X82690000Y-99500000D02*
X84850000Y-99500000D01*
X101690000Y-99500000D02*
X103850000Y-99500000D01*
X127973785Y-97057337D02*
X143979637Y-97057337D01*
X143979637Y-97057337D02*
X145818002Y-97057337D01*
D31*
%TO.N,RAW*%
X140780000Y-26800000D02*
X142155000Y-26800000D01*
%TO.N,GND*%
X140780000Y-29340000D02*
X142155000Y-29340000D01*
D30*
X155728000Y-61427000D02*
X155728000Y-35000000D01*
X153175000Y-63980000D02*
X155728000Y-61427000D01*
X143892500Y-61130000D02*
X150325000Y-61130000D01*
D31*
X150330000Y-34420000D02*
X148955000Y-34420000D01*
D30*
X150325000Y-61130000D02*
X153175000Y-63980000D01*
D31*
X150330000Y-31880000D02*
X148955000Y-31880000D01*
%TO.N,RST*%
X140780000Y-31880000D02*
X142155000Y-31880000D01*
D30*
%TO.N,VCC*%
X153175000Y-59425000D02*
X155100000Y-57500000D01*
D31*
X140780000Y-34420000D02*
X142155000Y-34420000D01*
D30*
X153175000Y-61980000D02*
X153175000Y-59425000D01*
D31*
%TO.N,P21*%
X140780000Y-36960000D02*
X142155000Y-36960000D01*
%TO.N,P20*%
X140780000Y-39500000D02*
X142155000Y-39500000D01*
%TO.N,P19*%
X140780000Y-42040000D02*
X142155000Y-42040000D01*
%TO.N,P18*%
X140780000Y-44580000D02*
X142155000Y-44580000D01*
%TO.N,P15*%
X140780000Y-47120000D02*
X142155000Y-47120000D01*
%TO.N,P5*%
X150330000Y-44580000D02*
X148955000Y-44580000D01*
%TO.N,MCU1_24*%
X137935000Y-26800000D02*
X140055000Y-26800000D01*
%TO.N,MCU1_1*%
X151055000Y-26800000D02*
X153175000Y-26800000D01*
%TO.N,MCU1_23*%
X137935000Y-29340000D02*
X140055000Y-29340000D01*
%TO.N,MCU1_2*%
X151055000Y-29340000D02*
X153175000Y-29340000D01*
%TO.N,MCU1_22*%
X137935000Y-31880000D02*
X140055000Y-31880000D01*
%TO.N,MCU1_3*%
X151055000Y-31880000D02*
X153175000Y-31880000D01*
%TO.N,MCU1_21*%
X137935000Y-34420000D02*
X140055000Y-34420000D01*
%TO.N,MCU1_4*%
X151055000Y-34420000D02*
X153175000Y-34420000D01*
%TO.N,MCU1_20*%
X137935000Y-36960000D02*
X140055000Y-36960000D01*
%TO.N,MCU1_5*%
X151055000Y-36960000D02*
X153175000Y-36960000D01*
%TO.N,MCU1_19*%
X137935000Y-39500000D02*
X140055000Y-39500000D01*
%TO.N,MCU1_6*%
X151055000Y-39500000D02*
X153175000Y-39500000D01*
%TO.N,MCU1_18*%
X137935000Y-42040000D02*
X140055000Y-42040000D01*
%TO.N,MCU1_7*%
X151055000Y-42040000D02*
X153175000Y-42040000D01*
%TO.N,MCU1_17*%
X137935000Y-44580000D02*
X140055000Y-44580000D01*
%TO.N,MCU1_8*%
X151055000Y-44580000D02*
X153175000Y-44580000D01*
%TO.N,MCU1_16*%
X137935000Y-47120000D02*
X140055000Y-47120000D01*
%TO.N,MCU1_9*%
X151055000Y-47120000D02*
X153175000Y-47120000D01*
%TO.N,MCU1_15*%
X137935000Y-49660000D02*
X140055000Y-49660000D01*
%TO.N,MCU1_10*%
X151055000Y-49660000D02*
X153175000Y-49660000D01*
%TO.N,MCU1_14*%
X137935000Y-52200000D02*
X140055000Y-52200000D01*
%TO.N,MCU1_11*%
X151055000Y-52200000D02*
X153175000Y-52200000D01*
%TO.N,MCU1_13*%
X137935000Y-54740000D02*
X140055000Y-54740000D01*
%TO.N,MCU1_12*%
X151055000Y-54740000D02*
X153175000Y-54740000D01*
D30*
%TO.N,P1*%
X46950000Y-67500000D02*
X44790000Y-67500000D01*
%TD*%
M02*
