%TF.GenerationSoftware,KiCad,Pcbnew,9.0.5*%
%TF.CreationDate,2025-11-01T14:53:46+08:00*%
%TF.ProjectId,main,6d61696e-2e6b-4696-9361-645f70636258,v1.0.0*%
%TF.SameCoordinates,Original*%
%TF.FileFunction,Paste,Bot*%
%TF.FilePolarity,Positive*%
%FSLAX46Y46*%
G04 Gerber Fmt 4.6, Leading zero omitted, Abs format (unit mm)*
G04 Created by KiCad (PCBNEW 9.0.5) date 2025-11-01 14:53:46*
%MOMM*%
%LPD*%
G01*
G04 APERTURE LIST*
G04 Aperture macros list*
%AMRotRect*
0 Rectangle, with rotation*
0 The origin of the aperture is its center*
0 $1 length*
0 $2 width*
0 $3 Rotation angle, in degrees counterclockwise*
0 Add horizontal line*
21,1,$1,$2,0,0,$3*%
%AMFreePoly0*
4,1,6,0.250000,0.000000,-0.250000,-0.625000,-0.500000,-0.625000,-0.500000,0.625000,-0.250000,0.625000,0.250000,0.000000,0.250000,0.000000,$1*%
%AMFreePoly1*
4,1,6,0.500000,-0.625000,-0.650000,-0.625000,-0.150000,0.000000,-0.650000,0.625000,0.500000,0.625000,0.500000,-0.625000,0.500000,-0.625000,$1*%
G04 Aperture macros list end*
%ADD10R,0.900000X1.200000*%
%ADD11RotRect,0.900000X1.200000X352.000000*%
%ADD12FreePoly0,180.000000*%
%ADD13FreePoly0,0.000000*%
%ADD14FreePoly1,0.000000*%
%ADD15FreePoly1,180.000000*%
%ADD16RotRect,0.900000X1.200000X355.000000*%
G04 APERTURE END LIST*
D10*
%TO.C,D4*%
X27950000Y-29500000D03*
X31250000Y-29500000D03*
%TD*%
%TO.C,D2*%
X27950000Y-67500000D03*
X31250000Y-67500000D03*
%TD*%
%TO.C,D27*%
X103850000Y-99500000D03*
X107150000Y-99500000D03*
%TD*%
%TO.C,D25*%
X141950000Y-74500000D03*
X145250000Y-74500000D03*
%TD*%
D11*
%TO.C,D29*%
X146118616Y-97357951D03*
X149386500Y-97817223D03*
%TD*%
D10*
%TO.C,D8*%
X46950000Y-29500000D03*
X50250000Y-29500000D03*
%TD*%
%TO.C,D9*%
X65950000Y-80500000D03*
X69250000Y-80500000D03*
%TD*%
%TO.C,D15*%
X84950000Y-39500000D03*
X88250000Y-39500000D03*
%TD*%
%TO.C,D23*%
X122950000Y-42500000D03*
X126250000Y-42500000D03*
%TD*%
%TO.C,D7*%
X46950000Y-48500000D03*
X50250000Y-48500000D03*
%TD*%
%TO.C,D14*%
X84950000Y-58500000D03*
X88250000Y-58500000D03*
%TD*%
%TO.C,D16*%
X84950000Y-20500000D03*
X88250000Y-20500000D03*
%TD*%
%TO.C,D17*%
X103950000Y-80500000D03*
X107250000Y-80500000D03*
%TD*%
D12*
%TO.C,MCU1*%
X151055000Y-26800000D03*
X151055000Y-29340000D03*
X151055000Y-31880000D03*
X151055000Y-34420000D03*
X151055000Y-36960000D03*
X151055000Y-39500000D03*
X151055000Y-42040000D03*
X151055000Y-44580000D03*
X151055000Y-47120000D03*
X151055000Y-49660000D03*
X151055000Y-52200000D03*
X151055000Y-54740000D03*
D13*
X140055000Y-54740000D03*
X140055000Y-52200000D03*
X140055000Y-49660000D03*
X140055000Y-47120000D03*
X140055000Y-44580000D03*
X140055000Y-42040000D03*
X140055000Y-39500000D03*
X140055000Y-36960000D03*
X140055000Y-34420000D03*
X140055000Y-31880000D03*
X140055000Y-29340000D03*
X140055000Y-26800000D03*
D14*
X140780000Y-26800000D03*
X140780000Y-29340000D03*
X140780000Y-31880000D03*
X140780000Y-34420000D03*
X140780000Y-36960000D03*
X140780000Y-39500000D03*
X140780000Y-42040000D03*
X140780000Y-44580000D03*
X140780000Y-47120000D03*
X140780000Y-49660000D03*
X140780000Y-52200000D03*
X140780000Y-54740000D03*
D15*
X150330000Y-54740000D03*
X150330000Y-52200000D03*
X150330000Y-49660000D03*
X150330000Y-47120000D03*
X150330000Y-44580000D03*
X150330000Y-42040000D03*
X150330000Y-39500000D03*
X150330000Y-36960000D03*
X150330000Y-34420000D03*
X150330000Y-31880000D03*
X150330000Y-29340000D03*
X150330000Y-26800000D03*
%TD*%
D10*
%TO.C,D18*%
X103950000Y-61500000D03*
X107250000Y-61500000D03*
%TD*%
%TO.C,D19*%
X103950000Y-42500000D03*
X107250000Y-42500000D03*
%TD*%
%TO.C,D3*%
X27950000Y-48500000D03*
X31250000Y-48500000D03*
%TD*%
%TO.C,D22*%
X122950000Y-61500000D03*
X126250000Y-61500000D03*
%TD*%
%TO.C,D13*%
X84950000Y-77500000D03*
X88250000Y-77500000D03*
%TD*%
%TO.C,D6*%
X46950000Y-67500000D03*
X50250000Y-67500000D03*
%TD*%
%TO.C,D12*%
X65950000Y-23500000D03*
X69250000Y-23500000D03*
%TD*%
%TO.C,D20*%
X103950000Y-23500000D03*
X107250000Y-23500000D03*
%TD*%
%TO.C,D26*%
X84850000Y-99500000D03*
X88150000Y-99500000D03*
%TD*%
D16*
%TO.C,D28*%
X125640681Y-99390441D03*
X128928123Y-99678055D03*
%TD*%
D10*
%TO.C,D11*%
X65950000Y-42500000D03*
X69250000Y-42500000D03*
%TD*%
%TO.C,D1*%
X27950000Y-86500000D03*
X31250000Y-86500000D03*
%TD*%
%TO.C,D24*%
X122950000Y-23500000D03*
X126250000Y-23500000D03*
%TD*%
%TO.C,D21*%
X122950000Y-80500000D03*
X126250000Y-80500000D03*
%TD*%
%TO.C,D5*%
X46950000Y-86500000D03*
X50250000Y-86500000D03*
%TD*%
%TO.C,D10*%
X65950000Y-61500000D03*
X69250000Y-61500000D03*
%TD*%
M02*
