M48
; DRILL file {KiCad 9.0.5} date 2025-11-01T14:53:49+0800
; FORMAT={-:-/ absolute / metric / decimal}
; #@! TF.CreationDate,2025-11-01T14:53:49+08:00
; #@! TF.GenerationSoftware,Kicad,Pcbnew,9.0.5
; #@! TF.FileFunction,NonPlated,1,2,NPTH
FMAT,2
METRIC
; #@! TA.AperFunction,NonPlated,NPTH,ComponentDrill
T1C1.702
; #@! TA.AperFunction,NonPlated,NPTH,ComponentDrill
T2C3.988
%
G90
G05
T1
X24.52Y-38.5
X24.52Y-57.5
X24.52Y-76.5
X24.52Y-95.5
X34.68Y-38.5
X34.68Y-57.5
X34.68Y-76.5
X34.68Y-95.5
X43.52Y-38.5
X43.52Y-57.5
X43.52Y-76.5
X43.52Y-95.5
X53.68Y-38.5
X53.68Y-57.5
X53.68Y-76.5
X53.68Y-95.5
X62.52Y-32.5
X62.52Y-51.5
X62.52Y-70.5
X62.52Y-89.5
X72.68Y-32.5
X72.68Y-51.5
X72.68Y-70.5
X72.68Y-89.5
X81.42Y-108.5
X81.52Y-29.5
X81.52Y-48.5
X81.52Y-67.5
X81.52Y-86.5
X91.58Y-108.5
X91.68Y-29.5
X91.68Y-48.5
X91.68Y-67.5
X91.68Y-86.5
X100.42Y-108.5
X100.52Y-32.5
X100.52Y-51.5
X100.52Y-70.5
X100.52Y-89.5
X110.58Y-108.5
X110.68Y-32.5
X110.68Y-51.5
X110.68Y-70.5
X110.68Y-89.5
X119.52Y-32.5
X119.52Y-51.5
X119.52Y-70.5
X119.52Y-89.5
X121.439Y-108.057
X129.68Y-32.5
X129.68Y-51.5
X129.68Y-70.5
X129.68Y-89.5
X131.561Y-108.943
X138.52Y-83.5
X141.469Y-105.793
X148.68Y-83.5
X151.531Y-107.207
T2
X29.6Y-38.5
X29.6Y-57.5
X29.6Y-76.5
X29.6Y-95.5
X48.6Y-38.5
X48.6Y-57.5
X48.6Y-76.5
X48.6Y-95.5
X67.6Y-32.5
X67.6Y-51.5
X67.6Y-70.5
X67.6Y-89.5
X86.5Y-108.5
X86.6Y-29.5
X86.6Y-48.5
X86.6Y-67.5
X86.6Y-86.5
X105.5Y-108.5
X105.6Y-32.5
X105.6Y-51.5
X105.6Y-70.5
X105.6Y-89.5
X124.6Y-32.5
X124.6Y-51.5
X124.6Y-70.5
X124.6Y-89.5
X126.5Y-108.5
X143.6Y-83.5
X146.5Y-106.5
M30
