%TF.GenerationSoftware,KiCad,Pcbnew,9.0.5*%
%TF.CreationDate,2025-11-01T14:53:46+08:00*%
%TF.ProjectId,main,6d61696e-2e6b-4696-9361-645f70636258,v1.0.0*%
%TF.SameCoordinates,Original*%
%TF.FileFunction,Soldermask,Top*%
%TF.FilePolarity,Negative*%
%FSLAX46Y46*%
G04 Gerber Fmt 4.6, Leading zero omitted, Abs format (unit mm)*
G04 Created by KiCad (PCBNEW 9.0.5) date 2025-11-01 14:53:46*
%MOMM*%
%LPD*%
G01*
G04 APERTURE LIST*
G04 Aperture macros list*
%AMRotRect*
0 Rectangle, with rotation*
0 The origin of the aperture is its center*
0 $1 length*
0 $2 width*
0 $3 Rotation angle, in degrees counterclockwise*
0 Add horizontal line*
21,1,$1,$2,0,0,$3*%
%AMFreePoly0*
4,1,6,0.250000,0.000000,-0.250000,-0.625000,-0.500000,-0.625000,-0.500000,0.625000,-0.250000,0.625000,0.250000,0.000000,0.250000,0.000000,$1*%
%AMFreePoly1*
4,1,6,0.500000,-0.625000,-0.650000,-0.625000,-0.150000,0.000000,-0.650000,0.625000,0.500000,0.625000,0.500000,-0.625000,0.500000,-0.625000,$1*%
G04 Aperture macros list end*
%ADD10R,1.800000X1.100000*%
%ADD11C,1.701800*%
%ADD12C,3.987800*%
%ADD13C,2.286000*%
%ADD14R,1.778000X1.778000*%
%ADD15R,0.900000X1.200000*%
%ADD16C,1.905000*%
%ADD17RotRect,1.778000X1.778000X352.000000*%
%ADD18RotRect,0.900000X1.200000X352.000000*%
%ADD19FreePoly0,180.000000*%
%ADD20C,1.700000*%
%ADD21FreePoly0,0.000000*%
%ADD22C,0.800000*%
%ADD23FreePoly1,180.000000*%
%ADD24FreePoly1,0.000000*%
%ADD25R,1.700000X1.200000*%
%ADD26O,1.700000X1.200000*%
%ADD27RotRect,1.778000X1.778000X355.000000*%
%ADD28RotRect,0.900000X1.200000X355.000000*%
G04 APERTURE END LIST*
D10*
%TO.C,B1*%
X137692500Y-61130000D03*
X143892500Y-61130000D03*
X137692500Y-64830000D03*
X143892500Y-64830000D03*
%TD*%
D11*
%TO.C,S11*%
X62520000Y-51500000D03*
D12*
X67600000Y-51500000D03*
D11*
X72680000Y-51500000D03*
D13*
X65060000Y-46420000D03*
X70140000Y-46420000D03*
X63790000Y-48960000D03*
X71410000Y-48960000D03*
%TD*%
D11*
%TO.C,S23*%
X119520000Y-51500000D03*
D12*
X124600000Y-51500000D03*
D11*
X129680000Y-51500000D03*
D13*
X122060000Y-46420000D03*
X127140000Y-46420000D03*
X120790000Y-48960000D03*
X128410000Y-48960000D03*
%TD*%
D14*
%TO.C,D4*%
X25790000Y-29500000D03*
D15*
X27950000Y-29500000D03*
X31250000Y-29500000D03*
D16*
X33410000Y-29500000D03*
%TD*%
D14*
%TO.C,D2*%
X25790000Y-67500000D03*
D15*
X27950000Y-67500000D03*
X31250000Y-67500000D03*
D16*
X33410000Y-67500000D03*
%TD*%
D14*
%TO.C,D27*%
X101690000Y-99500000D03*
D15*
X103850000Y-99500000D03*
X107150000Y-99500000D03*
D16*
X109310000Y-99500000D03*
%TD*%
D11*
%TO.C,S10*%
X62520000Y-70500000D03*
D12*
X67600000Y-70500000D03*
D11*
X72680000Y-70500000D03*
D13*
X65060000Y-65420000D03*
X70140000Y-65420000D03*
X63790000Y-67960000D03*
X71410000Y-67960000D03*
%TD*%
D11*
%TO.C,S3*%
X24520000Y-57500000D03*
D12*
X29600000Y-57500000D03*
D11*
X34680000Y-57500000D03*
D13*
X27060000Y-52420000D03*
X32140000Y-52420000D03*
X25790000Y-54960000D03*
X33410000Y-54960000D03*
%TD*%
D11*
%TO.C,S29*%
X141469438Y-105793001D03*
D12*
X146500000Y-106500000D03*
D11*
X151530562Y-107206999D03*
D13*
X144691718Y-101115942D03*
X149722280Y-101822938D03*
X143080578Y-103454470D03*
X150626421Y-104514969D03*
%TD*%
D11*
%TO.C,S28*%
X121439331Y-108057249D03*
D12*
X126500000Y-108500000D03*
D11*
X131560669Y-108942751D03*
D13*
X124412417Y-103217955D03*
X129473086Y-103660707D03*
X122925874Y-105637602D03*
X130516877Y-106301729D03*
%TD*%
D14*
%TO.C,D25*%
X139790000Y-74500000D03*
D15*
X141950000Y-74500000D03*
X145250000Y-74500000D03*
D16*
X147410000Y-74500000D03*
%TD*%
D17*
%TO.C,D29*%
X143979637Y-97057336D03*
D18*
X146118616Y-97357951D03*
X149386500Y-97817223D03*
D16*
X151525479Y-98117838D03*
%TD*%
D11*
%TO.C,S24*%
X119520000Y-32500000D03*
D12*
X124600000Y-32500000D03*
D11*
X129680000Y-32500000D03*
D13*
X122060000Y-27420000D03*
X127140000Y-27420000D03*
X120790000Y-29960000D03*
X128410000Y-29960000D03*
%TD*%
D14*
%TO.C,D8*%
X44790000Y-29500000D03*
D15*
X46950000Y-29500000D03*
X50250000Y-29500000D03*
D16*
X52410000Y-29500000D03*
%TD*%
D14*
%TO.C,D9*%
X63790000Y-80500000D03*
D15*
X65950000Y-80500000D03*
X69250000Y-80500000D03*
D16*
X71410000Y-80500000D03*
%TD*%
D14*
%TO.C,D15*%
X82790000Y-39500000D03*
D15*
X84950000Y-39500000D03*
X88250000Y-39500000D03*
D16*
X90410000Y-39500000D03*
%TD*%
D14*
%TO.C,D23*%
X120790000Y-42500000D03*
D15*
X122950000Y-42500000D03*
X126250000Y-42500000D03*
D16*
X128410000Y-42500000D03*
%TD*%
D14*
%TO.C,D7*%
X44790000Y-48500000D03*
D15*
X46950000Y-48500000D03*
X50250000Y-48500000D03*
D16*
X52410000Y-48500000D03*
%TD*%
D14*
%TO.C,D14*%
X82790000Y-58500000D03*
D15*
X84950000Y-58500000D03*
X88250000Y-58500000D03*
D16*
X90410000Y-58500000D03*
%TD*%
D14*
%TO.C,D16*%
X82790000Y-20500000D03*
D15*
X84950000Y-20500000D03*
X88250000Y-20500000D03*
D16*
X90410000Y-20500000D03*
%TD*%
D11*
%TO.C,S18*%
X100520000Y-70500000D03*
D12*
X105600000Y-70500000D03*
D11*
X110680000Y-70500000D03*
D13*
X103060000Y-65420000D03*
X108140000Y-65420000D03*
X101790000Y-67960000D03*
X109410000Y-67960000D03*
%TD*%
D11*
%TO.C,S15*%
X81520000Y-48500000D03*
D12*
X86600000Y-48500000D03*
D11*
X91680000Y-48500000D03*
D13*
X84060000Y-43420000D03*
X89140000Y-43420000D03*
X82790000Y-45960000D03*
X90410000Y-45960000D03*
%TD*%
D11*
%TO.C,S1*%
X24520000Y-95500000D03*
D12*
X29600000Y-95500000D03*
D11*
X34680000Y-95500000D03*
D13*
X27060000Y-90420000D03*
X32140000Y-90420000D03*
X25790000Y-92960000D03*
X33410000Y-92960000D03*
%TD*%
D11*
%TO.C,S27*%
X100420000Y-108500000D03*
D12*
X105500000Y-108500000D03*
D11*
X110580000Y-108500000D03*
D13*
X102960000Y-103420000D03*
X108040000Y-103420000D03*
X101690000Y-105960000D03*
X109310000Y-105960000D03*
%TD*%
D11*
%TO.C,S14*%
X81520000Y-67500000D03*
D12*
X86600000Y-67500000D03*
D11*
X91680000Y-67500000D03*
D13*
X84060000Y-62420000D03*
X89140000Y-62420000D03*
X82790000Y-64960000D03*
X90410000Y-64960000D03*
%TD*%
D11*
%TO.C,S6*%
X43520000Y-76500000D03*
D12*
X48600000Y-76500000D03*
D11*
X53680000Y-76500000D03*
D13*
X46060000Y-71420000D03*
X51140000Y-71420000D03*
X44790000Y-73960000D03*
X52410000Y-73960000D03*
%TD*%
D11*
%TO.C,S13*%
X81520000Y-86500000D03*
D12*
X86600000Y-86500000D03*
D11*
X91680000Y-86500000D03*
D13*
X84060000Y-81420000D03*
X89140000Y-81420000D03*
X82790000Y-83960000D03*
X90410000Y-83960000D03*
%TD*%
D11*
%TO.C,S2*%
X24520000Y-76500000D03*
D12*
X29600000Y-76500000D03*
D11*
X34680000Y-76500000D03*
D13*
X27060000Y-71420000D03*
X32140000Y-71420000D03*
X25790000Y-73960000D03*
X33410000Y-73960000D03*
%TD*%
D14*
%TO.C,D17*%
X101790000Y-80500000D03*
D15*
X103950000Y-80500000D03*
X107250000Y-80500000D03*
D16*
X109410000Y-80500000D03*
%TD*%
D19*
%TO.C,MCU1*%
X151055000Y-26800000D03*
D20*
X153175000Y-26800000D03*
D19*
X151055000Y-29340000D03*
D20*
X153175000Y-29340000D03*
D19*
X151055000Y-31880000D03*
D20*
X153175000Y-31880000D03*
D19*
X151055000Y-34420000D03*
D20*
X153175000Y-34420000D03*
D19*
X151055000Y-36960000D03*
D20*
X153175000Y-36960000D03*
D19*
X151055000Y-39500000D03*
D20*
X153175000Y-39500000D03*
D19*
X151055000Y-42040000D03*
D20*
X153175000Y-42040000D03*
D19*
X151055000Y-44580000D03*
D20*
X153175000Y-44580000D03*
D19*
X151055000Y-47120000D03*
D20*
X153175000Y-47120000D03*
D19*
X151055000Y-49660000D03*
D20*
X153175000Y-49660000D03*
D19*
X151055000Y-52200000D03*
D20*
X153175000Y-52200000D03*
D19*
X151055000Y-54740000D03*
D20*
X153175000Y-54740000D03*
X137935000Y-54740000D03*
D21*
X140055000Y-54740000D03*
D20*
X137935000Y-52200000D03*
D21*
X140055000Y-52200000D03*
D20*
X137935000Y-49660000D03*
D21*
X140055000Y-49660000D03*
D20*
X137935000Y-47120000D03*
D21*
X140055000Y-47120000D03*
D20*
X137935000Y-44580000D03*
D21*
X140055000Y-44580000D03*
D20*
X137935000Y-42040000D03*
D21*
X140055000Y-42040000D03*
D20*
X137935000Y-39500000D03*
D21*
X140055000Y-39500000D03*
D20*
X137935000Y-36960000D03*
D21*
X140055000Y-36960000D03*
D20*
X137935000Y-34420000D03*
D21*
X140055000Y-34420000D03*
D20*
X137935000Y-31880000D03*
D21*
X140055000Y-31880000D03*
D20*
X137935000Y-29340000D03*
D21*
X140055000Y-29340000D03*
D20*
X137935000Y-26800000D03*
D21*
X140055000Y-26800000D03*
D22*
X148955000Y-26800000D03*
D23*
X150330000Y-26800000D03*
D22*
X148955000Y-29340000D03*
D23*
X150330000Y-29340000D03*
D22*
X148955000Y-31880000D03*
D23*
X150330000Y-31880000D03*
D22*
X148955000Y-34420000D03*
D23*
X150330000Y-34420000D03*
D22*
X148955000Y-36960000D03*
D23*
X150330000Y-36960000D03*
D22*
X148955000Y-39500000D03*
D23*
X150330000Y-39500000D03*
D22*
X148955000Y-42040000D03*
D23*
X150330000Y-42040000D03*
D22*
X148955000Y-44580000D03*
D23*
X150330000Y-44580000D03*
D22*
X148955000Y-47120000D03*
D23*
X150330000Y-47120000D03*
D22*
X148955000Y-49660000D03*
D23*
X150330000Y-49660000D03*
D22*
X148955000Y-52200000D03*
D23*
X150330000Y-52200000D03*
D22*
X148955000Y-54740000D03*
D23*
X150330000Y-54740000D03*
D24*
X140780000Y-54740000D03*
D22*
X142155000Y-54740000D03*
D24*
X140780000Y-52200000D03*
D22*
X142155000Y-52200000D03*
D24*
X140780000Y-49660000D03*
D22*
X142155000Y-49660000D03*
D24*
X140780000Y-47120000D03*
D22*
X142155000Y-47120000D03*
D24*
X140780000Y-44580000D03*
D22*
X142155000Y-44580000D03*
D24*
X140780000Y-42040000D03*
D22*
X142155000Y-42040000D03*
D24*
X140780000Y-39500000D03*
D22*
X142155000Y-39500000D03*
D24*
X140780000Y-36960000D03*
D22*
X142155000Y-36960000D03*
D24*
X140780000Y-34420000D03*
D22*
X142155000Y-34420000D03*
D24*
X140780000Y-31880000D03*
D22*
X142155000Y-31880000D03*
D24*
X140780000Y-29340000D03*
D22*
X142155000Y-29340000D03*
D24*
X140780000Y-26800000D03*
D22*
X142155000Y-26800000D03*
%TD*%
D11*
%TO.C,S4*%
X24520000Y-38500000D03*
D12*
X29600000Y-38500000D03*
D11*
X34680000Y-38500000D03*
D13*
X27060000Y-33420000D03*
X32140000Y-33420000D03*
X25790000Y-35960000D03*
X33410000Y-35960000D03*
%TD*%
D11*
%TO.C,S26*%
X81420000Y-108500000D03*
D12*
X86500000Y-108500000D03*
D11*
X91580000Y-108500000D03*
D13*
X83960000Y-103420000D03*
X89040000Y-103420000D03*
X82690000Y-105960000D03*
X90310000Y-105960000D03*
%TD*%
D14*
%TO.C,D18*%
X101790000Y-61500000D03*
D15*
X103950000Y-61500000D03*
X107250000Y-61500000D03*
D16*
X109410000Y-61500000D03*
%TD*%
D14*
%TO.C,D19*%
X101790000Y-42500000D03*
D15*
X103950000Y-42500000D03*
X107250000Y-42500000D03*
D16*
X109410000Y-42500000D03*
%TD*%
D14*
%TO.C,D3*%
X25790000Y-48500000D03*
D15*
X27950000Y-48500000D03*
X31250000Y-48500000D03*
D16*
X33410000Y-48500000D03*
%TD*%
D14*
%TO.C,D22*%
X120790000Y-61500000D03*
D15*
X122950000Y-61500000D03*
X126250000Y-61500000D03*
D16*
X128410000Y-61500000D03*
%TD*%
D11*
%TO.C,S21*%
X119520000Y-89500000D03*
D12*
X124600000Y-89500000D03*
D11*
X129680000Y-89500000D03*
D13*
X122060000Y-84420000D03*
X127140000Y-84420000D03*
X120790000Y-86960000D03*
X128410000Y-86960000D03*
%TD*%
D14*
%TO.C,D13*%
X82790000Y-77500000D03*
D15*
X84950000Y-77500000D03*
X88250000Y-77500000D03*
D16*
X90410000Y-77500000D03*
%TD*%
D11*
%TO.C,S9*%
X62520000Y-89500000D03*
D12*
X67600000Y-89500000D03*
D11*
X72680000Y-89500000D03*
D13*
X65060000Y-84420000D03*
X70140000Y-84420000D03*
X63790000Y-86960000D03*
X71410000Y-86960000D03*
%TD*%
D14*
%TO.C,D6*%
X44790000Y-67500000D03*
D15*
X46950000Y-67500000D03*
X50250000Y-67500000D03*
D16*
X52410000Y-67500000D03*
%TD*%
D11*
%TO.C,S17*%
X100520000Y-89500000D03*
D12*
X105600000Y-89500000D03*
D11*
X110680000Y-89500000D03*
D13*
X103060000Y-84420000D03*
X108140000Y-84420000D03*
X101790000Y-86960000D03*
X109410000Y-86960000D03*
%TD*%
D25*
%TO.C,JST1*%
X153175000Y-61980000D03*
D26*
X153175000Y-63980000D03*
%TD*%
D11*
%TO.C,S7*%
X43520000Y-57500000D03*
D12*
X48600000Y-57500000D03*
D11*
X53680000Y-57500000D03*
D13*
X46060000Y-52420000D03*
X51140000Y-52420000D03*
X44790000Y-54960000D03*
X52410000Y-54960000D03*
%TD*%
D14*
%TO.C,D12*%
X63790000Y-23500000D03*
D15*
X65950000Y-23500000D03*
X69250000Y-23500000D03*
D16*
X71410000Y-23500000D03*
%TD*%
D14*
%TO.C,D20*%
X101790000Y-23500000D03*
D15*
X103950000Y-23500000D03*
X107250000Y-23500000D03*
D16*
X109410000Y-23500000D03*
%TD*%
D14*
%TO.C,D26*%
X82690000Y-99500000D03*
D15*
X84850000Y-99500000D03*
X88150000Y-99500000D03*
D16*
X90310000Y-99500000D03*
%TD*%
D11*
%TO.C,S12*%
X62520000Y-32500000D03*
D12*
X67600000Y-32500000D03*
D11*
X72680000Y-32500000D03*
D13*
X65060000Y-27420000D03*
X70140000Y-27420000D03*
X63790000Y-29960000D03*
X71410000Y-29960000D03*
%TD*%
D27*
%TO.C,D28*%
X123488900Y-99202185D03*
D28*
X125640681Y-99390441D03*
X128928123Y-99678055D03*
D16*
X131079904Y-99866311D03*
%TD*%
D11*
%TO.C,S20*%
X100520000Y-32500000D03*
D12*
X105600000Y-32500000D03*
D11*
X110680000Y-32500000D03*
D13*
X103060000Y-27420000D03*
X108140000Y-27420000D03*
X101790000Y-29960000D03*
X109410000Y-29960000D03*
%TD*%
D11*
%TO.C,S22*%
X119520000Y-70500000D03*
D12*
X124600000Y-70500000D03*
D11*
X129680000Y-70500000D03*
D13*
X122060000Y-65420000D03*
X127140000Y-65420000D03*
X120790000Y-67960000D03*
X128410000Y-67960000D03*
%TD*%
D14*
%TO.C,D11*%
X63790000Y-42500000D03*
D15*
X65950000Y-42500000D03*
X69250000Y-42500000D03*
D16*
X71410000Y-42500000D03*
%TD*%
D14*
%TO.C,D1*%
X25790000Y-86500000D03*
D15*
X27950000Y-86500000D03*
X31250000Y-86500000D03*
D16*
X33410000Y-86500000D03*
%TD*%
D11*
%TO.C,S5*%
X43520000Y-95500000D03*
D12*
X48600000Y-95500000D03*
D11*
X53680000Y-95500000D03*
D13*
X46060000Y-90420000D03*
X51140000Y-90420000D03*
X44790000Y-92960000D03*
X52410000Y-92960000D03*
%TD*%
D14*
%TO.C,D24*%
X120790000Y-23500000D03*
D15*
X122950000Y-23500000D03*
X126250000Y-23500000D03*
D16*
X128410000Y-23500000D03*
%TD*%
D11*
%TO.C,S16*%
X81520000Y-29500000D03*
D12*
X86600000Y-29500000D03*
D11*
X91680000Y-29500000D03*
D13*
X84060000Y-24420000D03*
X89140000Y-24420000D03*
X82790000Y-26960000D03*
X90410000Y-26960000D03*
%TD*%
D14*
%TO.C,D21*%
X120790000Y-80500000D03*
D15*
X122950000Y-80500000D03*
X126250000Y-80500000D03*
D16*
X128410000Y-80500000D03*
%TD*%
D11*
%TO.C,S25*%
X138520000Y-83500000D03*
D12*
X143600000Y-83500000D03*
D11*
X148680000Y-83500000D03*
D13*
X141060000Y-78420000D03*
X146140000Y-78420000D03*
X139790000Y-80960000D03*
X147410000Y-80960000D03*
%TD*%
D14*
%TO.C,D5*%
X44790000Y-86500000D03*
D15*
X46950000Y-86500000D03*
X50250000Y-86500000D03*
D16*
X52410000Y-86500000D03*
%TD*%
D14*
%TO.C,D10*%
X63790000Y-61500000D03*
D15*
X65950000Y-61500000D03*
X69250000Y-61500000D03*
D16*
X71410000Y-61500000D03*
%TD*%
D11*
%TO.C,S19*%
X100520000Y-51500000D03*
D12*
X105600000Y-51500000D03*
D11*
X110680000Y-51500000D03*
D13*
X103060000Y-46420000D03*
X108140000Y-46420000D03*
X101790000Y-48960000D03*
X109410000Y-48960000D03*
%TD*%
D11*
%TO.C,S8*%
X43520000Y-38500000D03*
D12*
X48600000Y-38500000D03*
D11*
X53680000Y-38500000D03*
D13*
X46060000Y-33420000D03*
X51140000Y-33420000D03*
X44790000Y-35960000D03*
X52410000Y-35960000D03*
%TD*%
M02*
