%TF.GenerationSoftware,KiCad,Pcbnew,9.0.5*%
%TF.CreationDate,2025-11-01T14:53:46+08:00*%
%TF.ProjectId,main,6d61696e-2e6b-4696-9361-645f70636258,v1.0.0*%
%TF.SameCoordinates,Original*%
%TF.FileFunction,Legend,Bot*%
%TF.FilePolarity,Positive*%
%FSLAX46Y46*%
G04 Gerber Fmt 4.6, Leading zero omitted, Abs format (unit mm)*
G04 Created by KiCad (PCBNEW 9.0.5) date 2025-11-01 14:53:46*
%MOMM*%
%LPD*%
G01*
G04 APERTURE LIST*
%ADD10C,0.150000*%
%ADD11C,0.100000*%
%ADD12C,0.120000*%
G04 APERTURE END LIST*
D10*
X144253094Y-39954819D02*
X144253094Y-38954819D01*
X144253094Y-38954819D02*
X143872142Y-38954819D01*
X143872142Y-38954819D02*
X143776904Y-39002438D01*
X143776904Y-39002438D02*
X143729285Y-39050057D01*
X143729285Y-39050057D02*
X143681666Y-39145295D01*
X143681666Y-39145295D02*
X143681666Y-39288152D01*
X143681666Y-39288152D02*
X143729285Y-39383390D01*
X143729285Y-39383390D02*
X143776904Y-39431009D01*
X143776904Y-39431009D02*
X143872142Y-39478628D01*
X143872142Y-39478628D02*
X144253094Y-39478628D01*
X143348332Y-38954819D02*
X142729285Y-38954819D01*
X142729285Y-38954819D02*
X143062618Y-39335771D01*
X143062618Y-39335771D02*
X142919761Y-39335771D01*
X142919761Y-39335771D02*
X142824523Y-39383390D01*
X142824523Y-39383390D02*
X142776904Y-39431009D01*
X142776904Y-39431009D02*
X142729285Y-39526247D01*
X142729285Y-39526247D02*
X142729285Y-39764342D01*
X142729285Y-39764342D02*
X142776904Y-39859580D01*
X142776904Y-39859580D02*
X142824523Y-39907200D01*
X142824523Y-39907200D02*
X142919761Y-39954819D01*
X142919761Y-39954819D02*
X143205475Y-39954819D01*
X143205475Y-39954819D02*
X143300713Y-39907200D01*
X143300713Y-39907200D02*
X143348332Y-39859580D01*
X148219285Y-50114819D02*
X148219285Y-49114819D01*
X148219285Y-49114819D02*
X147838333Y-49114819D01*
X147838333Y-49114819D02*
X147743095Y-49162438D01*
X147743095Y-49162438D02*
X147695476Y-49210057D01*
X147695476Y-49210057D02*
X147647857Y-49305295D01*
X147647857Y-49305295D02*
X147647857Y-49448152D01*
X147647857Y-49448152D02*
X147695476Y-49543390D01*
X147695476Y-49543390D02*
X147743095Y-49591009D01*
X147743095Y-49591009D02*
X147838333Y-49638628D01*
X147838333Y-49638628D02*
X148219285Y-49638628D01*
X146695476Y-50114819D02*
X147266904Y-50114819D01*
X146981190Y-50114819D02*
X146981190Y-49114819D01*
X146981190Y-49114819D02*
X147076428Y-49257676D01*
X147076428Y-49257676D02*
X147171666Y-49352914D01*
X147171666Y-49352914D02*
X147266904Y-49400533D01*
X145838333Y-49448152D02*
X145838333Y-50114819D01*
X146076428Y-49067200D02*
X146314523Y-49781485D01*
X146314523Y-49781485D02*
X145695476Y-49781485D01*
X144253094Y-50114819D02*
X144253094Y-49114819D01*
X144253094Y-49114819D02*
X143872142Y-49114819D01*
X143872142Y-49114819D02*
X143776904Y-49162438D01*
X143776904Y-49162438D02*
X143729285Y-49210057D01*
X143729285Y-49210057D02*
X143681666Y-49305295D01*
X143681666Y-49305295D02*
X143681666Y-49448152D01*
X143681666Y-49448152D02*
X143729285Y-49543390D01*
X143729285Y-49543390D02*
X143776904Y-49591009D01*
X143776904Y-49591009D02*
X143872142Y-49638628D01*
X143872142Y-49638628D02*
X144253094Y-49638628D01*
X143348332Y-49114819D02*
X142681666Y-49114819D01*
X142681666Y-49114819D02*
X143110237Y-50114819D01*
X148219285Y-42494819D02*
X148219285Y-41494819D01*
X148219285Y-41494819D02*
X147838333Y-41494819D01*
X147838333Y-41494819D02*
X147743095Y-41542438D01*
X147743095Y-41542438D02*
X147695476Y-41590057D01*
X147695476Y-41590057D02*
X147647857Y-41685295D01*
X147647857Y-41685295D02*
X147647857Y-41828152D01*
X147647857Y-41828152D02*
X147695476Y-41923390D01*
X147695476Y-41923390D02*
X147743095Y-41971009D01*
X147743095Y-41971009D02*
X147838333Y-42018628D01*
X147838333Y-42018628D02*
X148219285Y-42018628D01*
X146695476Y-42494819D02*
X147266904Y-42494819D01*
X146981190Y-42494819D02*
X146981190Y-41494819D01*
X146981190Y-41494819D02*
X147076428Y-41637676D01*
X147076428Y-41637676D02*
X147171666Y-41732914D01*
X147171666Y-41732914D02*
X147266904Y-41780533D01*
X146219285Y-42494819D02*
X146028809Y-42494819D01*
X146028809Y-42494819D02*
X145933571Y-42447200D01*
X145933571Y-42447200D02*
X145885952Y-42399580D01*
X145885952Y-42399580D02*
X145790714Y-42256723D01*
X145790714Y-42256723D02*
X145743095Y-42066247D01*
X145743095Y-42066247D02*
X145743095Y-41685295D01*
X145743095Y-41685295D02*
X145790714Y-41590057D01*
X145790714Y-41590057D02*
X145838333Y-41542438D01*
X145838333Y-41542438D02*
X145933571Y-41494819D01*
X145933571Y-41494819D02*
X146124047Y-41494819D01*
X146124047Y-41494819D02*
X146219285Y-41542438D01*
X146219285Y-41542438D02*
X146266904Y-41590057D01*
X146266904Y-41590057D02*
X146314523Y-41685295D01*
X146314523Y-41685295D02*
X146314523Y-41923390D01*
X146314523Y-41923390D02*
X146266904Y-42018628D01*
X146266904Y-42018628D02*
X146219285Y-42066247D01*
X146219285Y-42066247D02*
X146124047Y-42113866D01*
X146124047Y-42113866D02*
X145933571Y-42113866D01*
X145933571Y-42113866D02*
X145838333Y-42066247D01*
X145838333Y-42066247D02*
X145790714Y-42018628D01*
X145790714Y-42018628D02*
X145743095Y-41923390D01*
X153697858Y-24709819D02*
X154174048Y-24709819D01*
X154174048Y-24709819D02*
X154174048Y-23709819D01*
X152602619Y-24709819D02*
X152602619Y-23709819D01*
X152174048Y-24709819D02*
X152174048Y-24186009D01*
X152174048Y-24186009D02*
X152221667Y-24090771D01*
X152221667Y-24090771D02*
X152316905Y-24043152D01*
X152316905Y-24043152D02*
X152459762Y-24043152D01*
X152459762Y-24043152D02*
X152555000Y-24090771D01*
X152555000Y-24090771D02*
X152602619Y-24138390D01*
X151269286Y-24709819D02*
X151269286Y-24186009D01*
X151269286Y-24186009D02*
X151316905Y-24090771D01*
X151316905Y-24090771D02*
X151412143Y-24043152D01*
X151412143Y-24043152D02*
X151602619Y-24043152D01*
X151602619Y-24043152D02*
X151697857Y-24090771D01*
X151269286Y-24662200D02*
X151364524Y-24709819D01*
X151364524Y-24709819D02*
X151602619Y-24709819D01*
X151602619Y-24709819D02*
X151697857Y-24662200D01*
X151697857Y-24662200D02*
X151745476Y-24566961D01*
X151745476Y-24566961D02*
X151745476Y-24471723D01*
X151745476Y-24471723D02*
X151697857Y-24376485D01*
X151697857Y-24376485D02*
X151602619Y-24328866D01*
X151602619Y-24328866D02*
X151364524Y-24328866D01*
X151364524Y-24328866D02*
X151269286Y-24281247D01*
X150793095Y-24043152D02*
X150793095Y-24709819D01*
X150793095Y-24138390D02*
X150745476Y-24090771D01*
X150745476Y-24090771D02*
X150650238Y-24043152D01*
X150650238Y-24043152D02*
X150507381Y-24043152D01*
X150507381Y-24043152D02*
X150412143Y-24090771D01*
X150412143Y-24090771D02*
X150364524Y-24186009D01*
X150364524Y-24186009D02*
X150364524Y-24709819D01*
X149459762Y-24709819D02*
X149459762Y-23709819D01*
X149459762Y-24662200D02*
X149555000Y-24709819D01*
X149555000Y-24709819D02*
X149745476Y-24709819D01*
X149745476Y-24709819D02*
X149840714Y-24662200D01*
X149840714Y-24662200D02*
X149888333Y-24614580D01*
X149888333Y-24614580D02*
X149935952Y-24519342D01*
X149935952Y-24519342D02*
X149935952Y-24233628D01*
X149935952Y-24233628D02*
X149888333Y-24138390D01*
X149888333Y-24138390D02*
X149840714Y-24090771D01*
X149840714Y-24090771D02*
X149745476Y-24043152D01*
X149745476Y-24043152D02*
X149555000Y-24043152D01*
X149555000Y-24043152D02*
X149459762Y-24090771D01*
X148221666Y-24709819D02*
X148221666Y-23709819D01*
X148221666Y-24090771D02*
X148126428Y-24043152D01*
X148126428Y-24043152D02*
X147935952Y-24043152D01*
X147935952Y-24043152D02*
X147840714Y-24090771D01*
X147840714Y-24090771D02*
X147793095Y-24138390D01*
X147793095Y-24138390D02*
X147745476Y-24233628D01*
X147745476Y-24233628D02*
X147745476Y-24519342D01*
X147745476Y-24519342D02*
X147793095Y-24614580D01*
X147793095Y-24614580D02*
X147840714Y-24662200D01*
X147840714Y-24662200D02*
X147935952Y-24709819D01*
X147935952Y-24709819D02*
X148126428Y-24709819D01*
X148126428Y-24709819D02*
X148221666Y-24662200D01*
X146888333Y-24709819D02*
X146888333Y-24186009D01*
X146888333Y-24186009D02*
X146935952Y-24090771D01*
X146935952Y-24090771D02*
X147031190Y-24043152D01*
X147031190Y-24043152D02*
X147221666Y-24043152D01*
X147221666Y-24043152D02*
X147316904Y-24090771D01*
X146888333Y-24662200D02*
X146983571Y-24709819D01*
X146983571Y-24709819D02*
X147221666Y-24709819D01*
X147221666Y-24709819D02*
X147316904Y-24662200D01*
X147316904Y-24662200D02*
X147364523Y-24566961D01*
X147364523Y-24566961D02*
X147364523Y-24471723D01*
X147364523Y-24471723D02*
X147316904Y-24376485D01*
X147316904Y-24376485D02*
X147221666Y-24328866D01*
X147221666Y-24328866D02*
X146983571Y-24328866D01*
X146983571Y-24328866D02*
X146888333Y-24281247D01*
X145983571Y-24662200D02*
X146078809Y-24709819D01*
X146078809Y-24709819D02*
X146269285Y-24709819D01*
X146269285Y-24709819D02*
X146364523Y-24662200D01*
X146364523Y-24662200D02*
X146412142Y-24614580D01*
X146412142Y-24614580D02*
X146459761Y-24519342D01*
X146459761Y-24519342D02*
X146459761Y-24233628D01*
X146459761Y-24233628D02*
X146412142Y-24138390D01*
X146412142Y-24138390D02*
X146364523Y-24090771D01*
X146364523Y-24090771D02*
X146269285Y-24043152D01*
X146269285Y-24043152D02*
X146078809Y-24043152D01*
X146078809Y-24043152D02*
X145983571Y-24090771D01*
X145554999Y-24709819D02*
X145554999Y-23709819D01*
X145459761Y-24328866D02*
X145174047Y-24709819D01*
X145174047Y-24043152D02*
X145554999Y-24424104D01*
X144031189Y-24662200D02*
X143935951Y-24709819D01*
X143935951Y-24709819D02*
X143745475Y-24709819D01*
X143745475Y-24709819D02*
X143650237Y-24662200D01*
X143650237Y-24662200D02*
X143602618Y-24566961D01*
X143602618Y-24566961D02*
X143602618Y-24519342D01*
X143602618Y-24519342D02*
X143650237Y-24424104D01*
X143650237Y-24424104D02*
X143745475Y-24376485D01*
X143745475Y-24376485D02*
X143888332Y-24376485D01*
X143888332Y-24376485D02*
X143983570Y-24328866D01*
X143983570Y-24328866D02*
X144031189Y-24233628D01*
X144031189Y-24233628D02*
X144031189Y-24186009D01*
X144031189Y-24186009D02*
X143983570Y-24090771D01*
X143983570Y-24090771D02*
X143888332Y-24043152D01*
X143888332Y-24043152D02*
X143745475Y-24043152D01*
X143745475Y-24043152D02*
X143650237Y-24090771D01*
X143174046Y-24709819D02*
X143174046Y-24043152D01*
X143174046Y-23709819D02*
X143221665Y-23757438D01*
X143221665Y-23757438D02*
X143174046Y-23805057D01*
X143174046Y-23805057D02*
X143126427Y-23757438D01*
X143126427Y-23757438D02*
X143174046Y-23709819D01*
X143174046Y-23709819D02*
X143174046Y-23805057D01*
X142269285Y-24709819D02*
X142269285Y-23709819D01*
X142269285Y-24662200D02*
X142364523Y-24709819D01*
X142364523Y-24709819D02*
X142554999Y-24709819D01*
X142554999Y-24709819D02*
X142650237Y-24662200D01*
X142650237Y-24662200D02*
X142697856Y-24614580D01*
X142697856Y-24614580D02*
X142745475Y-24519342D01*
X142745475Y-24519342D02*
X142745475Y-24233628D01*
X142745475Y-24233628D02*
X142697856Y-24138390D01*
X142697856Y-24138390D02*
X142650237Y-24090771D01*
X142650237Y-24090771D02*
X142554999Y-24043152D01*
X142554999Y-24043152D02*
X142364523Y-24043152D01*
X142364523Y-24043152D02*
X142269285Y-24090771D01*
X141412142Y-24662200D02*
X141507380Y-24709819D01*
X141507380Y-24709819D02*
X141697856Y-24709819D01*
X141697856Y-24709819D02*
X141793094Y-24662200D01*
X141793094Y-24662200D02*
X141840713Y-24566961D01*
X141840713Y-24566961D02*
X141840713Y-24186009D01*
X141840713Y-24186009D02*
X141793094Y-24090771D01*
X141793094Y-24090771D02*
X141697856Y-24043152D01*
X141697856Y-24043152D02*
X141507380Y-24043152D01*
X141507380Y-24043152D02*
X141412142Y-24090771D01*
X141412142Y-24090771D02*
X141364523Y-24186009D01*
X141364523Y-24186009D02*
X141364523Y-24281247D01*
X141364523Y-24281247D02*
X141840713Y-24376485D01*
X139888332Y-25090771D02*
X139935951Y-25043152D01*
X139935951Y-25043152D02*
X140031189Y-24900295D01*
X140031189Y-24900295D02*
X140078808Y-24805057D01*
X140078808Y-24805057D02*
X140126427Y-24662200D01*
X140126427Y-24662200D02*
X140174046Y-24424104D01*
X140174046Y-24424104D02*
X140174046Y-24233628D01*
X140174046Y-24233628D02*
X140126427Y-23995533D01*
X140126427Y-23995533D02*
X140078808Y-23852676D01*
X140078808Y-23852676D02*
X140031189Y-23757438D01*
X140031189Y-23757438D02*
X139935951Y-23614580D01*
X139935951Y-23614580D02*
X139888332Y-23566961D01*
X139507379Y-24709819D02*
X139507379Y-23709819D01*
X139507379Y-23709819D02*
X139174046Y-24424104D01*
X139174046Y-24424104D02*
X138840713Y-23709819D01*
X138840713Y-23709819D02*
X138840713Y-24709819D01*
X137983570Y-24709819D02*
X137983570Y-23947914D01*
X138174046Y-24138390D02*
X137983570Y-23947914D01*
X137983570Y-23947914D02*
X137793094Y-24138390D01*
X137221665Y-25090771D02*
X137174046Y-25043152D01*
X137174046Y-25043152D02*
X137078808Y-24900295D01*
X137078808Y-24900295D02*
X137031189Y-24805057D01*
X137031189Y-24805057D02*
X136983570Y-24662200D01*
X136983570Y-24662200D02*
X136935951Y-24424104D01*
X136935951Y-24424104D02*
X136935951Y-24233628D01*
X136935951Y-24233628D02*
X136983570Y-23995533D01*
X136983570Y-23995533D02*
X137031189Y-23852676D01*
X137031189Y-23852676D02*
X137078808Y-23757438D01*
X137078808Y-23757438D02*
X137174046Y-23614580D01*
X137174046Y-23614580D02*
X137221665Y-23566961D01*
X144253094Y-42494819D02*
X144253094Y-41494819D01*
X144253094Y-41494819D02*
X143872142Y-41494819D01*
X143872142Y-41494819D02*
X143776904Y-41542438D01*
X143776904Y-41542438D02*
X143729285Y-41590057D01*
X143729285Y-41590057D02*
X143681666Y-41685295D01*
X143681666Y-41685295D02*
X143681666Y-41828152D01*
X143681666Y-41828152D02*
X143729285Y-41923390D01*
X143729285Y-41923390D02*
X143776904Y-41971009D01*
X143776904Y-41971009D02*
X143872142Y-42018628D01*
X143872142Y-42018628D02*
X144253094Y-42018628D01*
X142824523Y-41828152D02*
X142824523Y-42494819D01*
X143062618Y-41447200D02*
X143300713Y-42161485D01*
X143300713Y-42161485D02*
X142681666Y-42161485D01*
X144253094Y-29794819D02*
X144253094Y-28794819D01*
X144253094Y-28794819D02*
X143872142Y-28794819D01*
X143872142Y-28794819D02*
X143776904Y-28842438D01*
X143776904Y-28842438D02*
X143729285Y-28890057D01*
X143729285Y-28890057D02*
X143681666Y-28985295D01*
X143681666Y-28985295D02*
X143681666Y-29128152D01*
X143681666Y-29128152D02*
X143729285Y-29223390D01*
X143729285Y-29223390D02*
X143776904Y-29271009D01*
X143776904Y-29271009D02*
X143872142Y-29318628D01*
X143872142Y-29318628D02*
X144253094Y-29318628D01*
X143062618Y-28794819D02*
X142967380Y-28794819D01*
X142967380Y-28794819D02*
X142872142Y-28842438D01*
X142872142Y-28842438D02*
X142824523Y-28890057D01*
X142824523Y-28890057D02*
X142776904Y-28985295D01*
X142776904Y-28985295D02*
X142729285Y-29175771D01*
X142729285Y-29175771D02*
X142729285Y-29413866D01*
X142729285Y-29413866D02*
X142776904Y-29604342D01*
X142776904Y-29604342D02*
X142824523Y-29699580D01*
X142824523Y-29699580D02*
X142872142Y-29747200D01*
X142872142Y-29747200D02*
X142967380Y-29794819D01*
X142967380Y-29794819D02*
X143062618Y-29794819D01*
X143062618Y-29794819D02*
X143157856Y-29747200D01*
X143157856Y-29747200D02*
X143205475Y-29699580D01*
X143205475Y-29699580D02*
X143253094Y-29604342D01*
X143253094Y-29604342D02*
X143300713Y-29413866D01*
X143300713Y-29413866D02*
X143300713Y-29175771D01*
X143300713Y-29175771D02*
X143253094Y-28985295D01*
X143253094Y-28985295D02*
X143205475Y-28890057D01*
X143205475Y-28890057D02*
X143157856Y-28842438D01*
X143157856Y-28842438D02*
X143062618Y-28794819D01*
X148219285Y-55194819D02*
X148219285Y-54194819D01*
X148219285Y-54194819D02*
X147838333Y-54194819D01*
X147838333Y-54194819D02*
X147743095Y-54242438D01*
X147743095Y-54242438D02*
X147695476Y-54290057D01*
X147695476Y-54290057D02*
X147647857Y-54385295D01*
X147647857Y-54385295D02*
X147647857Y-54528152D01*
X147647857Y-54528152D02*
X147695476Y-54623390D01*
X147695476Y-54623390D02*
X147743095Y-54671009D01*
X147743095Y-54671009D02*
X147838333Y-54718628D01*
X147838333Y-54718628D02*
X148219285Y-54718628D01*
X146695476Y-55194819D02*
X147266904Y-55194819D01*
X146981190Y-55194819D02*
X146981190Y-54194819D01*
X146981190Y-54194819D02*
X147076428Y-54337676D01*
X147076428Y-54337676D02*
X147171666Y-54432914D01*
X147171666Y-54432914D02*
X147266904Y-54480533D01*
X146076428Y-54194819D02*
X145981190Y-54194819D01*
X145981190Y-54194819D02*
X145885952Y-54242438D01*
X145885952Y-54242438D02*
X145838333Y-54290057D01*
X145838333Y-54290057D02*
X145790714Y-54385295D01*
X145790714Y-54385295D02*
X145743095Y-54575771D01*
X145743095Y-54575771D02*
X145743095Y-54813866D01*
X145743095Y-54813866D02*
X145790714Y-55004342D01*
X145790714Y-55004342D02*
X145838333Y-55099580D01*
X145838333Y-55099580D02*
X145885952Y-55147200D01*
X145885952Y-55147200D02*
X145981190Y-55194819D01*
X145981190Y-55194819D02*
X146076428Y-55194819D01*
X146076428Y-55194819D02*
X146171666Y-55147200D01*
X146171666Y-55147200D02*
X146219285Y-55099580D01*
X146219285Y-55099580D02*
X146266904Y-55004342D01*
X146266904Y-55004342D02*
X146314523Y-54813866D01*
X146314523Y-54813866D02*
X146314523Y-54575771D01*
X146314523Y-54575771D02*
X146266904Y-54385295D01*
X146266904Y-54385295D02*
X146219285Y-54290057D01*
X146219285Y-54290057D02*
X146171666Y-54242438D01*
X146171666Y-54242438D02*
X146076428Y-54194819D01*
X144866904Y-31382438D02*
X144962142Y-31334819D01*
X144962142Y-31334819D02*
X145104999Y-31334819D01*
X145104999Y-31334819D02*
X145247856Y-31382438D01*
X145247856Y-31382438D02*
X145343094Y-31477676D01*
X145343094Y-31477676D02*
X145390713Y-31572914D01*
X145390713Y-31572914D02*
X145438332Y-31763390D01*
X145438332Y-31763390D02*
X145438332Y-31906247D01*
X145438332Y-31906247D02*
X145390713Y-32096723D01*
X145390713Y-32096723D02*
X145343094Y-32191961D01*
X145343094Y-32191961D02*
X145247856Y-32287200D01*
X145247856Y-32287200D02*
X145104999Y-32334819D01*
X145104999Y-32334819D02*
X145009761Y-32334819D01*
X145009761Y-32334819D02*
X144866904Y-32287200D01*
X144866904Y-32287200D02*
X144819285Y-32239580D01*
X144819285Y-32239580D02*
X144819285Y-31906247D01*
X144819285Y-31906247D02*
X145009761Y-31906247D01*
X144390713Y-32334819D02*
X144390713Y-31334819D01*
X144390713Y-31334819D02*
X143819285Y-32334819D01*
X143819285Y-32334819D02*
X143819285Y-31334819D01*
X143343094Y-32334819D02*
X143343094Y-31334819D01*
X143343094Y-31334819D02*
X143104999Y-31334819D01*
X143104999Y-31334819D02*
X142962142Y-31382438D01*
X142962142Y-31382438D02*
X142866904Y-31477676D01*
X142866904Y-31477676D02*
X142819285Y-31572914D01*
X142819285Y-31572914D02*
X142771666Y-31763390D01*
X142771666Y-31763390D02*
X142771666Y-31906247D01*
X142771666Y-31906247D02*
X142819285Y-32096723D01*
X142819285Y-32096723D02*
X142866904Y-32191961D01*
X142866904Y-32191961D02*
X142962142Y-32287200D01*
X142962142Y-32287200D02*
X143104999Y-32334819D01*
X143104999Y-32334819D02*
X143343094Y-32334819D01*
X144253094Y-47574819D02*
X144253094Y-46574819D01*
X144253094Y-46574819D02*
X143872142Y-46574819D01*
X143872142Y-46574819D02*
X143776904Y-46622438D01*
X143776904Y-46622438D02*
X143729285Y-46670057D01*
X143729285Y-46670057D02*
X143681666Y-46765295D01*
X143681666Y-46765295D02*
X143681666Y-46908152D01*
X143681666Y-46908152D02*
X143729285Y-47003390D01*
X143729285Y-47003390D02*
X143776904Y-47051009D01*
X143776904Y-47051009D02*
X143872142Y-47098628D01*
X143872142Y-47098628D02*
X144253094Y-47098628D01*
X142824523Y-46574819D02*
X143014999Y-46574819D01*
X143014999Y-46574819D02*
X143110237Y-46622438D01*
X143110237Y-46622438D02*
X143157856Y-46670057D01*
X143157856Y-46670057D02*
X143253094Y-46812914D01*
X143253094Y-46812914D02*
X143300713Y-47003390D01*
X143300713Y-47003390D02*
X143300713Y-47384342D01*
X143300713Y-47384342D02*
X143253094Y-47479580D01*
X143253094Y-47479580D02*
X143205475Y-47527200D01*
X143205475Y-47527200D02*
X143110237Y-47574819D01*
X143110237Y-47574819D02*
X142919761Y-47574819D01*
X142919761Y-47574819D02*
X142824523Y-47527200D01*
X142824523Y-47527200D02*
X142776904Y-47479580D01*
X142776904Y-47479580D02*
X142729285Y-47384342D01*
X142729285Y-47384342D02*
X142729285Y-47146247D01*
X142729285Y-47146247D02*
X142776904Y-47051009D01*
X142776904Y-47051009D02*
X142824523Y-47003390D01*
X142824523Y-47003390D02*
X142919761Y-46955771D01*
X142919761Y-46955771D02*
X143110237Y-46955771D01*
X143110237Y-46955771D02*
X143205475Y-47003390D01*
X143205475Y-47003390D02*
X143253094Y-47051009D01*
X143253094Y-47051009D02*
X143300713Y-47146247D01*
X144866904Y-33922438D02*
X144962142Y-33874819D01*
X144962142Y-33874819D02*
X145104999Y-33874819D01*
X145104999Y-33874819D02*
X145247856Y-33922438D01*
X145247856Y-33922438D02*
X145343094Y-34017676D01*
X145343094Y-34017676D02*
X145390713Y-34112914D01*
X145390713Y-34112914D02*
X145438332Y-34303390D01*
X145438332Y-34303390D02*
X145438332Y-34446247D01*
X145438332Y-34446247D02*
X145390713Y-34636723D01*
X145390713Y-34636723D02*
X145343094Y-34731961D01*
X145343094Y-34731961D02*
X145247856Y-34827200D01*
X145247856Y-34827200D02*
X145104999Y-34874819D01*
X145104999Y-34874819D02*
X145009761Y-34874819D01*
X145009761Y-34874819D02*
X144866904Y-34827200D01*
X144866904Y-34827200D02*
X144819285Y-34779580D01*
X144819285Y-34779580D02*
X144819285Y-34446247D01*
X144819285Y-34446247D02*
X145009761Y-34446247D01*
X144390713Y-34874819D02*
X144390713Y-33874819D01*
X144390713Y-33874819D02*
X143819285Y-34874819D01*
X143819285Y-34874819D02*
X143819285Y-33874819D01*
X143343094Y-34874819D02*
X143343094Y-33874819D01*
X143343094Y-33874819D02*
X143104999Y-33874819D01*
X143104999Y-33874819D02*
X142962142Y-33922438D01*
X142962142Y-33922438D02*
X142866904Y-34017676D01*
X142866904Y-34017676D02*
X142819285Y-34112914D01*
X142819285Y-34112914D02*
X142771666Y-34303390D01*
X142771666Y-34303390D02*
X142771666Y-34446247D01*
X142771666Y-34446247D02*
X142819285Y-34636723D01*
X142819285Y-34636723D02*
X142866904Y-34731961D01*
X142866904Y-34731961D02*
X142962142Y-34827200D01*
X142962142Y-34827200D02*
X143104999Y-34874819D01*
X143104999Y-34874819D02*
X143343094Y-34874819D01*
X148219285Y-45034819D02*
X148219285Y-44034819D01*
X148219285Y-44034819D02*
X147838333Y-44034819D01*
X147838333Y-44034819D02*
X147743095Y-44082438D01*
X147743095Y-44082438D02*
X147695476Y-44130057D01*
X147695476Y-44130057D02*
X147647857Y-44225295D01*
X147647857Y-44225295D02*
X147647857Y-44368152D01*
X147647857Y-44368152D02*
X147695476Y-44463390D01*
X147695476Y-44463390D02*
X147743095Y-44511009D01*
X147743095Y-44511009D02*
X147838333Y-44558628D01*
X147838333Y-44558628D02*
X148219285Y-44558628D01*
X146695476Y-45034819D02*
X147266904Y-45034819D01*
X146981190Y-45034819D02*
X146981190Y-44034819D01*
X146981190Y-44034819D02*
X147076428Y-44177676D01*
X147076428Y-44177676D02*
X147171666Y-44272914D01*
X147171666Y-44272914D02*
X147266904Y-44320533D01*
X146124047Y-44463390D02*
X146219285Y-44415771D01*
X146219285Y-44415771D02*
X146266904Y-44368152D01*
X146266904Y-44368152D02*
X146314523Y-44272914D01*
X146314523Y-44272914D02*
X146314523Y-44225295D01*
X146314523Y-44225295D02*
X146266904Y-44130057D01*
X146266904Y-44130057D02*
X146219285Y-44082438D01*
X146219285Y-44082438D02*
X146124047Y-44034819D01*
X146124047Y-44034819D02*
X145933571Y-44034819D01*
X145933571Y-44034819D02*
X145838333Y-44082438D01*
X145838333Y-44082438D02*
X145790714Y-44130057D01*
X145790714Y-44130057D02*
X145743095Y-44225295D01*
X145743095Y-44225295D02*
X145743095Y-44272914D01*
X145743095Y-44272914D02*
X145790714Y-44368152D01*
X145790714Y-44368152D02*
X145838333Y-44415771D01*
X145838333Y-44415771D02*
X145933571Y-44463390D01*
X145933571Y-44463390D02*
X146124047Y-44463390D01*
X146124047Y-44463390D02*
X146219285Y-44511009D01*
X146219285Y-44511009D02*
X146266904Y-44558628D01*
X146266904Y-44558628D02*
X146314523Y-44653866D01*
X146314523Y-44653866D02*
X146314523Y-44844342D01*
X146314523Y-44844342D02*
X146266904Y-44939580D01*
X146266904Y-44939580D02*
X146219285Y-44987200D01*
X146219285Y-44987200D02*
X146124047Y-45034819D01*
X146124047Y-45034819D02*
X145933571Y-45034819D01*
X145933571Y-45034819D02*
X145838333Y-44987200D01*
X145838333Y-44987200D02*
X145790714Y-44939580D01*
X145790714Y-44939580D02*
X145743095Y-44844342D01*
X145743095Y-44844342D02*
X145743095Y-44653866D01*
X145743095Y-44653866D02*
X145790714Y-44558628D01*
X145790714Y-44558628D02*
X145838333Y-44511009D01*
X145838333Y-44511009D02*
X145933571Y-44463390D01*
X144253094Y-45034819D02*
X144253094Y-44034819D01*
X144253094Y-44034819D02*
X143872142Y-44034819D01*
X143872142Y-44034819D02*
X143776904Y-44082438D01*
X143776904Y-44082438D02*
X143729285Y-44130057D01*
X143729285Y-44130057D02*
X143681666Y-44225295D01*
X143681666Y-44225295D02*
X143681666Y-44368152D01*
X143681666Y-44368152D02*
X143729285Y-44463390D01*
X143729285Y-44463390D02*
X143776904Y-44511009D01*
X143776904Y-44511009D02*
X143872142Y-44558628D01*
X143872142Y-44558628D02*
X144253094Y-44558628D01*
X142776904Y-44034819D02*
X143253094Y-44034819D01*
X143253094Y-44034819D02*
X143300713Y-44511009D01*
X143300713Y-44511009D02*
X143253094Y-44463390D01*
X143253094Y-44463390D02*
X143157856Y-44415771D01*
X143157856Y-44415771D02*
X142919761Y-44415771D01*
X142919761Y-44415771D02*
X142824523Y-44463390D01*
X142824523Y-44463390D02*
X142776904Y-44511009D01*
X142776904Y-44511009D02*
X142729285Y-44606247D01*
X142729285Y-44606247D02*
X142729285Y-44844342D01*
X142729285Y-44844342D02*
X142776904Y-44939580D01*
X142776904Y-44939580D02*
X142824523Y-44987200D01*
X142824523Y-44987200D02*
X142919761Y-45034819D01*
X142919761Y-45034819D02*
X143157856Y-45034819D01*
X143157856Y-45034819D02*
X143253094Y-44987200D01*
X143253094Y-44987200D02*
X143300713Y-44939580D01*
X144253094Y-27254819D02*
X144253094Y-26254819D01*
X144253094Y-26254819D02*
X143872142Y-26254819D01*
X143872142Y-26254819D02*
X143776904Y-26302438D01*
X143776904Y-26302438D02*
X143729285Y-26350057D01*
X143729285Y-26350057D02*
X143681666Y-26445295D01*
X143681666Y-26445295D02*
X143681666Y-26588152D01*
X143681666Y-26588152D02*
X143729285Y-26683390D01*
X143729285Y-26683390D02*
X143776904Y-26731009D01*
X143776904Y-26731009D02*
X143872142Y-26778628D01*
X143872142Y-26778628D02*
X144253094Y-26778628D01*
X142729285Y-27254819D02*
X143300713Y-27254819D01*
X143014999Y-27254819D02*
X143014999Y-26254819D01*
X143014999Y-26254819D02*
X143110237Y-26397676D01*
X143110237Y-26397676D02*
X143205475Y-26492914D01*
X143205475Y-26492914D02*
X143300713Y-26540533D01*
X147695476Y-27254819D02*
X148028809Y-26778628D01*
X148266904Y-27254819D02*
X148266904Y-26254819D01*
X148266904Y-26254819D02*
X147885952Y-26254819D01*
X147885952Y-26254819D02*
X147790714Y-26302438D01*
X147790714Y-26302438D02*
X147743095Y-26350057D01*
X147743095Y-26350057D02*
X147695476Y-26445295D01*
X147695476Y-26445295D02*
X147695476Y-26588152D01*
X147695476Y-26588152D02*
X147743095Y-26683390D01*
X147743095Y-26683390D02*
X147790714Y-26731009D01*
X147790714Y-26731009D02*
X147885952Y-26778628D01*
X147885952Y-26778628D02*
X148266904Y-26778628D01*
X147314523Y-26969104D02*
X146838333Y-26969104D01*
X147409761Y-27254819D02*
X147076428Y-26254819D01*
X147076428Y-26254819D02*
X146743095Y-27254819D01*
X146504999Y-26254819D02*
X146266904Y-27254819D01*
X146266904Y-27254819D02*
X146076428Y-26540533D01*
X146076428Y-26540533D02*
X145885952Y-27254819D01*
X145885952Y-27254819D02*
X145647857Y-26254819D01*
X148219285Y-37414819D02*
X148219285Y-36414819D01*
X148219285Y-36414819D02*
X147838333Y-36414819D01*
X147838333Y-36414819D02*
X147743095Y-36462438D01*
X147743095Y-36462438D02*
X147695476Y-36510057D01*
X147695476Y-36510057D02*
X147647857Y-36605295D01*
X147647857Y-36605295D02*
X147647857Y-36748152D01*
X147647857Y-36748152D02*
X147695476Y-36843390D01*
X147695476Y-36843390D02*
X147743095Y-36891009D01*
X147743095Y-36891009D02*
X147838333Y-36938628D01*
X147838333Y-36938628D02*
X148219285Y-36938628D01*
X147266904Y-36510057D02*
X147219285Y-36462438D01*
X147219285Y-36462438D02*
X147124047Y-36414819D01*
X147124047Y-36414819D02*
X146885952Y-36414819D01*
X146885952Y-36414819D02*
X146790714Y-36462438D01*
X146790714Y-36462438D02*
X146743095Y-36510057D01*
X146743095Y-36510057D02*
X146695476Y-36605295D01*
X146695476Y-36605295D02*
X146695476Y-36700533D01*
X146695476Y-36700533D02*
X146743095Y-36843390D01*
X146743095Y-36843390D02*
X147314523Y-37414819D01*
X147314523Y-37414819D02*
X146695476Y-37414819D01*
X145743095Y-37414819D02*
X146314523Y-37414819D01*
X146028809Y-37414819D02*
X146028809Y-36414819D01*
X146028809Y-36414819D02*
X146124047Y-36557676D01*
X146124047Y-36557676D02*
X146219285Y-36652914D01*
X146219285Y-36652914D02*
X146314523Y-36700533D01*
X148219285Y-47574819D02*
X148219285Y-46574819D01*
X148219285Y-46574819D02*
X147838333Y-46574819D01*
X147838333Y-46574819D02*
X147743095Y-46622438D01*
X147743095Y-46622438D02*
X147695476Y-46670057D01*
X147695476Y-46670057D02*
X147647857Y-46765295D01*
X147647857Y-46765295D02*
X147647857Y-46908152D01*
X147647857Y-46908152D02*
X147695476Y-47003390D01*
X147695476Y-47003390D02*
X147743095Y-47051009D01*
X147743095Y-47051009D02*
X147838333Y-47098628D01*
X147838333Y-47098628D02*
X148219285Y-47098628D01*
X146695476Y-47574819D02*
X147266904Y-47574819D01*
X146981190Y-47574819D02*
X146981190Y-46574819D01*
X146981190Y-46574819D02*
X147076428Y-46717676D01*
X147076428Y-46717676D02*
X147171666Y-46812914D01*
X147171666Y-46812914D02*
X147266904Y-46860533D01*
X145790714Y-46574819D02*
X146266904Y-46574819D01*
X146266904Y-46574819D02*
X146314523Y-47051009D01*
X146314523Y-47051009D02*
X146266904Y-47003390D01*
X146266904Y-47003390D02*
X146171666Y-46955771D01*
X146171666Y-46955771D02*
X145933571Y-46955771D01*
X145933571Y-46955771D02*
X145838333Y-47003390D01*
X145838333Y-47003390D02*
X145790714Y-47051009D01*
X145790714Y-47051009D02*
X145743095Y-47146247D01*
X145743095Y-47146247D02*
X145743095Y-47384342D01*
X145743095Y-47384342D02*
X145790714Y-47479580D01*
X145790714Y-47479580D02*
X145838333Y-47527200D01*
X145838333Y-47527200D02*
X145933571Y-47574819D01*
X145933571Y-47574819D02*
X146171666Y-47574819D01*
X146171666Y-47574819D02*
X146266904Y-47527200D01*
X146266904Y-47527200D02*
X146314523Y-47479580D01*
X144253094Y-52654819D02*
X144253094Y-51654819D01*
X144253094Y-51654819D02*
X143872142Y-51654819D01*
X143872142Y-51654819D02*
X143776904Y-51702438D01*
X143776904Y-51702438D02*
X143729285Y-51750057D01*
X143729285Y-51750057D02*
X143681666Y-51845295D01*
X143681666Y-51845295D02*
X143681666Y-51988152D01*
X143681666Y-51988152D02*
X143729285Y-52083390D01*
X143729285Y-52083390D02*
X143776904Y-52131009D01*
X143776904Y-52131009D02*
X143872142Y-52178628D01*
X143872142Y-52178628D02*
X144253094Y-52178628D01*
X143110237Y-52083390D02*
X143205475Y-52035771D01*
X143205475Y-52035771D02*
X143253094Y-51988152D01*
X143253094Y-51988152D02*
X143300713Y-51892914D01*
X143300713Y-51892914D02*
X143300713Y-51845295D01*
X143300713Y-51845295D02*
X143253094Y-51750057D01*
X143253094Y-51750057D02*
X143205475Y-51702438D01*
X143205475Y-51702438D02*
X143110237Y-51654819D01*
X143110237Y-51654819D02*
X142919761Y-51654819D01*
X142919761Y-51654819D02*
X142824523Y-51702438D01*
X142824523Y-51702438D02*
X142776904Y-51750057D01*
X142776904Y-51750057D02*
X142729285Y-51845295D01*
X142729285Y-51845295D02*
X142729285Y-51892914D01*
X142729285Y-51892914D02*
X142776904Y-51988152D01*
X142776904Y-51988152D02*
X142824523Y-52035771D01*
X142824523Y-52035771D02*
X142919761Y-52083390D01*
X142919761Y-52083390D02*
X143110237Y-52083390D01*
X143110237Y-52083390D02*
X143205475Y-52131009D01*
X143205475Y-52131009D02*
X143253094Y-52178628D01*
X143253094Y-52178628D02*
X143300713Y-52273866D01*
X143300713Y-52273866D02*
X143300713Y-52464342D01*
X143300713Y-52464342D02*
X143253094Y-52559580D01*
X143253094Y-52559580D02*
X143205475Y-52607200D01*
X143205475Y-52607200D02*
X143110237Y-52654819D01*
X143110237Y-52654819D02*
X142919761Y-52654819D01*
X142919761Y-52654819D02*
X142824523Y-52607200D01*
X142824523Y-52607200D02*
X142776904Y-52559580D01*
X142776904Y-52559580D02*
X142729285Y-52464342D01*
X142729285Y-52464342D02*
X142729285Y-52273866D01*
X142729285Y-52273866D02*
X142776904Y-52178628D01*
X142776904Y-52178628D02*
X142824523Y-52131009D01*
X142824523Y-52131009D02*
X142919761Y-52083390D01*
X147552619Y-32334819D02*
X147885952Y-31858628D01*
X148124047Y-32334819D02*
X148124047Y-31334819D01*
X148124047Y-31334819D02*
X147743095Y-31334819D01*
X147743095Y-31334819D02*
X147647857Y-31382438D01*
X147647857Y-31382438D02*
X147600238Y-31430057D01*
X147600238Y-31430057D02*
X147552619Y-31525295D01*
X147552619Y-31525295D02*
X147552619Y-31668152D01*
X147552619Y-31668152D02*
X147600238Y-31763390D01*
X147600238Y-31763390D02*
X147647857Y-31811009D01*
X147647857Y-31811009D02*
X147743095Y-31858628D01*
X147743095Y-31858628D02*
X148124047Y-31858628D01*
X147171666Y-32287200D02*
X147028809Y-32334819D01*
X147028809Y-32334819D02*
X146790714Y-32334819D01*
X146790714Y-32334819D02*
X146695476Y-32287200D01*
X146695476Y-32287200D02*
X146647857Y-32239580D01*
X146647857Y-32239580D02*
X146600238Y-32144342D01*
X146600238Y-32144342D02*
X146600238Y-32049104D01*
X146600238Y-32049104D02*
X146647857Y-31953866D01*
X146647857Y-31953866D02*
X146695476Y-31906247D01*
X146695476Y-31906247D02*
X146790714Y-31858628D01*
X146790714Y-31858628D02*
X146981190Y-31811009D01*
X146981190Y-31811009D02*
X147076428Y-31763390D01*
X147076428Y-31763390D02*
X147124047Y-31715771D01*
X147124047Y-31715771D02*
X147171666Y-31620533D01*
X147171666Y-31620533D02*
X147171666Y-31525295D01*
X147171666Y-31525295D02*
X147124047Y-31430057D01*
X147124047Y-31430057D02*
X147076428Y-31382438D01*
X147076428Y-31382438D02*
X146981190Y-31334819D01*
X146981190Y-31334819D02*
X146743095Y-31334819D01*
X146743095Y-31334819D02*
X146600238Y-31382438D01*
X146314523Y-31334819D02*
X145743095Y-31334819D01*
X146028809Y-32334819D02*
X146028809Y-31334819D01*
X144253094Y-37414819D02*
X144253094Y-36414819D01*
X144253094Y-36414819D02*
X143872142Y-36414819D01*
X143872142Y-36414819D02*
X143776904Y-36462438D01*
X143776904Y-36462438D02*
X143729285Y-36510057D01*
X143729285Y-36510057D02*
X143681666Y-36605295D01*
X143681666Y-36605295D02*
X143681666Y-36748152D01*
X143681666Y-36748152D02*
X143729285Y-36843390D01*
X143729285Y-36843390D02*
X143776904Y-36891009D01*
X143776904Y-36891009D02*
X143872142Y-36938628D01*
X143872142Y-36938628D02*
X144253094Y-36938628D01*
X143300713Y-36510057D02*
X143253094Y-36462438D01*
X143253094Y-36462438D02*
X143157856Y-36414819D01*
X143157856Y-36414819D02*
X142919761Y-36414819D01*
X142919761Y-36414819D02*
X142824523Y-36462438D01*
X142824523Y-36462438D02*
X142776904Y-36510057D01*
X142776904Y-36510057D02*
X142729285Y-36605295D01*
X142729285Y-36605295D02*
X142729285Y-36700533D01*
X142729285Y-36700533D02*
X142776904Y-36843390D01*
X142776904Y-36843390D02*
X143348332Y-37414819D01*
X143348332Y-37414819D02*
X142729285Y-37414819D01*
X148219285Y-39954819D02*
X148219285Y-38954819D01*
X148219285Y-38954819D02*
X147838333Y-38954819D01*
X147838333Y-38954819D02*
X147743095Y-39002438D01*
X147743095Y-39002438D02*
X147695476Y-39050057D01*
X147695476Y-39050057D02*
X147647857Y-39145295D01*
X147647857Y-39145295D02*
X147647857Y-39288152D01*
X147647857Y-39288152D02*
X147695476Y-39383390D01*
X147695476Y-39383390D02*
X147743095Y-39431009D01*
X147743095Y-39431009D02*
X147838333Y-39478628D01*
X147838333Y-39478628D02*
X148219285Y-39478628D01*
X147266904Y-39050057D02*
X147219285Y-39002438D01*
X147219285Y-39002438D02*
X147124047Y-38954819D01*
X147124047Y-38954819D02*
X146885952Y-38954819D01*
X146885952Y-38954819D02*
X146790714Y-39002438D01*
X146790714Y-39002438D02*
X146743095Y-39050057D01*
X146743095Y-39050057D02*
X146695476Y-39145295D01*
X146695476Y-39145295D02*
X146695476Y-39240533D01*
X146695476Y-39240533D02*
X146743095Y-39383390D01*
X146743095Y-39383390D02*
X147314523Y-39954819D01*
X147314523Y-39954819D02*
X146695476Y-39954819D01*
X146076428Y-38954819D02*
X145981190Y-38954819D01*
X145981190Y-38954819D02*
X145885952Y-39002438D01*
X145885952Y-39002438D02*
X145838333Y-39050057D01*
X145838333Y-39050057D02*
X145790714Y-39145295D01*
X145790714Y-39145295D02*
X145743095Y-39335771D01*
X145743095Y-39335771D02*
X145743095Y-39573866D01*
X145743095Y-39573866D02*
X145790714Y-39764342D01*
X145790714Y-39764342D02*
X145838333Y-39859580D01*
X145838333Y-39859580D02*
X145885952Y-39907200D01*
X145885952Y-39907200D02*
X145981190Y-39954819D01*
X145981190Y-39954819D02*
X146076428Y-39954819D01*
X146076428Y-39954819D02*
X146171666Y-39907200D01*
X146171666Y-39907200D02*
X146219285Y-39859580D01*
X146219285Y-39859580D02*
X146266904Y-39764342D01*
X146266904Y-39764342D02*
X146314523Y-39573866D01*
X146314523Y-39573866D02*
X146314523Y-39335771D01*
X146314523Y-39335771D02*
X146266904Y-39145295D01*
X146266904Y-39145295D02*
X146219285Y-39050057D01*
X146219285Y-39050057D02*
X146171666Y-39002438D01*
X146171666Y-39002438D02*
X146076428Y-38954819D01*
X148219285Y-52654819D02*
X148219285Y-51654819D01*
X148219285Y-51654819D02*
X147838333Y-51654819D01*
X147838333Y-51654819D02*
X147743095Y-51702438D01*
X147743095Y-51702438D02*
X147695476Y-51750057D01*
X147695476Y-51750057D02*
X147647857Y-51845295D01*
X147647857Y-51845295D02*
X147647857Y-51988152D01*
X147647857Y-51988152D02*
X147695476Y-52083390D01*
X147695476Y-52083390D02*
X147743095Y-52131009D01*
X147743095Y-52131009D02*
X147838333Y-52178628D01*
X147838333Y-52178628D02*
X148219285Y-52178628D01*
X146695476Y-52654819D02*
X147266904Y-52654819D01*
X146981190Y-52654819D02*
X146981190Y-51654819D01*
X146981190Y-51654819D02*
X147076428Y-51797676D01*
X147076428Y-51797676D02*
X147171666Y-51892914D01*
X147171666Y-51892914D02*
X147266904Y-51940533D01*
X145838333Y-51654819D02*
X146028809Y-51654819D01*
X146028809Y-51654819D02*
X146124047Y-51702438D01*
X146124047Y-51702438D02*
X146171666Y-51750057D01*
X146171666Y-51750057D02*
X146266904Y-51892914D01*
X146266904Y-51892914D02*
X146314523Y-52083390D01*
X146314523Y-52083390D02*
X146314523Y-52464342D01*
X146314523Y-52464342D02*
X146266904Y-52559580D01*
X146266904Y-52559580D02*
X146219285Y-52607200D01*
X146219285Y-52607200D02*
X146124047Y-52654819D01*
X146124047Y-52654819D02*
X145933571Y-52654819D01*
X145933571Y-52654819D02*
X145838333Y-52607200D01*
X145838333Y-52607200D02*
X145790714Y-52559580D01*
X145790714Y-52559580D02*
X145743095Y-52464342D01*
X145743095Y-52464342D02*
X145743095Y-52226247D01*
X145743095Y-52226247D02*
X145790714Y-52131009D01*
X145790714Y-52131009D02*
X145838333Y-52083390D01*
X145838333Y-52083390D02*
X145933571Y-52035771D01*
X145933571Y-52035771D02*
X146124047Y-52035771D01*
X146124047Y-52035771D02*
X146219285Y-52083390D01*
X146219285Y-52083390D02*
X146266904Y-52131009D01*
X146266904Y-52131009D02*
X146314523Y-52226247D01*
X148338332Y-33874819D02*
X148004999Y-34874819D01*
X148004999Y-34874819D02*
X147671666Y-33874819D01*
X146766904Y-34779580D02*
X146814523Y-34827200D01*
X146814523Y-34827200D02*
X146957380Y-34874819D01*
X146957380Y-34874819D02*
X147052618Y-34874819D01*
X147052618Y-34874819D02*
X147195475Y-34827200D01*
X147195475Y-34827200D02*
X147290713Y-34731961D01*
X147290713Y-34731961D02*
X147338332Y-34636723D01*
X147338332Y-34636723D02*
X147385951Y-34446247D01*
X147385951Y-34446247D02*
X147385951Y-34303390D01*
X147385951Y-34303390D02*
X147338332Y-34112914D01*
X147338332Y-34112914D02*
X147290713Y-34017676D01*
X147290713Y-34017676D02*
X147195475Y-33922438D01*
X147195475Y-33922438D02*
X147052618Y-33874819D01*
X147052618Y-33874819D02*
X146957380Y-33874819D01*
X146957380Y-33874819D02*
X146814523Y-33922438D01*
X146814523Y-33922438D02*
X146766904Y-33970057D01*
X145766904Y-34779580D02*
X145814523Y-34827200D01*
X145814523Y-34827200D02*
X145957380Y-34874819D01*
X145957380Y-34874819D02*
X146052618Y-34874819D01*
X146052618Y-34874819D02*
X146195475Y-34827200D01*
X146195475Y-34827200D02*
X146290713Y-34731961D01*
X146290713Y-34731961D02*
X146338332Y-34636723D01*
X146338332Y-34636723D02*
X146385951Y-34446247D01*
X146385951Y-34446247D02*
X146385951Y-34303390D01*
X146385951Y-34303390D02*
X146338332Y-34112914D01*
X146338332Y-34112914D02*
X146290713Y-34017676D01*
X146290713Y-34017676D02*
X146195475Y-33922438D01*
X146195475Y-33922438D02*
X146052618Y-33874819D01*
X146052618Y-33874819D02*
X145957380Y-33874819D01*
X145957380Y-33874819D02*
X145814523Y-33922438D01*
X145814523Y-33922438D02*
X145766904Y-33970057D01*
X147766904Y-28842438D02*
X147862142Y-28794819D01*
X147862142Y-28794819D02*
X148004999Y-28794819D01*
X148004999Y-28794819D02*
X148147856Y-28842438D01*
X148147856Y-28842438D02*
X148243094Y-28937676D01*
X148243094Y-28937676D02*
X148290713Y-29032914D01*
X148290713Y-29032914D02*
X148338332Y-29223390D01*
X148338332Y-29223390D02*
X148338332Y-29366247D01*
X148338332Y-29366247D02*
X148290713Y-29556723D01*
X148290713Y-29556723D02*
X148243094Y-29651961D01*
X148243094Y-29651961D02*
X148147856Y-29747200D01*
X148147856Y-29747200D02*
X148004999Y-29794819D01*
X148004999Y-29794819D02*
X147909761Y-29794819D01*
X147909761Y-29794819D02*
X147766904Y-29747200D01*
X147766904Y-29747200D02*
X147719285Y-29699580D01*
X147719285Y-29699580D02*
X147719285Y-29366247D01*
X147719285Y-29366247D02*
X147909761Y-29366247D01*
X147290713Y-29794819D02*
X147290713Y-28794819D01*
X147290713Y-28794819D02*
X146719285Y-29794819D01*
X146719285Y-29794819D02*
X146719285Y-28794819D01*
X146243094Y-29794819D02*
X146243094Y-28794819D01*
X146243094Y-28794819D02*
X146004999Y-28794819D01*
X146004999Y-28794819D02*
X145862142Y-28842438D01*
X145862142Y-28842438D02*
X145766904Y-28937676D01*
X145766904Y-28937676D02*
X145719285Y-29032914D01*
X145719285Y-29032914D02*
X145671666Y-29223390D01*
X145671666Y-29223390D02*
X145671666Y-29366247D01*
X145671666Y-29366247D02*
X145719285Y-29556723D01*
X145719285Y-29556723D02*
X145766904Y-29651961D01*
X145766904Y-29651961D02*
X145862142Y-29747200D01*
X145862142Y-29747200D02*
X146004999Y-29794819D01*
X146004999Y-29794819D02*
X146243094Y-29794819D01*
X144253094Y-55194819D02*
X144253094Y-54194819D01*
X144253094Y-54194819D02*
X143872142Y-54194819D01*
X143872142Y-54194819D02*
X143776904Y-54242438D01*
X143776904Y-54242438D02*
X143729285Y-54290057D01*
X143729285Y-54290057D02*
X143681666Y-54385295D01*
X143681666Y-54385295D02*
X143681666Y-54528152D01*
X143681666Y-54528152D02*
X143729285Y-54623390D01*
X143729285Y-54623390D02*
X143776904Y-54671009D01*
X143776904Y-54671009D02*
X143872142Y-54718628D01*
X143872142Y-54718628D02*
X144253094Y-54718628D01*
X143205475Y-55194819D02*
X143014999Y-55194819D01*
X143014999Y-55194819D02*
X142919761Y-55147200D01*
X142919761Y-55147200D02*
X142872142Y-55099580D01*
X142872142Y-55099580D02*
X142776904Y-54956723D01*
X142776904Y-54956723D02*
X142729285Y-54766247D01*
X142729285Y-54766247D02*
X142729285Y-54385295D01*
X142729285Y-54385295D02*
X142776904Y-54290057D01*
X142776904Y-54290057D02*
X142824523Y-54242438D01*
X142824523Y-54242438D02*
X142919761Y-54194819D01*
X142919761Y-54194819D02*
X143110237Y-54194819D01*
X143110237Y-54194819D02*
X143205475Y-54242438D01*
X143205475Y-54242438D02*
X143253094Y-54290057D01*
X143253094Y-54290057D02*
X143300713Y-54385295D01*
X143300713Y-54385295D02*
X143300713Y-54623390D01*
X143300713Y-54623390D02*
X143253094Y-54718628D01*
X143253094Y-54718628D02*
X143205475Y-54766247D01*
X143205475Y-54766247D02*
X143110237Y-54813866D01*
X143110237Y-54813866D02*
X142919761Y-54813866D01*
X142919761Y-54813866D02*
X142824523Y-54766247D01*
X142824523Y-54766247D02*
X142776904Y-54718628D01*
X142776904Y-54718628D02*
X142729285Y-54623390D01*
D11*
%TO.C,D4*%
X28850000Y-29500000D02*
X29250000Y-29500000D01*
X29250000Y-29500000D02*
X29250000Y-28950000D01*
X29250000Y-29500000D02*
X29250000Y-30050000D01*
X29250000Y-29500000D02*
X29850000Y-29100000D01*
X29850000Y-29100000D02*
X29850000Y-29900000D01*
X29850000Y-29500000D02*
X30350000Y-29500000D01*
X29850000Y-29900000D02*
X29250000Y-29500000D01*
%TO.C,D2*%
X28850000Y-67500000D02*
X29250000Y-67500000D01*
X29250000Y-67500000D02*
X29250000Y-66950000D01*
X29250000Y-67500000D02*
X29250000Y-68050000D01*
X29250000Y-67500000D02*
X29850000Y-67100000D01*
X29850000Y-67100000D02*
X29850000Y-67900000D01*
X29850000Y-67500000D02*
X30350000Y-67500000D01*
X29850000Y-67900000D02*
X29250000Y-67500000D01*
%TO.C,D27*%
X104750000Y-99500000D02*
X105150000Y-99500000D01*
X105150000Y-99500000D02*
X105150000Y-98950000D01*
X105150000Y-99500000D02*
X105150000Y-100050000D01*
X105150000Y-99500000D02*
X105750000Y-99100000D01*
X105750000Y-99100000D02*
X105750000Y-99900000D01*
X105750000Y-99500000D02*
X106250000Y-99500000D01*
X105750000Y-99900000D02*
X105150000Y-99500000D01*
%TO.C,D25*%
X142850000Y-74500000D02*
X143250000Y-74500000D01*
X143250000Y-74500000D02*
X143250000Y-73950000D01*
X143250000Y-74500000D02*
X143250000Y-75050000D01*
X143250000Y-74500000D02*
X143850000Y-74100000D01*
X143850000Y-74100000D02*
X143850000Y-74900000D01*
X143850000Y-74500000D02*
X144350000Y-74500000D01*
X143850000Y-74900000D02*
X143250000Y-74500000D01*
%TO.C,D29*%
X147009857Y-97483207D02*
X147405964Y-97538876D01*
X147405964Y-97538876D02*
X147329419Y-98083524D01*
X147405964Y-97538876D02*
X147482509Y-96994229D01*
X147405964Y-97538876D02*
X148055794Y-97226273D01*
X147944456Y-98018488D02*
X147405964Y-97538876D01*
X148000125Y-97622380D02*
X148495259Y-97691967D01*
X148055794Y-97226273D02*
X147944456Y-98018488D01*
%TO.C,D8*%
X47850000Y-29500000D02*
X48250000Y-29500000D01*
X48250000Y-29500000D02*
X48250000Y-28950000D01*
X48250000Y-29500000D02*
X48250000Y-30050000D01*
X48250000Y-29500000D02*
X48850000Y-29100000D01*
X48850000Y-29100000D02*
X48850000Y-29900000D01*
X48850000Y-29500000D02*
X49350000Y-29500000D01*
X48850000Y-29900000D02*
X48250000Y-29500000D01*
%TO.C,D9*%
X66850000Y-80500000D02*
X67250000Y-80500000D01*
X67250000Y-80500000D02*
X67250000Y-79950000D01*
X67250000Y-80500000D02*
X67250000Y-81050000D01*
X67250000Y-80500000D02*
X67850000Y-80100000D01*
X67850000Y-80100000D02*
X67850000Y-80900000D01*
X67850000Y-80500000D02*
X68350000Y-80500000D01*
X67850000Y-80900000D02*
X67250000Y-80500000D01*
%TO.C,D15*%
X85850000Y-39500000D02*
X86250000Y-39500000D01*
X86250000Y-39500000D02*
X86250000Y-38950000D01*
X86250000Y-39500000D02*
X86250000Y-40050000D01*
X86250000Y-39500000D02*
X86850000Y-39100000D01*
X86850000Y-39100000D02*
X86850000Y-39900000D01*
X86850000Y-39500000D02*
X87350000Y-39500000D01*
X86850000Y-39900000D02*
X86250000Y-39500000D01*
%TO.C,D23*%
X123850000Y-42500000D02*
X124250000Y-42500000D01*
X124250000Y-42500000D02*
X124250000Y-41950000D01*
X124250000Y-42500000D02*
X124250000Y-43050000D01*
X124250000Y-42500000D02*
X124850000Y-42100000D01*
X124850000Y-42100000D02*
X124850000Y-42900000D01*
X124850000Y-42500000D02*
X125350000Y-42500000D01*
X124850000Y-42900000D02*
X124250000Y-42500000D01*
%TO.C,D7*%
X47850000Y-48500000D02*
X48250000Y-48500000D01*
X48250000Y-48500000D02*
X48250000Y-47950000D01*
X48250000Y-48500000D02*
X48250000Y-49050000D01*
X48250000Y-48500000D02*
X48850000Y-48100000D01*
X48850000Y-48100000D02*
X48850000Y-48900000D01*
X48850000Y-48500000D02*
X49350000Y-48500000D01*
X48850000Y-48900000D02*
X48250000Y-48500000D01*
%TO.C,D14*%
X85850000Y-58500000D02*
X86250000Y-58500000D01*
X86250000Y-58500000D02*
X86250000Y-57950000D01*
X86250000Y-58500000D02*
X86250000Y-59050000D01*
X86250000Y-58500000D02*
X86850000Y-58100000D01*
X86850000Y-58100000D02*
X86850000Y-58900000D01*
X86850000Y-58500000D02*
X87350000Y-58500000D01*
X86850000Y-58900000D02*
X86250000Y-58500000D01*
%TO.C,D16*%
X85850000Y-20500000D02*
X86250000Y-20500000D01*
X86250000Y-20500000D02*
X86250000Y-19950000D01*
X86250000Y-20500000D02*
X86250000Y-21050000D01*
X86250000Y-20500000D02*
X86850000Y-20100000D01*
X86850000Y-20100000D02*
X86850000Y-20900000D01*
X86850000Y-20500000D02*
X87350000Y-20500000D01*
X86850000Y-20900000D02*
X86250000Y-20500000D01*
%TO.C,D17*%
X104850000Y-80500000D02*
X105250000Y-80500000D01*
X105250000Y-80500000D02*
X105250000Y-79950000D01*
X105250000Y-80500000D02*
X105250000Y-81050000D01*
X105250000Y-80500000D02*
X105850000Y-80100000D01*
X105850000Y-80100000D02*
X105850000Y-80900000D01*
X105850000Y-80500000D02*
X106350000Y-80500000D01*
X105850000Y-80900000D02*
X105250000Y-80500000D01*
D12*
%TO.C,MCU1*%
X136605000Y-25470000D02*
X136605000Y-56070000D01*
X136605000Y-28070000D02*
X139265000Y-28070000D01*
X139265000Y-25470000D02*
X136605000Y-25470000D01*
X139265000Y-25470000D02*
X139265000Y-56070000D01*
X139265000Y-56070000D02*
X136605000Y-56070000D01*
X151845000Y-25470000D02*
X151845000Y-56070000D01*
X154505000Y-25470000D02*
X151845000Y-25470000D01*
X154505000Y-25470000D02*
X154505000Y-56070000D01*
X154505000Y-56070000D02*
X151845000Y-56070000D01*
D11*
%TO.C,D18*%
X104850000Y-61500000D02*
X105250000Y-61500000D01*
X105250000Y-61500000D02*
X105250000Y-60950000D01*
X105250000Y-61500000D02*
X105250000Y-62050000D01*
X105250000Y-61500000D02*
X105850000Y-61100000D01*
X105850000Y-61100000D02*
X105850000Y-61900000D01*
X105850000Y-61500000D02*
X106350000Y-61500000D01*
X105850000Y-61900000D02*
X105250000Y-61500000D01*
%TO.C,D19*%
X104850000Y-42500000D02*
X105250000Y-42500000D01*
X105250000Y-42500000D02*
X105250000Y-41950000D01*
X105250000Y-42500000D02*
X105250000Y-43050000D01*
X105250000Y-42500000D02*
X105850000Y-42100000D01*
X105850000Y-42100000D02*
X105850000Y-42900000D01*
X105850000Y-42500000D02*
X106350000Y-42500000D01*
X105850000Y-42900000D02*
X105250000Y-42500000D01*
%TO.C,D3*%
X28850000Y-48500000D02*
X29250000Y-48500000D01*
X29250000Y-48500000D02*
X29250000Y-47950000D01*
X29250000Y-48500000D02*
X29250000Y-49050000D01*
X29250000Y-48500000D02*
X29850000Y-48100000D01*
X29850000Y-48100000D02*
X29850000Y-48900000D01*
X29850000Y-48500000D02*
X30350000Y-48500000D01*
X29850000Y-48900000D02*
X29250000Y-48500000D01*
%TO.C,D22*%
X123850000Y-61500000D02*
X124250000Y-61500000D01*
X124250000Y-61500000D02*
X124250000Y-60950000D01*
X124250000Y-61500000D02*
X124250000Y-62050000D01*
X124250000Y-61500000D02*
X124850000Y-61100000D01*
X124850000Y-61100000D02*
X124850000Y-61900000D01*
X124850000Y-61500000D02*
X125350000Y-61500000D01*
X124850000Y-61900000D02*
X124250000Y-61500000D01*
%TO.C,D13*%
X85850000Y-77500000D02*
X86250000Y-77500000D01*
X86250000Y-77500000D02*
X86250000Y-76950000D01*
X86250000Y-77500000D02*
X86250000Y-78050000D01*
X86250000Y-77500000D02*
X86850000Y-77100000D01*
X86850000Y-77100000D02*
X86850000Y-77900000D01*
X86850000Y-77500000D02*
X87350000Y-77500000D01*
X86850000Y-77900000D02*
X86250000Y-77500000D01*
%TO.C,D6*%
X47850000Y-67500000D02*
X48250000Y-67500000D01*
X48250000Y-67500000D02*
X48250000Y-66950000D01*
X48250000Y-67500000D02*
X48250000Y-68050000D01*
X48250000Y-67500000D02*
X48850000Y-67100000D01*
X48850000Y-67100000D02*
X48850000Y-67900000D01*
X48850000Y-67500000D02*
X49350000Y-67500000D01*
X48850000Y-67900000D02*
X48250000Y-67500000D01*
%TO.C,D12*%
X66850000Y-23500000D02*
X67250000Y-23500000D01*
X67250000Y-23500000D02*
X67250000Y-22950000D01*
X67250000Y-23500000D02*
X67250000Y-24050000D01*
X67250000Y-23500000D02*
X67850000Y-23100000D01*
X67850000Y-23100000D02*
X67850000Y-23900000D01*
X67850000Y-23500000D02*
X68350000Y-23500000D01*
X67850000Y-23900000D02*
X67250000Y-23500000D01*
%TO.C,D20*%
X104850000Y-23500000D02*
X105250000Y-23500000D01*
X105250000Y-23500000D02*
X105250000Y-22950000D01*
X105250000Y-23500000D02*
X105250000Y-24050000D01*
X105250000Y-23500000D02*
X105850000Y-23100000D01*
X105850000Y-23100000D02*
X105850000Y-23900000D01*
X105850000Y-23500000D02*
X106350000Y-23500000D01*
X105850000Y-23900000D02*
X105250000Y-23500000D01*
%TO.C,D26*%
X85750000Y-99500000D02*
X86150000Y-99500000D01*
X86150000Y-99500000D02*
X86150000Y-98950000D01*
X86150000Y-99500000D02*
X86150000Y-100050000D01*
X86150000Y-99500000D02*
X86750000Y-99100000D01*
X86750000Y-99100000D02*
X86750000Y-99900000D01*
X86750000Y-99500000D02*
X87250000Y-99500000D01*
X86750000Y-99900000D02*
X86150000Y-99500000D01*
%TO.C,D28*%
X126537256Y-99468881D02*
X126935734Y-99503742D01*
X126935734Y-99503742D02*
X126887798Y-100051651D01*
X126935734Y-99503742D02*
X126983670Y-98955836D01*
X126935734Y-99503742D02*
X127568313Y-99157559D01*
X127498588Y-99954515D02*
X126935734Y-99503742D01*
X127533451Y-99556037D02*
X128031548Y-99599615D01*
X127568313Y-99157559D02*
X127498588Y-99954515D01*
%TO.C,D11*%
X66850000Y-42500000D02*
X67250000Y-42500000D01*
X67250000Y-42500000D02*
X67250000Y-41950000D01*
X67250000Y-42500000D02*
X67250000Y-43050000D01*
X67250000Y-42500000D02*
X67850000Y-42100000D01*
X67850000Y-42100000D02*
X67850000Y-42900000D01*
X67850000Y-42500000D02*
X68350000Y-42500000D01*
X67850000Y-42900000D02*
X67250000Y-42500000D01*
%TO.C,D1*%
X28850000Y-86500000D02*
X29250000Y-86500000D01*
X29250000Y-86500000D02*
X29250000Y-85950000D01*
X29250000Y-86500000D02*
X29250000Y-87050000D01*
X29250000Y-86500000D02*
X29850000Y-86100000D01*
X29850000Y-86100000D02*
X29850000Y-86900000D01*
X29850000Y-86500000D02*
X30350000Y-86500000D01*
X29850000Y-86900000D02*
X29250000Y-86500000D01*
%TO.C,D24*%
X123850000Y-23500000D02*
X124250000Y-23500000D01*
X124250000Y-23500000D02*
X124250000Y-22950000D01*
X124250000Y-23500000D02*
X124250000Y-24050000D01*
X124250000Y-23500000D02*
X124850000Y-23100000D01*
X124850000Y-23100000D02*
X124850000Y-23900000D01*
X124850000Y-23500000D02*
X125350000Y-23500000D01*
X124850000Y-23900000D02*
X124250000Y-23500000D01*
%TO.C,D21*%
X123850000Y-80500000D02*
X124250000Y-80500000D01*
X124250000Y-80500000D02*
X124250000Y-79950000D01*
X124250000Y-80500000D02*
X124250000Y-81050000D01*
X124250000Y-80500000D02*
X124850000Y-80100000D01*
X124850000Y-80100000D02*
X124850000Y-80900000D01*
X124850000Y-80500000D02*
X125350000Y-80500000D01*
X124850000Y-80900000D02*
X124250000Y-80500000D01*
%TO.C,D5*%
X47850000Y-86500000D02*
X48250000Y-86500000D01*
X48250000Y-86500000D02*
X48250000Y-85950000D01*
X48250000Y-86500000D02*
X48250000Y-87050000D01*
X48250000Y-86500000D02*
X48850000Y-86100000D01*
X48850000Y-86100000D02*
X48850000Y-86900000D01*
X48850000Y-86500000D02*
X49350000Y-86500000D01*
X48850000Y-86900000D02*
X48250000Y-86500000D01*
%TO.C,D10*%
X66850000Y-61500000D02*
X67250000Y-61500000D01*
X67250000Y-61500000D02*
X67250000Y-60950000D01*
X67250000Y-61500000D02*
X67250000Y-62050000D01*
X67250000Y-61500000D02*
X67850000Y-61100000D01*
X67850000Y-61100000D02*
X67850000Y-61900000D01*
X67850000Y-61500000D02*
X68350000Y-61500000D01*
X67850000Y-61900000D02*
X67250000Y-61500000D01*
%TD*%
M02*
