M48
; DRILL file {KiCad 9.0.5} date 2025-11-01T14:53:49+0800
; FORMAT={-:-/ absolute / metric / decimal}
; #@! TF.CreationDate,2025-11-01T14:53:49+08:00
; #@! TF.GenerationSoftware,Kicad,Pcbnew,9.0.5
; #@! TF.FileFunction,Plated,1,2,PTH
FMAT,2
METRIC
; #@! TA.AperFunction,Plated,PTH,ViaDrill
T1C0.300
; #@! TA.AperFunction,Plated,PTH,ComponentDrill
T2C0.400
; #@! TA.AperFunction,Plated,PTH,ComponentDrill
T3C0.750
; #@! TA.AperFunction,Plated,PTH,ComponentDrill
T4C0.991
; #@! TA.AperFunction,Plated,PTH,ComponentDrill
T5C1.000
; #@! TA.AperFunction,Plated,PTH,ComponentDrill
T6C1.499
%
G90
G05
T1
X134.1Y-55.0
X134.1Y-72.0
X134.7Y-47.102
X135.1Y-36.5
X135.99Y-48.261
X155.1Y-57.5
X155.728Y-35.0
T2
X142.155Y-26.8
X142.155Y-29.34
X142.155Y-31.88
X142.155Y-34.42
X142.155Y-36.96
X142.155Y-39.5
X142.155Y-42.04
X142.155Y-44.58
X142.155Y-47.12
X142.155Y-49.66
X142.155Y-52.2
X142.155Y-54.74
X148.955Y-26.8
X148.955Y-29.34
X148.955Y-31.88
X148.955Y-34.42
X148.955Y-36.96
X148.955Y-39.5
X148.955Y-42.04
X148.955Y-44.58
X148.955Y-47.12
X148.955Y-49.66
X148.955Y-52.2
X148.955Y-54.74
T3
X153.175Y-61.98
X153.175Y-63.98
T4
X25.79Y-29.5
X25.79Y-48.5
X25.79Y-67.5
X25.79Y-86.5
X33.41Y-29.5
X33.41Y-48.5
X33.41Y-67.5
X33.41Y-86.5
X44.79Y-29.5
X44.79Y-48.5
X44.79Y-67.5
X44.79Y-86.5
X52.41Y-29.5
X52.41Y-48.5
X52.41Y-67.5
X52.41Y-86.5
X63.79Y-23.5
X63.79Y-42.5
X63.79Y-61.5
X63.79Y-80.5
X71.41Y-23.5
X71.41Y-42.5
X71.41Y-61.5
X71.41Y-80.5
X82.69Y-99.5
X82.79Y-20.5
X82.79Y-39.5
X82.79Y-58.5
X82.79Y-77.5
X90.31Y-99.5
X90.41Y-20.5
X90.41Y-39.5
X90.41Y-58.5
X90.41Y-77.5
X101.69Y-99.5
X101.79Y-23.5
X101.79Y-42.5
X101.79Y-61.5
X101.79Y-80.5
X109.31Y-99.5
X109.41Y-23.5
X109.41Y-42.5
X109.41Y-61.5
X109.41Y-80.5
X120.79Y-23.5
X120.79Y-42.5
X120.79Y-61.5
X120.79Y-80.5
X123.489Y-99.202
X128.41Y-23.5
X128.41Y-42.5
X128.41Y-61.5
X128.41Y-80.5
X131.08Y-99.866
X139.79Y-74.5
X143.98Y-97.057
X147.41Y-74.5
X151.525Y-98.118
T5
X137.935Y-26.8
X137.935Y-29.34
X137.935Y-31.88
X137.935Y-34.42
X137.935Y-36.96
X137.935Y-39.5
X137.935Y-42.04
X137.935Y-44.58
X137.935Y-47.12
X137.935Y-49.66
X137.935Y-52.2
X137.935Y-54.74
X153.175Y-26.8
X153.175Y-29.34
X153.175Y-31.88
X153.175Y-34.42
X153.175Y-36.96
X153.175Y-39.5
X153.175Y-42.04
X153.175Y-44.58
X153.175Y-47.12
X153.175Y-49.66
X153.175Y-52.2
X153.175Y-54.74
T6
X25.79Y-35.96
X25.79Y-54.96
X25.79Y-73.96
X25.79Y-92.96
X27.06Y-33.42
X27.06Y-52.42
X27.06Y-71.42
X27.06Y-90.42
X32.14Y-33.42
X32.14Y-52.42
X32.14Y-71.42
X32.14Y-90.42
X33.41Y-35.96
X33.41Y-54.96
X33.41Y-73.96
X33.41Y-92.96
X44.79Y-35.96
X44.79Y-54.96
X44.79Y-73.96
X44.79Y-92.96
X46.06Y-33.42
X46.06Y-52.42
X46.06Y-71.42
X46.06Y-90.42
X51.14Y-33.42
X51.14Y-52.42
X51.14Y-71.42
X51.14Y-90.42
X52.41Y-35.96
X52.41Y-54.96
X52.41Y-73.96
X52.41Y-92.96
X63.79Y-29.96
X63.79Y-48.96
X63.79Y-67.96
X63.79Y-86.96
X65.06Y-27.42
X65.06Y-46.42
X65.06Y-65.42
X65.06Y-84.42
X70.14Y-27.42
X70.14Y-46.42
X70.14Y-65.42
X70.14Y-84.42
X71.41Y-29.96
X71.41Y-48.96
X71.41Y-67.96
X71.41Y-86.96
X82.69Y-105.96
X82.79Y-26.96
X82.79Y-45.96
X82.79Y-64.96
X82.79Y-83.96
X83.96Y-103.42
X84.06Y-24.42
X84.06Y-43.42
X84.06Y-62.42
X84.06Y-81.42
X89.04Y-103.42
X89.14Y-24.42
X89.14Y-43.42
X89.14Y-62.42
X89.14Y-81.42
X90.31Y-105.96
X90.41Y-26.96
X90.41Y-45.96
X90.41Y-64.96
X90.41Y-83.96
X101.69Y-105.96
X101.79Y-29.96
X101.79Y-48.96
X101.79Y-67.96
X101.79Y-86.96
X102.96Y-103.42
X103.06Y-27.42
X103.06Y-46.42
X103.06Y-65.42
X103.06Y-84.42
X108.04Y-103.42
X108.14Y-27.42
X108.14Y-46.42
X108.14Y-65.42
X108.14Y-84.42
X109.31Y-105.96
X109.41Y-29.96
X109.41Y-48.96
X109.41Y-67.96
X109.41Y-86.96
X120.79Y-29.96
X120.79Y-48.96
X120.79Y-67.96
X120.79Y-86.96
X122.06Y-27.42
X122.06Y-46.42
X122.06Y-65.42
X122.06Y-84.42
X122.926Y-105.638
X124.412Y-103.218
X127.14Y-27.42
X127.14Y-46.42
X127.14Y-65.42
X127.14Y-84.42
X128.41Y-29.96
X128.41Y-48.96
X128.41Y-67.96
X128.41Y-86.96
X129.473Y-103.661
X130.517Y-106.302
X139.79Y-80.96
X141.06Y-78.42
X143.081Y-103.454
X144.692Y-101.116
X146.14Y-78.42
X147.41Y-80.96
X149.722Y-101.823
X150.626Y-104.515
M30
